<svg width="54" height="83" viewBox="0 0 54 83" fill="none" xmlns="http://www.w3.org/2000/svg"><path d="M32.801 31.408c3.243-8.312-.356-13.45-4.286-13.219-3.597.212-7.695 4.508-8.758 12.296a27.982 27.982 0 00-3.172.578C10.75 32.495-1.195 39.188.098 52.303c.59 5.988 6.911 7.898 10.676 6.361 2.589-1.057 4.304-3.319 4.434-5.266 0 0-4.05.939-5.465-3.646-1.285-4.16.918-13.204 9.756-15.633-.008.71.006 1.442.046 2.197.122 2.284.337 4.07.57 5.817a52.876 52.876 0 01-5.403 2.765l.044 4.643s2.58-1.315 5.846-3.694c.357 3.022.635 6.735.548 12.96-.115 8.204-.795 13.095-2.672 16.375-2.97-1.174-6.613-2.62-8.818-2.791-3.244-.25-5.997 1.284-6.13 4.148-.077 1.668.353 3.577 3.227 5.075 2.986 1.556 7.926 1.665 13.015-2.797 2.756 1.43 6.166 2.899 9.66 3.373 5.312.719 19.114-2.347 23.03-18.128C56.826 46.48 43.8 34.597 32.8 31.408zm-4.325-7.837c2.284.285 2.892 3.595 1.88 7.26a35.421 35.421 0 00-7.348-.586c1.07-4.503 3.41-6.933 5.471-6.676l-.002.002zM22.59 38.899a29.319 29.319 0 01-.093-5.313c2.333-.21 4.54-.049 6.588.433-.165.31-.341.618-.529.922-1.26 2.029-3.451 3.902-5.724 5.47a14.415 14.415 0 01-.242-1.512zm-8.297 40.462c-3.135 1.91-6.167-.171-6.18-1.857-.016-2.296 2.547-3.337 6.103-1.76.578.256 1.519.818 2.724 1.513-.753.795-1.629 1.482-2.649 2.105l.002-.001zm25.844-10.01c-3.286 5.594-10.432 9.507-18.133 7.145 1.743-2.131 3.784-5.43 6.348-11.183 3.718-8.34 5.088-15.149 5.088-15.149s-6.715-.942-9.622-6.866c2.708-2.33 5.47-5.247 7.421-8.635 6.68 2.465 11.286 8.656 12.3 16.844.672 5.427.345 11.462-3.403 17.842" fill="#0959A1"/><path d="M18.652 0l1.769 5.476h5.731l-4.64 3.499 1.774 5.529-4.634-3.354-4.64 3.394 1.776-5.576-4.636-3.492h5.732L18.652 0zM34.657 0l1.77 5.477h5.73l-4.637 3.5 1.777 5.53-4.64-3.355-4.636 3.395 1.775-5.577-4.64-3.493h5.734L34.657 0z" fill="#BFA069"/></svg>