<?xml version="1.0" standalone="no"?>
<!DOCTYPE svg PUBLIC "-//W3C//DTD SVG 1.1//EN" "http://www.w3.org/Graphics/SVG/1.1/DTD/svg11.dtd" >
<svg>
<metadata>
Created by FontForge 20090914 at Mon Jul 12 13:01:36 2021
 By www-data
Copyright (c) 2019 by TypeType. Designers Ivan Gladkikh, Pavel Emelyanov. Technical designers Marina Khodak, Nadezhda Polomoshnova, Kseniya Karataeva, Olexa Volochay, Nadyr Rakhimov. All rights reserved. |DCNT
</metadata>
<defs>
<font id="TTHoves-DemiBold" horiz-adv-x="530" >
  <font-face 
    font-family="TT Hoves DemiBold"
    font-weight="600"
    font-stretch="normal"
    units-per-em="1000"
    panose-1="2 0 5 3 3 0 0 2 0 4"
    ascent="700"
    descent="-300"
    x-height="510"
    cap-height="700"
    bbox="-535 -250 1438 1010"
    underline-thickness="50"
    underline-position="-150"
    unicode-range="U+000D-U+FB04"
  />
<missing-glyph horiz-adv-x="0" 
 />
    <glyph glyph-name="f_f" unicode="ff" horiz-adv-x="655" 
d="M110 0v390h-85v120h85v75c0 38 11.333 68.333 34 91s53 34 91 34h100v-110h-65c-10 0 -18.333 -3.33301 -25 -10s-10 -15 -10 -25v-55h160v75c0 38 11.333 68.333 34 91s53 34 91 34h110v-110h-75c-10 0 -18.333 -3.33301 -25 -10s-10 -15 -10 -25v-55h110v-120h-110
v-390h-125v390h-160v-390h-125z" />
    <glyph glyph-name="uniFB01" unicode="fi" horiz-adv-x="585" 
d="M110 0v390h-85v120h85v75c0 38 11.333 68.333 34 91s53 34 91 34h95v-110h-60c-10 0 -18.333 -3.33301 -25 -10s-10 -15 -10 -25v-55h285v-510h-125v390h-160v-390h-125zM390 590v120h135v-120h-135z" />
    <glyph glyph-name="uniFB02" unicode="fl" horiz-adv-x="590" 
d="M110 0v390h-85v120h85v75c0 38 11.333 68.333 34 91s53 34 91 34h285v-710h-125v600h-125c-10 0 -18.333 -3.33301 -25 -10s-10 -15 -10 -25v-55h100v-120h-100v-390h-125z" />
    <glyph glyph-name="f_f_i" unicode="ffi" horiz-adv-x="870" 
d="M110 0v390h-85v120h85v75c0 38 11.333 68.333 34 91s53 34 91 34h100v-110h-65c-10 0 -18.333 -3.33301 -25 -10s-10 -15 -10 -25v-55h160v75c0 38 11.333 68.333 34 91s53 34 91 34h95v-110h-60c-10 0 -18.333 -3.33301 -25 -10s-10 -15 -10 -25v-55h285v-510h-125v390
h-160v-390h-125v390h-160v-390h-125zM675 590v120h135v-120h-135z" />
    <glyph glyph-name="f_f_l" unicode="ffl" horiz-adv-x="875" 
d="M110 0v390h-85v120h85v75c0 38 11.333 68.333 34 91s53 34 91 34h100v-110h-65c-10 0 -18.333 -3.33301 -25 -10s-10 -15 -10 -25v-55h160v75c0 38 11.333 68.333 34 91s53 34 91 34h285v-710h-125v600h-125c-10 0 -18.333 -3.33301 -25 -10s-10 -15 -10 -25v-55h100
v-120h-100v-390h-125v390h-160v-390h-125z" />
    <glyph glyph-name="f_f_j" unicode="ffj" horiz-adv-x="870" 
d="M675 590v120h135v-120h-135zM110 0v390h-85v120h85v75c0 38 11.333 68.333 34 91s53 34 91 34h100v-110h-65c-10 0 -18.333 -3.33301 -25 -10s-10 -15 -10 -25v-55h160v75c0 38 11.333 68.333 34 91s53 34 91 34h95v-110h-60c-10 0 -18.333 -3.33301 -25 -10
s-10 -15 -10 -25v-55h285v-590c0 -36 -11.833 -65 -35.5 -87s-55.167 -33 -94.5 -33h-110v115h80c23.333 0 35 11.667 35 35v440h-160v-390h-125v390h-160v-390h-125z" />
    <glyph glyph-name="f_j" unicode="fj" horiz-adv-x="585" 
d="M280 -200v115h80c23.333 0 35 11.667 35 35v440h-160v-390h-125v390h-85v120h85v75c0 38 11.333 68.333 34 91s53 34 91 34h95v-110h-60c-10 0 -18.333 -3.33301 -25 -10s-10 -15 -10 -25v-55h285v-590c0 -36 -11.833 -65 -35.5 -87s-55.167 -33 -94.5 -33h-110zM390 590
v120h135v-120h-135z" />
    <glyph glyph-name=".notdef" horiz-adv-x="0" 
 />
    <glyph glyph-name="NULL" horiz-adv-x="0" 
 />
    <glyph glyph-name="NULL" horiz-adv-x="0" 
 />
    <glyph glyph-name="CR" unicode="&#xd;" horiz-adv-x="0" 
 />
    <glyph glyph-name="space" unicode=" " horiz-adv-x="250" 
 />
    <glyph glyph-name="exclam" unicode="!" horiz-adv-x="290" 
d="M100 205l-20 220v275h130v-275l-20 -220h-90zM80 0v140h130v-140h-130z" />
    <glyph glyph-name="quotedbl" unicode="&#x22;" horiz-adv-x="420" 
d="M245 470v230h115v-230h-115zM60 470v230h115v-230h-115z" />
    <glyph glyph-name="numbersign" unicode="#" horiz-adv-x="715" 
d="M105 0l37 170h-132l25 110h130l30 140h-130l25 110h130l35 170h115l-36 -170h124l37 170h115l-36 -170h131l-25 -110h-130l-30 -140h130l-25 -110h-129l-36 -170h-115l37 170h-126l-36 -170h-115zM280 280h125l30 140h-125z" />
    <glyph glyph-name="dollar" unicode="$" horiz-adv-x="635" 
d="M245 -110l0.000976562 107.002c-66 12 -117.5 38 -154.5 78s-55.5 88.333 -55.5 145h130c0 -31.333 14.167 -57.5 42.5 -78.5s65.833 -31.5 112.5 -31.5c47.333 0 82.5 8.16699 105.5 24.5s34.5 38.166 34.5 65.499c0 46.667 -38.333 76.667 -115 90l-120 20
c-116.667 19.333 -175 82.666 -175 189.999c0 50.667 17.167 94.834 51.5 132.501s82.166 61.5 143.499 71.5v106h125v-104c68 -10 120 -35.333 156 -76s54 -90.667 54 -150h-130c0 31.333 -12.333 57.5 -37 78.5s-59 31.5 -103 31.5
c-43.333 0 -75.833 -8.16699 -97.5 -24.5s-32.5 -38.166 -32.5 -65.499c0 -21.333 7 -38.5 21 -51.5s38.667 -22.5 74 -28.5l110 -20c71.333 -12.667 123.333 -34.834 156 -66.501s49 -76.167 49 -133.5c0 -56.667 -18.667 -103.334 -56 -140.001s-92 -59 -164 -67v-103
h-125z" />
    <glyph glyph-name="percent" unicode="%" horiz-adv-x="810" 
d="M125 0l435 700h125l-435 -700h-125zM200 710c47.333 0 86.666 -15.667 117.999 -47s47 -70.666 47 -117.999s-15.667 -86.666 -47 -117.999s-70.666 -47 -117.999 -47s-86.666 15.667 -117.999 47s-47 70.666 -47 117.999s15.667 86.666 47 117.999s70.666 47 117.999 47
zM200 470c20 0 36.667 7 50 21s20 32 20 54s-6.66699 40 -20 54s-30 21 -50 21s-36.667 -7 -50 -21s-20 -32 -20 -54s6.66699 -40 20 -54s30 -21 50 -21zM445 155c0 47.333 15.667 86.666 47 117.999s70.666 47 117.999 47s86.666 -15.667 117.999 -47
s47 -70.666 47 -117.999s-15.667 -86.666 -47 -117.999s-70.666 -47 -117.999 -47s-86.666 15.667 -117.999 47s-47 70.666 -47 117.999zM610 80c20 0 36.667 7 50 21s20 32 20 54s-6.66699 40 -20 54s-30 21 -50 21s-36.667 -7 -50 -21s-20 -32 -20 -54s6.66699 -40 20 -54
s30 -21 50 -21z" />
    <glyph glyph-name="ampersand" unicode="&#x26;" horiz-adv-x="645" 
d="M130 340l39.998 30.001l-37 40c-13.333 14.667 -23.5 26.667 -30.5 36s-13.333 22.166 -19 38.499s-8.5 34.833 -8.5 55.5c0 48.667 18.5 89.167 55.5 121.5s85.167 48.5 144.5 48.5c57.333 0 105 -16.833 143 -50.5s57 -75.167 57 -124.5
c0 -26 -5.5 -49.833 -16.5 -71.5s-21.833 -37.334 -32.5 -47.001s-24.334 -20.167 -41.001 -31.5l-50 -35l125 -135c6.66699 12.667 12.334 24.334 17.001 35.001c12 28 18 54.667 18 80h120c0 -50 -12.667 -98.333 -38 -145c-9.33301 -18 -21.666 -36.333 -36.999 -55
l120 -130h-150l-55 60c-14.667 -12.667 -32 -24.334 -52 -35.001c-40.667 -23.333 -85 -35 -133 -35c-72 0 -128.333 17.333 -169 52s-61 79 -61 133c0 40 6.83301 71.333 20.5 94s36.834 46.334 69.501 71.001zM264.998 430.001l30 20c18 12 31.667 23.833 41 35.5
s14 26.5 14 44.5c0 20 -7 36.667 -21 50s-32 20 -54 20s-40 -6.66699 -54 -20s-21 -30 -21 -50c0 -23.333 15 -50 45 -80zM384.998 135.001l-140.999 152l-29 -22c-33.333 -24.667 -50 -53 -50 -85c0 -23.333 9.66699 -43.333 29 -60s44.666 -25 75.999 -25
c50 0 88.333 13.333 115 40z" />
    <glyph glyph-name="quotesingle" unicode="'" horiz-adv-x="235" 
d="M60 470v230h115v-230h-115z" />
    <glyph glyph-name="parenleft" unicode="(" horiz-adv-x="360" 
d="M340 -200l-130 -0.00195312c-36.667 52.667 -69.167 118.334 -97.5 197.001s-42.5 168 -42.5 268s14.167 189.333 42.5 268s60.833 144.334 97.5 197.001h130c-96.667 -140.667 -145 -295.667 -145 -465s48.333 -324.333 145 -465z" />
    <glyph glyph-name="parenright" unicode=")" horiz-adv-x="360" 
d="M150 -200l-130 0.00195312c96.667 140.667 145 295.667 145 465s-48.333 324.333 -145 465h130c36.667 -52.667 69.167 -118.334 97.5 -197.001s42.5 -168 42.5 -268s-14.167 -189.333 -42.5 -268s-60.833 -144.334 -97.5 -197.001z" />
    <glyph glyph-name="asterisk" unicode="*" horiz-adv-x="490" 
d="M90 365l90 110l-140 30l30 95l135 -50l-10 150h100l-10 -150l135 50l30 -95l-140 -30l90 -110l-75 -60l-80 120l-80 -120z" />
    <glyph glyph-name="plus" unicode="+" horiz-adv-x="550" 
d="M220 50v185h-170v110h170v185h110v-185h170v-110h-170v-185h-110z" />
    <glyph glyph-name="comma" unicode="," horiz-adv-x="255" 
d="M40 -90l25 230h140l-65 -230h-100z" />
    <glyph glyph-name="hyphen" unicode="-" horiz-adv-x="430" 
d="M45 230v115h340v-115h-340z" />
    <glyph glyph-name="period" unicode="." horiz-adv-x="260" 
d="M60 0v140h140v-140h-140z" />
    <glyph glyph-name="slash" unicode="/" horiz-adv-x="400" 
d="M0 -200l275 930h125l-275 -930h-125z" />
    <glyph glyph-name="zero" unicode="0" horiz-adv-x="670" 
d="M335 115c45.333 0 83.333 20.167 114 60.5s46 98.5 46 174.5s-15.333 134.167 -46 174.5s-68.667 60.5 -114 60.5s-83.333 -20.167 -114 -60.5s-46 -98.5 -46 -174.5s15.333 -134.167 46 -174.5s68.667 -60.5 114 -60.5zM335 710c82.667 0 151.667 -32.167 207 -96.5
s83 -152.166 83 -263.499s-27.667 -199.166 -83 -263.499s-124.333 -96.5 -207 -96.5s-151.667 32.167 -207 96.5s-83 152.166 -83 263.499s27.667 199.166 83 263.499s124.333 96.5 207 96.5z" />
    <glyph glyph-name="one" unicode="1" horiz-adv-x="375" 
d="M170 0v500h-145v125h115c20 0 30 10 30 30v45h130v-700h-130z" />
    <glyph glyph-name="two" unicode="2" horiz-adv-x="570" 
d="M55 0v115l285 275c10.667 10.667 18.5 19.167 23.5 25.5s9.83301 15.5 14.5 27.5s7 26 7 42c0 28 -9.33301 51.667 -28 71s-42.667 29 -72 29c-30.667 0 -56.667 -11.5 -78 -34.5s-32 -51.5 -32 -85.5h-130c0 72 22.5 130.833 67.5 176.5s102.5 68.5 172.5 68.5
c71.333 0 128.333 -21 171 -63s64 -96 64 -162c0 -12 -1 -23.5 -3 -34.5s-4.16699 -20.5 -6.5 -28.5s-6.33301 -17.167 -12 -27.5s-10.167 -18 -13.5 -23s-9.33301 -12.5 -18 -22.5s-14.5 -16.5 -17.5 -19.5l-20.5 -20.5l-19 -19l-165 -160v-5h285v-125h-475z" />
    <glyph glyph-name="three" unicode="3" horiz-adv-x="575" 
d="M30 210l130 -0.00195312c0 -26.667 10.833 -49.167 32.5 -67.5s50.834 -27.5 87.501 -27.5s65 8.33301 85 25s30 38.334 30 65.001c0 28.667 -10.333 51.667 -31 69s-50.334 26 -89.001 26h-45v115h45c36.667 0 64.167 8.33301 82.5 25s27.5 38.334 27.5 65.001
c0 23.333 -9 42.5 -27 57.5s-44 22.5 -78 22.5c-34.667 0 -61.667 -7.66699 -81 -23s-29 -36 -29 -62h-130c0 59.333 22.5 109.166 67.5 149.499s104.167 60.5 177.5 60.5c68.667 0 124.167 -19.5 166.5 -58.5s63.5 -87.833 63.5 -146.5c0 -45.333 -16 -83.333 -48 -114
c-15.333 -14 -31 -24.333 -47 -31v-5c20 -8.66699 37.333 -19.667 52 -33c35.333 -31.333 53 -73.666 53 -126.999c0 -56.667 -22.667 -105 -68 -145s-104.333 -60 -177 -60c-76 0 -136.667 20.833 -182 62.5s-68 94.167 -68 157.5z" />
    <glyph glyph-name="four" unicode="4" horiz-adv-x="565" 
d="M15 140v110l250 450h200v-440h80v-120h-80v-140h-130v140h-320zM160 260h175v285h-20l-155 -280v-5z" />
    <glyph glyph-name="five" unicode="5" horiz-adv-x="585" 
d="M45 200l130 0.00292969c3.33301 -21.333 15 -40.833 35 -58.5s48.333 -26.5 85 -26.5c38 0 67.5 10.167 88.5 30.5s31.5 48.5 31.5 84.5c0 33.333 -10.667 60.833 -32 82.5s-50.666 32.5 -87.999 32.5c-26.667 0 -49.167 -4.83301 -67.5 -14.5
s-30.833 -19.834 -37.5 -30.501h-133l40 400h408v-125h-295l-15 -135h5c24 16.667 60.667 25 110 25c68 0 124.167 -22.167 168.5 -66.5s66.5 -100.5 66.5 -168.5c0 -70.667 -23.167 -128.334 -69.5 -173.001s-106.5 -67 -180.5 -67c-42.667 0 -80.5 6.5 -113.5 19.5
s-58.833 30.167 -77.5 51.5s-32.834 43.666 -42.501 66.999s-15.167 47.333 -16.5 72z" />
    <glyph glyph-name="six" unicode="6" horiz-adv-x="580" 
d="M170 230c0 -35.333 11.167 -64.166 33.5 -86.499s51.166 -33.5 86.499 -33.5s64.166 11.167 86.499 33.5s33.5 51.166 33.5 86.499s-11.167 64.166 -33.5 86.499s-51.166 33.5 -86.499 33.5s-64.166 -11.167 -86.499 -33.5s-33.5 -51.166 -33.5 -86.499zM85 390
l200.001 309.999h150l-145 -230h10c67.333 0 124.166 -23.167 170.499 -69.5s69.5 -103.166 69.5 -170.499c0 -68 -23.667 -125 -71 -171s-107 -69 -179 -69s-131.667 23 -179 69s-71 103 -71 171c0 60.667 15 114 45 160z" />
    <glyph glyph-name="seven" unicode="7" horiz-adv-x="525" 
d="M105 0l240 575h-320v125h470v-115l-245 -585h-145z" />
    <glyph glyph-name="eight" unicode="8" horiz-adv-x="590" 
d="M150 360v5c-17.333 8.66699 -32.333 19.667 -45 33c-30 30 -45 67.333 -45 112c0 56 21.667 103.333 65 142s100 58 170 58s126.667 -19.333 170 -58s65 -86 65 -142c0 -44.667 -15 -82 -45 -112c-12.667 -13.333 -27.667 -24.333 -45 -33v-5
c20 -10.667 37.333 -23.334 52 -38.001c35.333 -35.333 53 -77.666 53 -126.999c0 -57.333 -22.833 -105.833 -68.5 -145.5s-106.167 -59.5 -181.5 -59.5s-135.833 19.833 -181.5 59.5s-68.5 88.167 -68.5 145.5c0 50 17.333 92.333 52 127c15.333 15.333 33 28 53 38z
M190 505c0 -26 9.5 -47.5 28.5 -64.5s44.5 -25.5 76.5 -25.5s57.5 8.5 76.5 25.5s28.5 38.5 28.5 64.5s-9.5 47.5 -28.5 64.5s-44.5 25.5 -76.5 25.5s-57.5 -8.5 -76.5 -25.5s-28.5 -38.5 -28.5 -64.5zM175 205c0 -28.667 10.833 -52.5 32.5 -71.5
s50.834 -28.5 87.501 -28.5s65.834 9.5 87.501 28.5s32.5 42.833 32.5 71.5s-10.833 52.5 -32.5 71.5s-50.834 28.5 -87.501 28.5s-65.834 -9.5 -87.501 -28.5s-32.5 -42.833 -32.5 -71.5z" />
    <glyph glyph-name="nine" unicode="9" horiz-adv-x="580" 
d="M290 350c35.333 0 64.166 11.167 86.499 33.5s33.5 51.166 33.5 86.499s-11.167 64.166 -33.5 86.499s-51.166 33.5 -86.499 33.5s-64.166 -11.167 -86.499 -33.5s-33.5 -51.166 -33.5 -86.499s11.167 -64.166 33.5 -86.499s51.166 -33.5 86.499 -33.5zM145 0
l144.999 230.001h-10c-67.333 0 -124.166 23.167 -170.499 69.5s-69.5 103.166 -69.5 170.499c0 68 23.667 125 71 171s107 69 179 69s131.667 -23 179 -69s71 -103 71 -171c0 -60.667 -15 -114 -45 -160l-200 -310h-150z" />
    <glyph glyph-name="colon" unicode=":" horiz-adv-x="260" 
d="M60 0v140h140v-140h-140zM60 370v140h140v-140h-140z" />
    <glyph glyph-name="semicolon" unicode=";" horiz-adv-x="255" 
d="M40 -90l25 230h140l-65 -230h-100zM65 370v140h140v-140h-140z" />
    <glyph glyph-name="less" unicode="&#x3c;" horiz-adv-x="550" 
d="M55 230v120l440 175v-125l-295 -110l295 -110v-125z" />
    <glyph glyph-name="equal" unicode="=" horiz-adv-x="550" 
d="M70 335v110h410v-110h-410zM70 135v110h410v-110h-410z" />
    <glyph glyph-name="greater" unicode="&#x3e;" horiz-adv-x="550" 
d="M55 55v125l295 110l-295 110v125l440 -175v-120z" />
    <glyph glyph-name="question" unicode="?" 
d="M190 205l-0.000976562 40.001c0 44 7.66699 78.833 23 104.5s41 47.5 77 65.5c23.333 12 40.833 24 52.5 36s17.5 28.333 17.5 49c0 26 -9.5 47.5 -28.5 64.5s-44.5 25.5 -76.5 25.5c-29.333 0 -52.5 -8.5 -69.5 -25.5s-25.5 -38.5 -25.5 -64.5h-135
c0 61.333 21.5 111.666 64.5 150.999s99.833 59 170.5 59c70 0 126.667 -19.333 170 -58s65 -86 65 -142c0 -43.333 -8.66699 -77.5 -26 -102.5s-43.666 -45.833 -78.999 -62.5c-50 -24.667 -75 -58 -75 -100v-40h-125zM184.999 0.000976562v140h135v-140h-135z" />
    <glyph glyph-name="at" unicode="@" horiz-adv-x="945" 
d="M460 175c28.667 0 52.5 10.333 71.5 31s28.5 47 28.5 79s-9.5 58.333 -28.5 79s-42.833 31 -71.5 31s-52.5 -10.333 -71.5 -31s-28.5 -47 -28.5 -79s9.5 -58.333 28.5 -79s42.833 -31 71.5 -31zM470 -5h204.998v-105h-205c-124 0 -225 37.667 -303 113s-117 171 -117 287
s40.333 213.333 121 292s182 118 304 118c126 0 229.167 -37.833 309.5 -113.5s120.5 -169.5 120.5 -281.5c0 -74 -17 -130 -51 -168s-82 -57 -144 -57c-36 0 -65.333 9 -88 27c-11.333 8 -20.333 17.333 -27 28h-5c-10 -10.667 -21.333 -20 -34 -28
c-27.333 -18 -61 -27 -101 -27c-58 0 -105.833 19.167 -143.5 57.5s-56.5 87.5 -56.5 147.5s18.833 109.167 56.5 147.5s85.5 57.5 143.5 57.5c30.667 0 57.667 -6.66699 81 -20c10.667 -6 20.334 -12.667 29.001 -20h5l10 35h85v-250c0 -17.333 4.5 -30.833 13.5 -40.5
s21.167 -14.5 36.5 -14.5c53.333 0 80 41.667 80 125c0 84 -29.333 153.333 -88 208s-136 82 -232 82c-89.333 0 -164.166 -29.5 -224.499 -88.5s-90.5 -131.167 -90.5 -216.5c0 -86 28.667 -156.667 86 -212s132 -83 224 -83z" />
    <glyph glyph-name="A" unicode="A" horiz-adv-x="690" 
d="M0 0l250 700h190l250 -700h-145l-53 150h-294l-53 -150h-145zM240 270h210l-95 280h-20z" />
    <glyph glyph-name="B" unicode="B" horiz-adv-x="660" 
d="M75 0v700h325c60 0 108.333 -18 145 -54s55 -83 55 -141c0 -43.333 -11.667 -81.333 -35 -114c-12 -15.333 -23.667 -27.333 -35 -36v-5c14.667 -8.66699 28 -20.667 40 -36c26.667 -33.333 40 -73 40 -119c0 -58 -18.333 -105 -55 -141s-85 -54 -145 -54h-335zM205 410
h180c25.333 0 45.833 7.83301 61.5 23.5s23.5 36.167 23.5 61.5c0 28 -7.66699 50 -23 66s-36 24 -62 24h-180v-175zM205 115l190 0.00195312c22.667 0 42.5 8.66699 59.5 26s25.5 38.666 25.5 63.999s-8.5 46.666 -25.5 63.999s-36.833 26 -59.5 26h-190v-180z" />
    <glyph glyph-name="C" unicode="C" horiz-adv-x="735" 
d="M565 250l134.999 -0.000976562c-4 -18.667 -9.83301 -38 -17.5 -58s-20 -42.5 -37 -67.5s-36.5 -47.167 -58.5 -66.5s-50.667 -35.5 -86 -48.5s-74 -19.5 -116 -19.5c-96 0 -176.667 34 -242 102s-98 154 -98 258s32.667 190 98 258s146 102 242 102
c39.333 0 75.833 -5.83301 109.5 -17.5s61.834 -26.5 84.501 -44.5s42.667 -38.833 60 -62.5s30.666 -46.167 39.999 -67.5s16.333 -42.333 21 -63h-135c-13.333 34.667 -34.833 65 -64.5 91s-68.167 39 -115.5 39c-61.333 0 -111.666 -21.5 -150.999 -64.5
s-59 -99.833 -59 -170.5s19.667 -127.5 59 -170.5s89.666 -64.5 150.999 -64.5c48 0 86.833 13.333 116.5 40s50.834 58.334 63.501 95.001z" />
    <glyph glyph-name="D" unicode="D" horiz-adv-x="715" 
d="M75 0v700h255c95.333 0 175.833 -33.5 241.5 -100.5s98.5 -150.167 98.5 -249.5s-32.833 -182.5 -98.5 -249.5s-146.167 -100.5 -241.5 -100.5h-255zM205 125l125 0.00195312c60.667 0 110.834 20.667 150.501 62s59.5 95.666 59.5 162.999
s-19.833 121.666 -59.5 162.999s-89.834 62 -150.501 62h-125v-450z" />
    <glyph glyph-name="E" unicode="E" horiz-adv-x="600" 
d="M75 0v700h470v-120h-340v-170h320v-120h-320v-170h340v-120h-470z" />
    <glyph glyph-name="F" unicode="F" horiz-adv-x="585" 
d="M75 0v700h465v-120h-335v-170h310v-120h-310v-290h-130z" />
    <glyph glyph-name="G" unicode="G" horiz-adv-x="765" 
d="M605 0l-10 80.001h-5c-12.667 -16.667 -29.334 -31.667 -50.001 -45c-45.333 -30 -97 -45 -155 -45c-96 0 -176.667 34 -242 102s-98 154 -98 258s32.667 190 98 258s146 102 242 102c45.333 0 87 -7.66699 125 -23s69.667 -35.666 95 -60.999s45.833 -52 61.5 -80
s26.834 -56.667 33.501 -86h-135c-38.667 83.333 -98.667 125 -180 125c-61.333 0 -111.666 -21.5 -150.999 -64.5s-59 -99.833 -59 -170.5s19.667 -127.5 59 -170.5s89.666 -64.5 150.999 -64.5c30.667 0 58.667 5.66699 84 17s45.333 25.166 60 41.499
s26 32.666 34 48.999s12 30.5 12 42.5v5h-175v100h305v-370h-100z" />
    <glyph glyph-name="H" unicode="H" horiz-adv-x="725" 
d="M75 0v700h130v-280h315v280h130v-700h-130v290h-315v-290h-130z" />
    <glyph glyph-name="I" unicode="I" horiz-adv-x="280" 
d="M75 0v700h130v-700h-130z" />
    <glyph glyph-name="J" unicode="J" horiz-adv-x="410" 
d="M10 0v125h155c30 0 45 16.667 45 50v525h130v-560c0 -93.333 -46.667 -140 -140 -140h-190z" />
    <glyph glyph-name="K" unicode="K" horiz-adv-x="605" 
d="M75 0v700h130v-315l240 315h160l-265 -345l285 -355h-160l-260 325v-325h-130z" />
    <glyph glyph-name="L" unicode="L" horiz-adv-x="555" 
d="M75 0v700h130v-575h330v-125h-460z" />
    <glyph glyph-name="M" unicode="M" horiz-adv-x="920" 
d="M75 0v700h210l165 -490h20l165 490h210v-700h-130v485h-20l-165 -485h-140l-165 485h-20v-485h-130z" />
    <glyph glyph-name="N" unicode="N" horiz-adv-x="730" 
d="M75 0v700h175l255 -485h20v485h130v-700h-175l-255 485h-20v-485h-130z" />
    <glyph glyph-name="O" unicode="O" horiz-adv-x="770" 
d="M385 115c61.333 0 111.666 21.5 150.999 64.5s59 99.833 59 170.5s-19.667 127.5 -59 170.5s-89.666 64.5 -150.999 64.5s-111.666 -21.5 -150.999 -64.5s-59 -99.833 -59 -170.5s19.667 -127.5 59 -170.5s89.666 -64.5 150.999 -64.5zM385 710
c96 0 176.667 -34 242 -102s98 -154 98 -258s-32.667 -190 -98 -258s-146 -102 -242 -102s-176.667 34 -242 102s-98 154 -98 258s32.667 190 98 258s146 102 242 102z" />
    <glyph glyph-name="P" unicode="P" horiz-adv-x="650" 
d="M75 0v700h315c66 0 119.167 -21.333 159.5 -64s60.5 -99.667 60.5 -171s-20.167 -128.333 -60.5 -171s-93.5 -64 -159.5 -64h-185v-230h-130zM205 355h180c28.667 0 51.667 9.66699 69 29s26 46.333 26 81s-8.66699 61.667 -26 81s-40.333 29 -69 29h-180v-220z" />
    <glyph glyph-name="Q" unicode="Q" horiz-adv-x="770" 
d="M585 -50l-62 68c-42 -18.667 -88 -28 -138 -28c-96 0 -176.667 34 -242 102s-98 154 -98 258s32.667 190 98 258s146 102 242 102s176.667 -34 242 -102s98 -154 98 -258c0 -110.667 -36 -200 -108 -268l118 -132h-150zM432 120l-107.002 120.001h150l58 -65
c41.333 43.333 62 101.666 62 174.999c0 70.667 -19.667 127.5 -59 170.5s-89.666 64.5 -150.999 64.5s-111.666 -21.5 -150.999 -64.5s-59 -99.833 -59 -170.5s19.667 -127.5 59 -170.5s89.666 -64.5 150.999 -64.5c18.667 0 34.334 1.66699 47.001 5z" />
    <glyph glyph-name="R" unicode="R" horiz-adv-x="665" 
d="M75 0v700h320c62.667 0 115 -21.833 157 -65.5s63 -100.167 63 -169.5c0 -65.333 -19.833 -118.5 -59.5 -159.5s-88.167 -62.833 -145.5 -65.5l225 -240h-165l-225 240h-40v-240h-130zM205 360l185 0.000976562c25.333 0 47.5 10.167 66.5 30.5s28.5 45.166 28.5 74.499
c0 32 -9.33301 58.333 -28 79s-41 31 -67 31h-185v-215z" />
    <glyph glyph-name="S" unicode="S" horiz-adv-x="635" 
d="M35 220l130 0.00292969c0 -31.333 14.167 -57.5 42.5 -78.5s65.833 -31.5 112.5 -31.5c47.333 0 82.5 8.16699 105.5 24.5s34.5 38.166 34.5 65.499c0 46.667 -38.333 76.667 -115 90l-120 20c-116.667 19.333 -175 82.666 -175 189.999c0 60 23.333 110 70 150
s110 60 190 60c86.667 0 153.334 -21.333 200.001 -64s70 -98 70 -166h-130c0 31.333 -12.333 57.5 -37 78.5s-59 31.5 -103 31.5c-43.333 0 -75.833 -8.16699 -97.5 -24.5s-32.5 -38.166 -32.5 -65.499c0 -21.333 7 -38.5 21 -51.5s38.667 -22.5 74 -28.5l110 -20
c71.333 -12.667 123.333 -34.834 156 -66.501s49 -76.167 49 -133.5c0 -62.667 -23.333 -113.334 -70 -152.001s-113.334 -58 -200.001 -58c-88 0 -157.5 21.5 -208.5 64.5s-76.5 98.167 -76.5 165.5z" />
    <glyph glyph-name="T" unicode="T" horiz-adv-x="590" 
d="M230 0v575h-210v125h550v-125h-210v-575h-130z" />
    <glyph glyph-name="U" unicode="U" horiz-adv-x="720" 
d="M70 285v415h130v-415c0 -49.333 15.333 -90 46 -122s68.667 -48 114 -48s83.333 16 114 48s46 72.667 46 122v415h130v-415c0 -90 -26.333 -161.667 -79 -215s-123 -80 -211 -80s-158.333 26.667 -211 80s-79 125 -79 215z" />
    <glyph glyph-name="V" unicode="V" horiz-adv-x="680" 
d="M245 0l-240 700h145l180 -540h20l180 540h145l-240 -700h-190z" />
    <glyph glyph-name="W" unicode="W" horiz-adv-x="980" 
d="M180 0l-175 700h145l120 -490h20l125 490h150l125 -490h20l120 490h145l-175 -700h-180l-120 480h-20l-120 -480h-180z" />
    <glyph glyph-name="X" unicode="X" horiz-adv-x="640" 
d="M-10 0l240 360l-225 340h155l150 -230h20l150 230h155l-225 -340l240 -360h-155l-165 250h-20l-165 -250h-155z" />
    <glyph glyph-name="Y" unicode="Y" horiz-adv-x="620" 
d="M245 0v240l-255 460h145l165 -300h20l165 300h145l-255 -460v-240h-130z" />
    <glyph glyph-name="Z" unicode="Z" horiz-adv-x="605" 
d="M35 0v115l355 460h-350v125h525v-115l-355 -460h360v-125h-535z" />
    <glyph glyph-name="bracketleft" unicode="[" horiz-adv-x="365" 
d="M80 -200v930h250v-115h-125v-700h125v-115h-250z" />
    <glyph glyph-name="backslash" unicode="\" horiz-adv-x="400" 
d="M275 -200l-275 930h125l275 -930h-125z" />
    <glyph glyph-name="bracketright" unicode="]" horiz-adv-x="365" 
d="M35 -200v115h125v700h-125v115h250v-930h-250z" />
    <glyph glyph-name="asciicircum" unicode="^" horiz-adv-x="445" 
d="M45 415l105 285h145l105 -285h-110l-65 175h-5l-65 -175h-110z" />
    <glyph glyph-name="underscore" unicode="_" horiz-adv-x="390" 
d="M-20 -215v115h430v-115h-430z" />
    <glyph glyph-name="grave" unicode="`" horiz-adv-x="285" 
d="M150 590l-120 145h130l95 -145h-105z" />
    <glyph glyph-name="a" unicode="a" horiz-adv-x="550" 
d="M385 0l-9.99902 49.999h-5c-8.66699 -10.667 -20.334 -20.667 -35.001 -30c-32 -20 -68.667 -30 -110 -30c-56 0 -100.833 15 -134.5 45s-50.5 66.667 -50.5 110c0 52 18 93.333 54 124s88 46 156 46h115v10c0 28.667 -8.16699 51.667 -24.5 69s-38.166 26 -65.499 26
c-26 0 -46.833 -6.66699 -62.5 -20s-24.834 -28.333 -27.501 -45h-125c6 46 27.333 85 64 117s87 48 151 48s115.833 -18.667 155.5 -56s59.5 -83.666 59.5 -138.999v-325h-105zM365.001 204.999v15h-105c-63.333 0 -95 -21.667 -95 -65c0 -20 7 -35.833 21 -47.5
s33.667 -17.5 59 -17.5c38 0 67.5 10.167 88.5 30.5s31.5 48.5 31.5 84.5z" />
    <glyph glyph-name="b" unicode="b" horiz-adv-x="620" 
d="M325 105c38.667 0 70 13.167 94 39.5s36 63.166 36 110.499s-12 84.166 -36 110.499s-55.333 39.5 -94 39.5s-70 -13.167 -94 -39.5s-36 -63.166 -36 -110.499s12 -84.166 36 -110.499s55.333 -39.5 94 -39.5zM70 0l-0.000976562 700h125v-245h5
c9.33301 12 21 22.667 35 32c32.667 22 69.334 33 110.001 33c66.667 0 122.5 -24.5 167.5 -73.5s67.5 -112.833 67.5 -191.5s-22.5 -142.5 -67.5 -191.5s-100.833 -73.5 -167.5 -73.5c-44 0 -82 10.667 -114 32c-14 9.33301 -26 20.333 -36 33h-5l-10 -55h-110z" />
    <glyph glyph-name="c" unicode="c" horiz-adv-x="575" 
d="M415 190l125 0.000976562c-4.66699 -22.667 -12.167 -44.667 -22.5 -66s-24.5 -42.5 -42.5 -63.5s-42.167 -38 -72.5 -51s-64.5 -19.5 -102.5 -19.5c-75.333 0 -137.5 24.833 -186.5 74.5s-73.5 113.167 -73.5 190.5s24.5 140.833 73.5 190.5s111.167 74.5 186.5 74.5
c38 0 72.167 -6.5 102.5 -19.5s54.5 -29.833 72.5 -50.5s32.167 -41.334 42.5 -62.001s17.833 -41.667 22.5 -63h-125c-20 53.333 -58.333 80 -115 80c-38 0 -70 -14 -96 -42s-39 -64 -39 -108s13 -80 39 -108s58 -42 96 -42c58.667 0 97 28.333 115 85z" />
    <glyph glyph-name="d" unicode="d" horiz-adv-x="620" 
d="M295 105c38.667 0 70 13.167 94 39.5s36 63.166 36 110.499s-12 84.166 -36 110.499s-55.333 39.5 -94 39.5s-70 -13.167 -94 -39.5s-36 -63.166 -36 -110.499s12 -84.166 36 -110.499s55.333 -39.5 94 -39.5zM440 0l-10 55h-5c-10 -12.667 -22 -23.667 -36 -33
c-32 -21.333 -70 -32 -114 -32c-66.667 0 -122.5 24.5 -167.5 73.5s-67.5 112.833 -67.5 191.5s22.5 142.5 67.5 191.5s100.833 73.5 167.5 73.5c40 0 76.667 -11 110 -33c14 -9.33301 25.667 -20 35 -32h5v245h125v-700h-110z" />
    <glyph glyph-name="e" unicode="e" horiz-adv-x="590" 
d="M165 300h260c-6 34 -19.833 61.667 -41.5 83s-49.5 32 -83.5 32c-36 0 -65.5 -10.5 -88.5 -31.5s-38.5 -48.833 -46.5 -83.5zM405 150l130.001 0.000976562c-3.33301 -12.667 -9.83301 -26.834 -19.5 -42.501s-23.334 -33 -41.001 -52s-41.834 -34.667 -72.501 -47
s-64.667 -18.5 -102 -18.5c-75.333 0 -137.5 24.833 -186.5 74.5s-73.5 113.167 -73.5 190.5s24.5 140.833 73.5 190.5s111.167 74.5 186.5 74.5c70 0 129.167 -24.5 177.5 -73.5s72.5 -109.5 72.5 -181.5c0 -6 -1 -18 -3 -36l-2 -14h-380c5.33301 -36 20.333 -65 45 -87
s54.667 -33 90 -33c26.667 0 49.334 5.83301 68.001 17.5s31 24.167 37 37.5z" />
    <glyph glyph-name="f" unicode="f" horiz-adv-x="370" 
d="M110 0v390h-85v120h85v75c0 38 11.333 68.333 34 91s53 34 91 34h110v-110h-75c-10 0 -18.333 -3.33301 -25 -10s-10 -15 -10 -25v-55h110v-120h-110v-390h-125z" />
    <glyph glyph-name="g" unicode="g" horiz-adv-x="605" 
d="M55 -25l129.998 -0.000976562c2.66699 -10.667 7 -21 13 -31s17.5 -19.833 34.5 -29.5s37.833 -14.5 62.5 -14.5c36 0 65 10.333 87 31s33 48.667 33 84v70h-5c-8 -9.33301 -19.333 -18.666 -34 -27.999c-27.333 -18 -62.666 -27 -105.999 -27
c-66 0 -120.833 22.833 -164.5 68.5s-65.5 104.5 -65.5 176.5s21.833 130.833 65.5 176.5s98.5 68.5 164.5 68.5c41.333 0 78 -10 110 -30c14.667 -9.33301 26.334 -19.333 35.001 -30h5l10 50h110v-496c0 -67.333 -22.167 -121.5 -66.5 -162.5s-103.833 -61.5 -178.5 -61.5
c-37.333 0 -71 5.33301 -101 16s-53.333 23.667 -70 39s-30.5 32 -41.5 50s-18.333 33.667 -22 47s-5.5 24.333 -5.5 33zM289.998 409.999c-35.333 0 -65 -12.667 -89 -38s-36 -57.666 -36 -96.999s12 -71.666 36 -96.999s53.667 -38 89 -38s65 12.667 89 38
s36 57.666 36 96.999s-12 71.666 -36 96.999s-53.667 38 -89 38z" />
    <glyph glyph-name="h" unicode="h" horiz-adv-x="600" 
d="M70 0v700h125v-240h5c8 10 19.333 20 34 30c30.667 20 66 30 106 30c58 0 105.833 -19.833 143.5 -59.5s56.5 -91.5 56.5 -155.5v-305h-125v295c0 32.667 -10.167 59.167 -30.5 79.5s-46.833 30.5 -79.5 30.5s-59.167 -10.167 -79.5 -30.5s-30.5 -46.833 -30.5 -79.5
v-295h-125z" />
    <glyph glyph-name="i" unicode="i" horiz-adv-x="255" 
d="M65 0v510h125v-510h-125zM60 590v120h135v-120h-135z" />
    <glyph glyph-name="j" unicode="j" horiz-adv-x="255" 
d="M-50 -200v115h80c23.333 0 35 11.667 35 35v560h125v-590c0 -36 -11.833 -65 -35.5 -87s-55.167 -33 -94.5 -33h-110zM60 590v120h135v-120h-135z" />
    <glyph glyph-name="k" unicode="k" horiz-adv-x="525" 
d="M70 0v700h125v-420l190 230h145l-210 -250l220 -260h-145l-200 240v-240h-125z" />
    <glyph glyph-name="l" unicode="l" horiz-adv-x="265" 
d="M70 0v700h125v-700h-125z" />
    <glyph glyph-name="m" unicode="m" horiz-adv-x="860" 
d="M65 0v510h115l10 -50h5c8 10.667 18 20.667 30 30c26.667 20 56.667 30 90 30c40 0 75.667 -11.667 107 -35c14 -12 25 -23.667 33 -35h5c8.66699 11.333 20.667 23 36 35c32.667 23.333 70.667 35 114 35c52.667 0 97.5 -19.833 134.5 -59.5s55.5 -88.167 55.5 -145.5
v-315h-125v305c0 32 -7.66699 56.667 -23 74s-36 26 -62 26c-28 0 -50.833 -9.5 -68.5 -28.5s-26.5 -42.833 -26.5 -71.5v-305h-125v305c0 32 -7.66699 56.667 -23 74s-36 26 -62 26c-28 0 -50.833 -9.5 -68.5 -28.5s-26.5 -42.833 -26.5 -71.5v-305h-125z" />
    <glyph glyph-name="n" unicode="n" horiz-adv-x="595" 
d="M65 0v510h115l10 -50h5c8 10 19.333 20 34 30c30.667 20 66 30 106 30c58 0 105.833 -19.833 143.5 -59.5s56.5 -91.5 56.5 -155.5v-305h-125v295c0 32.667 -10.167 59.167 -30.5 79.5s-46.833 30.5 -79.5 30.5s-59.167 -10.167 -79.5 -30.5s-30.5 -46.833 -30.5 -79.5
v-295h-125z" />
    <glyph glyph-name="o" unicode="o" horiz-adv-x="600" 
d="M300 105c38 0 70 14 96 42s39 64 39 108s-13 80 -39 108s-58 42 -96 42s-70 -14 -96 -42s-39 -64 -39 -108s13 -80 39 -108s58 -42 96 -42zM300 520c75.333 0 137.5 -24.833 186.5 -74.5s73.5 -113.167 73.5 -190.5s-24.5 -140.833 -73.5 -190.5
s-111.167 -74.5 -186.5 -74.5s-137.5 24.833 -186.5 74.5s-73.5 113.167 -73.5 190.5s24.5 140.833 73.5 190.5s111.167 74.5 186.5 74.5z" />
    <glyph glyph-name="p" unicode="p" horiz-adv-x="615" 
d="M450 255c0 47.333 -12 84.166 -36 110.499s-55.333 39.5 -94 39.5s-70 -13.167 -94 -39.5s-36 -63.166 -36 -110.499s12 -84.166 36 -110.499s55.333 -39.5 94 -39.5s70 13.167 94 39.5s36 63.166 36 110.499zM65 -200v710h115l10 -55h5c9.33301 12 21 22.667 35 32
c33.333 22 70 33 110 33c66.667 0 122.5 -24.5 167.5 -73.5s67.5 -112.833 67.5 -191.5s-22.5 -142.5 -67.5 -191.5s-100.833 -73.5 -167.5 -73.5c-44 0 -81.333 10 -112 30c-13.333 9.33301 -24.333 19.333 -33 30h-5v-250h-125z" />
    <glyph glyph-name="q" unicode="q" horiz-adv-x="615" 
d="M165 255c0 -47.333 12 -84.166 36 -110.499s55.333 -39.5 94 -39.5s70 13.167 94 39.5s36 63.166 36 110.499s-12 84.166 -36 110.499s-55.333 39.5 -94 39.5s-70 -13.167 -94 -39.5s-36 -63.166 -36 -110.499zM425 -200v250h-5
c-9.33301 -10.667 -20.333 -20.667 -33 -30c-30.667 -20 -68 -30 -112 -30c-66.667 0 -122.5 24.5 -167.5 73.5s-67.5 112.833 -67.5 191.5s22.5 142.5 67.5 191.5s100.833 73.5 167.5 73.5c40 0 76.667 -11 110 -33c14 -9.33301 25.667 -20 35 -32h5l10 55h115v-710h-125z
" />
    <glyph glyph-name="r" unicode="r" horiz-adv-x="385" 
d="M65 0l-0.000976562 510h105l10 -45h5c6 8 13.333 15.333 22 22c20.667 15.333 43.334 23 68.001 23h100v-120h-90c-63.333 0 -95 -31.667 -95 -95v-295h-125z" />
    <glyph glyph-name="s" unicode="s" horiz-adv-x="505" 
d="M30 155l120.001 0.000976562c0 -15.333 8.83301 -30 26.5 -44s42.167 -21 73.5 -21c63.333 0 95 18.333 95 55c0 16 -5 28.5 -15 37.5s-28.333 15.5 -55 19.5l-80 13c-110 18 -165 66.333 -165 145c0 44.667 19 82.5 57 113.5s90.667 46.5 158 46.5s120 -18.333 158 -55
s57 -73.334 57 -110.001h-120c0 16.667 -8.66699 31.667 -26 45s-40.333 20 -69 20s-50.834 -5.83301 -66.501 -17.5s-23.5 -25.834 -23.5 -42.501c0 -24.667 23.333 -40.334 70 -47.001l85 -13c106.667 -16 160 -67.667 160 -155c0 -44.667 -18.833 -81.667 -56.5 -111
s-92.167 -44 -163.5 -44c-36 0 -67.833 4.66699 -95.5 14s-49 20.5 -64 33.5s-27.333 27.833 -37 44.5s-16 30.834 -19 42.501s-4.5 21.834 -4.5 30.501z" />
    <glyph glyph-name="t" unicode="t" horiz-adv-x="390" 
d="M105 120v270h-80v120h80v145h125v-145h115v-120h-115v-245c0 -23.333 11.667 -35 35 -35h80v-110h-110c-42 0 -74.167 10.5 -96.5 31.5s-33.5 50.5 -33.5 88.5z" />
    <glyph glyph-name="u" unicode="u" horiz-adv-x="600" 
d="M65 205v305h125v-295c0 -32.667 10.167 -59.167 30.5 -79.5s46.833 -30.5 79.5 -30.5s59.167 10.167 79.5 30.5s30.5 46.833 30.5 79.5v295h125v-510h-115l-10 50h-5c-8 -10 -19.333 -20 -34 -30c-30.667 -20 -66 -30 -106 -30c-58 0 -105.833 19.833 -143.5 59.5
s-56.5 91.5 -56.5 155.5z" />
    <glyph glyph-name="v" unicode="v" horiz-adv-x="520" 
d="M175 0l-175 510h130l120 -355h20l120 355h130l-175 -510h-170z" />
    <glyph glyph-name="w" unicode="w" horiz-adv-x="790" 
d="M135 0l-130 510h130l85 -335h20l85 335h140l85 -335h20l85 335h130l-130 -510h-165l-85 330h-20l-85 -330h-165z" />
    <glyph glyph-name="x" unicode="x" horiz-adv-x="510" 
d="M-5 0l170 260l-165 250h140l105 -160h20l105 160h140l-165 -250l170 -260h-140l-110 170h-20l-110 -170h-140z" />
    <glyph glyph-name="y" unicode="y" 
d="M60 -200v115h100c20 0 32.667 8.33301 38 25l9 25l-207 545h130l130 -345h20l120 345h130l-215 -610c-12.667 -36.667 -29.5 -62.5 -50.5 -77.5s-54.167 -22.5 -99.5 -22.5h-105z" />
    <glyph glyph-name="z" unicode="z" horiz-adv-x="475" 
d="M30 0v110l250 285h-245v115h405v-110l-250 -285h255v-115h-415z" />
    <glyph glyph-name="braceleft" unicode="{" horiz-adv-x="375" 
d="M120 -55v194.998c0 20.667 -5.5 35.834 -16.5 45.501s-28.833 14.5 -53.5 14.5v130c24.667 0 42.5 4.83301 53.5 14.5s16.5 24.834 16.5 45.501v195c0 46 13 81.667 39 107s63 38 111 38h70v-115h-45c-33.333 0 -50 -16.667 -50 -50v-190c0 -40 -15 -68.333 -45 -85
c-13.333 -8 -28.333 -13 -45 -15v-20c15.333 -2.66699 30.333 -8 45 -16c30 -19.333 45 -47.333 45 -84v-190c0 -33.333 16.667 -50 50 -50h45v-115h-70c-48 0 -85 12.667 -111 38s-39 61 -39 107z" />
    <glyph glyph-name="bar" unicode="|" horiz-adv-x="365" 
d="M120 -200v930h125v-930h-125z" />
    <glyph glyph-name="braceright" unicode="}" horiz-adv-x="375" 
d="M35 -200v115.002h45c33.333 0 50 16.667 50 50v190c0 36.667 15 64.667 45 84c14.667 8 29.667 13.333 45 16v20c-17.333 2 -32.333 7 -45 15c-30 16.667 -45 45 -45 85v190c0 33.333 -16.667 50 -50 50h-45v115h70c48 0 85 -12.667 111 -38s39 -61 39 -107v-195
c0 -20.667 5.5 -35.834 16.5 -45.501s28.833 -14.5 53.5 -14.5v-130c-24.667 0 -42.5 -4.83301 -53.5 -14.5s-16.5 -24.834 -16.5 -45.501v-195c0 -46 -13 -81.667 -39 -107s-63 -38 -111 -38h-70z" />
    <glyph glyph-name="asciitilde" unicode="~" horiz-adv-x="590" 
d="M160 180h-120c0 65.333 14.333 115 43 149s67.667 51 117 51c21.333 0 41.166 -4.5 59.499 -13.5s32.666 -18.833 42.999 -29.5s22 -20.5 35 -29.5s25.5 -13.5 37.5 -13.5c36.667 0 55 25.333 55 76h120c0 -65.333 -14.333 -115 -43 -149s-67.667 -51 -117 -51
c-21.333 0 -41.166 4.5 -59.499 13.5s-32.666 18.667 -42.999 29s-22 20 -35 29s-25.5 13.5 -37.5 13.5c-36.667 0 -55 -25 -55 -75z" />
    <glyph glyph-name="nbspace" unicode="&#xa0;" horiz-adv-x="250" 
 />
    <glyph glyph-name="exclamdown" unicode="&#xa1;" horiz-adv-x="290" 
d="M80 -190v275l20 220h90l20 -220v-275h-130zM80 370v140h130v-140h-130z" />
    <glyph glyph-name="cent" unicode="&#xa2;" horiz-adv-x="575" 
d="M235 -110l0.00195312 107c-58.667 13.333 -105.834 43.333 -141.501 90s-53.5 102.667 -53.5 168c0 64.667 18 120.5 54 167.5s83 77.167 141 90.5v107h125v-107c38 -8.66699 71 -25.667 99 -51s47.667 -49.5 59 -72.5s18.666 -44.5 21.999 -64.5h-125
c-7.33301 20 -20.666 38.333 -39.999 55s-44.333 25 -75 25c-38 0 -70 -14 -96 -42s-39 -64 -39 -108s13 -80 39 -108s58 -42 96 -42c58.667 0 97 28.333 115 85h125c-4.66699 -26 -13.334 -51.333 -26.001 -76s-32.5 -48.5 -59.5 -71.5s-58.5 -38.167 -94.5 -45.5v-107
h-125z" />
    <glyph glyph-name="sterling" unicode="&#xa3;" horiz-adv-x="620" 
d="M35 0l0.000976562 125.001h35c33.333 0 50 16.667 50 50v115h-85v100h85v110c0 63.333 20.167 114.166 60.5 152.499s95.166 57.5 164.499 57.5c68.667 0 124.167 -20 166.5 -60s63.5 -91.667 63.5 -155h-130c0 26 -9.33301 47.5 -28 64.5s-42.667 25.5 -72 25.5
c-30 0 -53.333 -8 -70 -24s-25 -38 -25 -66v-105h189v-100h-189v-115c0 -16.667 -5 -30 -15 -40c-4.66699 -4.66699 -9.66699 -8 -15 -10h375v-125h-560z" />
    <glyph glyph-name="currency" unicode="&#xa4;" horiz-adv-x="570" 
d="M285 240c28 0 52.5 10.833 73.5 32.5s31.5 47.5 31.5 77.5c0 29.333 -10.5 55 -31.5 77s-45.5 33 -73.5 33s-52.5 -11 -73.5 -33s-31.5 -47.667 -31.5 -77c0 -30 10.5 -55.833 31.5 -77.5s45.5 -32.5 73.5 -32.5zM70 194l55 61c-16.667 22.667 -25 54.334 -25 95.001
s8.33301 72.334 25 95.001l-55 61l60 54l55 -55c27.333 20 60.666 30 99.999 30s72.666 -10 99.999 -30l55 55l60 -54l-55 -61c16.667 -22.667 25 -54.334 25 -95.001s-8.33301 -72.334 -25 -95.001l55 -61l-60 -54l-55 55c-27.333 -20 -60.666 -30 -99.999 -30
s-72.666 10 -99.999 30l-55 -55z" />
    <glyph glyph-name="yen" unicode="&#xa5;" horiz-adv-x="630" 
d="M80 120v95h170v70h-170v95h94l-174 320h145l160 -300h20l160 300h145l-174 -320h94v-95h-170v-70h170v-95h-170v-120h-130v120h-170z" />
    <glyph glyph-name="brokenbar" unicode="&#xa6;" horiz-adv-x="365" 
d="M120 350v380h125v-380h-125zM120 -200v380h125v-380h-125z" />
    <glyph glyph-name="section" unicode="&#xa7;" horiz-adv-x="650" 
d="M75 45h130c0 -30.667 11.167 -55.834 33.5 -75.501s52.833 -29.5 91.5 -29.5c38 0 66.667 7.16699 86 21.5s29 32.166 29 53.499c0 20.667 -7.33301 37.667 -22 51s-39 23.666 -73 30.999l-105 23c-65.333 14 -112.5 34.667 -141.5 62s-43.5 65 -43.5 113
c0 32.667 10.667 64.334 32 95.001c8 11.333 19 23 33 35c-8.66699 6.66699 -16.334 15.334 -23.001 26.001c-14.667 22.667 -22 49 -22 79c0 50 21.333 92.5 64 127.5s101.334 52.5 176.001 52.5c78 0 140 -20 186 -60s69 -90 69 -150h-130
c0 28.667 -11.167 52.5 -33.5 71.5s-52.833 28.5 -91.5 28.5c-36 0 -63.333 -7.16699 -82 -21.5s-28 -32.166 -28 -53.499c0 -20 6.66699 -34.833 20 -44.5s38.333 -18.167 75 -25.5l95 -20c70 -14 119.167 -35.333 147.5 -64s42.5 -67.334 42.5 -116.001
c0 -35.333 -10 -68.333 -30 -99c-9.33301 -13.333 -19.333 -25.333 -30 -36c6 -5.33301 13.333 -14.666 22 -27.999c15.333 -26.667 23 -55.667 23 -87c0 -50.667 -21.167 -92.5 -63.5 -125.5s-102.833 -49.5 -181.5 -49.5c-78 0 -140 20.333 -186 61s-69 92 -69 154z
M282 222l78.001 -17c19.333 -4 36.666 -8.66699 51.999 -14l18 -6c5.33301 4.66699 10.333 10.667 15 18c10 17.333 15 34.666 15 51.999c0 38 -28.333 63 -85 75l-90 20l-45 11l-15 4c-7.33301 -4.66699 -13.333 -10.667 -18 -18c-11.333 -15.333 -17 -32.666 -17 -51.999
c0 -36 30.667 -60.333 92 -73z" />
    <glyph glyph-name="dieresis" unicode="&#xa8;" horiz-adv-x="360" 
d="M215 600v115h115v-115h-115zM30 600v115h115v-115h-115z" />
    <glyph glyph-name="copyright" unicode="&#xa9;" horiz-adv-x="840" 
d="M510 305h85.001c-2 -10 -6 -21.833 -12 -35.5s-15.167 -29.334 -27.5 -47.001s-30 -32.5 -53 -44.5s-48.833 -18 -77.5 -18c-52.667 0 -96.667 18 -132 54s-53 81.333 -53 136s17.667 100 53 136s79.333 54 132 54c29.333 0 55.333 -5.66699 78 -17
s40.167 -25.5 52.5 -42.5s21.5 -32.167 27.5 -45.5s10 -25 12 -35h-85c-2.66699 7.33301 -6.33398 14.833 -11.001 22.5s-13.667 15.834 -27 24.501s-29 13 -47 13c-28.667 0 -51.667 -9.66699 -69 -29s-26 -46.333 -26 -81s8.66699 -61.667 26 -81s40.333 -29 69 -29
c26 0 45.667 7 59 21s22 28.667 26 44zM420.001 625c-80 0 -145.833 -25.833 -197.5 -77.5s-77.5 -117.5 -77.5 -197.5s25.833 -145.833 77.5 -197.5s117.5 -77.5 197.5 -77.5s145.833 25.833 197.5 77.5s77.5 117.5 77.5 197.5s-25.833 145.833 -77.5 197.5
s-117.5 77.5 -197.5 77.5zM420.001 710c104.667 0 191.667 -34.333 261 -103s104 -154.334 104 -257.001s-34.667 -188.334 -104 -257.001s-156.333 -103 -261 -103c-105.333 0 -192.5 34.333 -261.5 103s-103.5 154.334 -103.5 257.001s34.5 188.334 103.5 257.001
s156.167 103 261.5 103z" />
    <glyph glyph-name="ordfeminine" unicode="&#xaa;" horiz-adv-x="370" 
d="M250 380l-10.002 29.999h-5c-23.333 -23.333 -51.666 -35 -84.999 -35c-37.333 0 -66.666 9.83301 -87.999 29.5s-32 44.834 -32 75.501c0 29.333 11.333 53.333 34 72s54.667 28 96 28h80v10c0 15.333 -4.83301 27.5 -14.5 36.5s-23.167 13.5 -40.5 13.5
c-25.333 0 -42 -11.667 -50 -35h-90c6 32 20.5 57.5 43.5 76.5s54.5 28.5 94.5 28.5c45.333 0 80.333 -11.167 105 -33.5s37 -52.833 37 -91.5v-205h-75zM239.998 514.999v5h-70c-33.333 0 -50 -11.667 -50 -35c0 -12.667 4.5 -22.5 13.5 -29.5s21.167 -10.5 36.5 -10.5
c46.667 0 70 23.333 70 70z" />
    <glyph glyph-name="guillemotleft" unicode="&#xab;" horiz-adv-x="585" 
d="M415 50l-145 205l145 205h130l-145 -205l145 -205h-130zM185 50l-145 205l145 205h130l-145 -205l145 -205h-130z" />
    <glyph glyph-name="logicalnot" unicode="&#xac;" horiz-adv-x="550" 
d="M70 275v110h410v-240h-124v130h-286z" />
    <glyph glyph-name="uni00AD" unicode="&#xad;" horiz-adv-x="430" 
d="M45 230v115h340v-115h-340z" />
    <glyph glyph-name="registered" unicode="&#xae;" horiz-adv-x="840" 
d="M285 170v360h160c37.333 0 68.333 -12 93 -36s37 -53.667 37 -89c0 -33.333 -10.5 -59.833 -31.5 -79.5s-43.167 -32.167 -66.5 -37.5l108 -118h-100l-105 115h-10v-115h-85zM370 355h70c13.333 0 25 4.66699 35 14s15 21.333 15 36s-5 26.667 -15 36s-21.667 14 -35 14
h-70v-100zM420 75c80 0 145.833 25.833 197.5 77.5s77.5 117.5 77.5 197.5s-25.833 145.833 -77.5 197.5s-117.5 77.5 -197.5 77.5s-145.833 -25.833 -197.5 -77.5s-77.5 -117.5 -77.5 -197.5s25.833 -145.833 77.5 -197.5s117.5 -77.5 197.5 -77.5zM55 350
c0 102.667 34.5 188.334 103.5 257.001s156.167 103 261.5 103c104.667 0 191.667 -34.333 261 -103s104 -154.334 104 -257.001s-34.667 -188.334 -104 -257.001s-156.333 -103 -261 -103c-105.333 0 -192.5 34.333 -261.5 103s-103.5 154.334 -103.5 257.001z" />
    <glyph glyph-name="overscore" unicode="&#xaf;" horiz-adv-x="370" 
d="M30 615v95h310v-95h-310z" />
    <glyph glyph-name="degree" unicode="&#xb0;" horiz-adv-x="390" 
d="M135 570c0 -17.333 5.66699 -31.666 17 -42.999s25.666 -17 42.999 -17s31.666 5.66699 42.999 17s17 25.666 17 42.999s-5.66699 31.666 -17 42.999s-25.666 17 -42.999 17s-31.666 -5.66699 -42.999 -17s-17 -25.666 -17 -42.999zM55 570c0 38 13.5 70.833 40.5 98.5
s60.167 41.5 99.5 41.5s72.5 -13.833 99.5 -41.5s40.5 -60.5 40.5 -98.5s-13.5 -70.833 -40.5 -98.5s-60.167 -41.5 -99.5 -41.5s-72.5 13.833 -99.5 41.5s-40.5 60.5 -40.5 98.5z" />
    <glyph glyph-name="plusminus" unicode="&#xb1;" horiz-adv-x="550" 
d="M220 170v175h-170v110h170v175h110v-175h170v-110h-170v-175h-110zM50 0v110h450v-110h-450z" />
    <glyph glyph-name="uni00B2" unicode="&#xb2;" horiz-adv-x="340" 
d="M45 440v65l140 135c8 8 13.667 14 17 18s6.33301 9.16699 9 15.5s4 13.5 4 21.5c0 26.667 -15 40 -45 40c-15.333 0 -27.5 -4.5 -36.5 -13.5s-13.5 -21.167 -13.5 -36.5h-80c0 36 11.833 65 35.5 87s55.167 33 94.5 33c36.667 0 66.667 -10.833 90 -32.5
s35 -47.5 35 -77.5c0 -21.333 -4.16699 -39.5 -12.5 -54.5s-22.5 -31.833 -42.5 -50.5l-80 -75v-5h140v-70h-255z" />
    <glyph glyph-name="uni00B3" unicode="&#xb3;" horiz-adv-x="340" 
d="M35 550l80.001 0.000976562c0 -12 4.5 -22.5 13.5 -31.5s21.167 -13.5 36.5 -13.5s27.5 3.5 36.5 10.5s13.5 16.833 13.5 29.5c0 16 -4.16699 27.5 -12.5 34.5s-22.5 10.5 -42.5 10.5h-30v65h30c15.333 0 27.5 3.66699 36.5 11s13.5 17 13.5 29
c0 11.333 -4.16699 20.833 -12.5 28.5s-19.166 11.5 -32.499 11.5c-12.667 0 -23.334 -4 -32.001 -12s-13 -17.333 -13 -28h-80c0 30.667 11.5 56.667 34.5 78s53.167 32 90.5 32c38 0 68.333 -9.5 91 -28.5s34 -44.5 34 -76.5c0 -20 -4.83301 -35.833 -14.5 -47.5
s-19.834 -19.167 -30.501 -22.5v-5c11.333 -3.33301 22.5 -11.833 33.5 -25.5s16.5 -31.834 16.5 -54.501c0 -30.667 -12 -56.667 -36 -78s-55.333 -32 -94 -32c-40.667 0 -72.5 10.5 -95.5 31.5s-34.5 48.833 -34.5 83.5z" />
    <glyph glyph-name="acute" unicode="&#xb4;" horiz-adv-x="285" 
d="M30 590l95 145h130l-120 -145h-105z" />
    <glyph glyph-name="uni00B5" unicode="&#xb5;" horiz-adv-x="600" 
d="M65 -200v710h125v-295c0 -32.667 10.167 -59.167 30.5 -79.5s46.833 -30.5 79.5 -30.5s59.167 10.167 79.5 30.5s30.5 46.833 30.5 79.5v295h125v-510h-115l-10 50h-5c-6 -10 -15.333 -20 -28 -30c-25.333 -20 -56 -30 -92 -30c-24 0 -46.667 5 -68 15
c-10 4 -19 9 -27 15v-220h-125z" />
    <glyph glyph-name="paragraph" unicode="&#xb6;" horiz-adv-x="600" 
d="M220 -100v420c-50.667 0 -92.5 17.5 -125.5 52.5s-49.5 80.833 -49.5 137.5s16.5 102.5 49.5 137.5s74.833 52.5 125.5 52.5h305v-800h-115v695h-75v-695h-115z" />
    <glyph glyph-name="middot" unicode="&#xb7;" horiz-adv-x="250" 
d="M55 200v140h140v-140h-140z" />
    <glyph glyph-name="cedilla" unicode="&#xb8;" horiz-adv-x="235" 
d="M30 -225l-0.000976562 74.998h45c26.667 0 40 10 40 30s-13.333 30 -40 30h-30v40l20 45h85l-20 -45c8.66699 -1.33301 17.834 -4.16602 27.501 -8.49902s20 -13.333 31 -27s16.5 -30.167 16.5 -49.5c0 -27.333 -10.167 -49.166 -30.5 -65.499s-48.5 -24.5 -84.5 -24.5
h-60z" />
    <glyph glyph-name="uni00B9" unicode="&#xb9;" horiz-adv-x="275" 
d="M120 440v240h-85v75h60c16.667 0 25 8.33301 25 25v20h80v-360h-80z" />
    <glyph glyph-name="ordmasculine" unicode="&#xba;" horiz-adv-x="410" 
d="M130 540c0 -27.333 7.33301 -49.166 22 -65.499s32.334 -24.5 53.001 -24.5s38.334 8.16699 53.001 24.5s22 38.166 22 65.499s-7.33301 49.166 -22 65.499s-32.334 24.5 -53.001 24.5s-38.334 -8.16699 -53.001 -24.5s-22 -38.166 -22 -65.499zM45 540
c0 49.333 15.333 90 46 122s68.667 48 114 48s83.333 -16 114 -48s46 -72.667 46 -122s-15.333 -90 -46 -122s-68.667 -48 -114 -48s-83.333 16 -114 48s-46 72.667 -46 122z" />
    <glyph glyph-name="guillemotright" unicode="&#xbb;" horiz-adv-x="585" 
d="M40 50l145 205l-145 205h130l145 -205l-145 -205h-130zM270 50l145 205l-145 205h130l145 -205l-145 -205h-130z" />
    <glyph glyph-name="onequarter" unicode="&#xbc;" horiz-adv-x="690" 
d="M70 0l435 700h90l-435 -700h-90zM125 340v240h-85v75h60c16.667 0 25 8.33301 25 25v20h80v-360h-80zM360 70v65l135 225h115v-220h40v-70h-40v-70h-80v70h-170zM455 140h75v115h-10l-65 -110v-5z" />
    <glyph glyph-name="onehalf" unicode="&#xbd;" horiz-adv-x="715" 
d="M70 0l435 700h90l-435 -700h-90zM125 340v240h-85v75h60c16.667 0 25 8.33301 25 25v20h80v-360h-80zM410 0v65l140 135c12 11.333 20 20.5 24 27.5s6 16.167 6 27.5c0 26.667 -15 40 -45 40c-15.333 0 -27.5 -4.5 -36.5 -13.5s-13.5 -21.167 -13.5 -36.5h-80
c0 36 11.833 65 35.5 87s55.167 33 94.5 33c36.667 0 66.667 -10.833 90 -32.5s35 -47.5 35 -77.5c0 -21.333 -4.16699 -39.5 -12.5 -54.5s-22.5 -31.833 -42.5 -50.5l-80 -75v-5h140v-70h-255z" />
    <glyph glyph-name="threequarters" unicode="&#xbe;" horiz-adv-x="740" 
d="M120 0l435 700h90l-435 -700h-90zM35 450l80.001 0.000976562c0 -12 4.5 -22.5 13.5 -31.5s21.167 -13.5 36.5 -13.5s27.5 3.5 36.5 10.5s13.5 16.833 13.5 29.5c0 16 -4.16699 27.5 -12.5 34.5s-22.5 10.5 -42.5 10.5h-30v65h30c15.333 0 27.5 3.66699 36.5 11
s13.5 17 13.5 29c0 11.333 -4.16699 20.833 -12.5 28.5s-19.166 11.5 -32.499 11.5c-12.667 0 -23.334 -4 -32.001 -12s-13 -17.333 -13 -28h-80c0 30.667 11.5 56.667 34.5 78s53.167 32 90.5 32c38 0 68.333 -9.5 91 -28.5s34 -44.5 34 -76.5
c0 -20 -4.83301 -35.833 -14.5 -47.5s-19.834 -19.167 -30.501 -22.5v-5c11.333 -3.33301 22.5 -11.833 33.5 -25.5s16.5 -31.834 16.5 -54.501c0 -30.667 -12 -56.667 -36 -78s-55.333 -32 -94 -32c-40.667 0 -72.5 10.5 -95.5 31.5s-34.5 48.833 -34.5 83.5z
M410.001 70.001v65l135 225h115v-220h40v-70h-40v-70h-80v70h-170zM505.001 140.001h75v115h-10l-65 -110v-5z" />
    <glyph glyph-name="questiondown" unicode="&#xbf;" 
d="M370 10l135.001 -0.000976562c0 -61.333 -21.5 -111.666 -64.5 -150.999s-99.833 -59 -170.5 -59c-70 0 -126.667 19.333 -170 58s-65 86 -65 142c0 43.333 8.66699 77.5 26 102.5s43.666 45.833 78.999 62.5c50 24.667 75 58 75 100v40h125v-40
c0 -44 -7.83301 -78.833 -23.5 -104.5s-41.167 -47.5 -76.5 -65.5c-23.333 -12 -40.833 -24 -52.5 -36s-17.5 -28.333 -17.5 -49c0 -26 9.5 -47.5 28.5 -64.5s44.5 -25.5 76.5 -25.5c29.333 0 52.5 8.5 69.5 25.5s25.5 38.5 25.5 64.5zM210.001 369.999v140h135v-140h-135z
" />
    <glyph glyph-name="Agrave" unicode="&#xc0;" horiz-adv-x="690" 
d="M0 0l250 700h190l250 -700h-145l-53 150h-294l-53 -150h-145zM240 270h210l-95 280h-20zM295 770l-120 145h130l95 -145h-105z" />
    <glyph glyph-name="Aacute" unicode="&#xc1;" horiz-adv-x="690" 
d="M0 0l250 700h190l250 -700h-145l-53 150h-294l-53 -150h-145zM240 270h210l-95 280h-20zM295 770l95 145h130l-120 -145h-105z" />
    <glyph glyph-name="Acircumflex" unicode="&#xc2;" horiz-adv-x="690" 
d="M0 0l250 700h190l250 -700h-145l-53 150h-294l-53 -150h-145zM240 270h210l-95 280h-20zM170 770l120 145h110l120 -145h-115l-60 75l-60 -75h-115z" />
    <glyph glyph-name="Atilde" unicode="&#xc3;" horiz-adv-x="690" 
d="M0 0l250 700h190l250 -700h-145l-53 150h-294l-53 -150h-145zM240 270h210l-95 280h-20zM265 780h-85c0 39.333 10 70 30 92s46.667 33 80 33c18 0 37.333 -6.66699 58 -20s36.334 -20 47.001 -20c10 0 18.333 3.66699 25 11s10 17 10 29h85c0 -39.333 -10 -70 -30 -92
s-46.667 -33 -80 -33c-18 0 -37.333 6.66699 -58 20s-36.334 20 -47.001 20c-10 0 -18.333 -3.66699 -25 -11s-10 -17 -10 -29z" />
    <glyph glyph-name="Adieresis" unicode="&#xc4;" horiz-adv-x="690" 
d="M0 0l250 700h190l250 -700h-145l-53 150h-294l-53 -150h-145zM240 270h210l-95 280h-20zM380 785v115h115v-115h-115zM195 785v115h115v-115h-115z" />
    <glyph glyph-name="Aring" unicode="&#xc5;" horiz-adv-x="690" 
d="M0 0l250 700h190l250 -700h-145l-53 150h-294l-53 -150h-145zM240 270h210l-95 280h-20zM345 810c10.667 0 20 3.66699 28 11s12 17 12 29s-4 21.667 -12 29s-17.333 11 -28 11s-20 -3.66699 -28 -11s-12 -17 -12 -29s4 -21.667 12 -29s17.333 -11 28 -11zM345 950
c29.333 0 53.333 -9.66699 72 -29s28 -43 28 -71s-9.33301 -51.667 -28 -71s-42.667 -29 -72 -29s-53.333 9.66699 -72 29s-28 43 -28 71s9.33301 51.667 28 71s42.667 29 72 29z" />
    <glyph glyph-name="AE" unicode="&#xc6;" horiz-adv-x="950" 
d="M-25 0l305 700h615v-120h-340v-170h320v-120h-320v-170h340v-120h-470v155h-238l-67 -155h-145zM235 270h190v310h-55z" />
    <glyph glyph-name="Ccedilla" unicode="&#xc7;" horiz-adv-x="735" 
d="M300 -225l-0.00390625 74.9951h45c26.667 0 40 10 40 30s-13.333 30 -40 30h-30v40l19 44c-84 12 -153.167 50.833 -207.5 116.5s-81.5 145.5 -81.5 239.5c0 104 32.667 190 98 258s146 102 242 102c39.333 0 75.833 -5.83301 109.5 -17.5s61.834 -26.5 84.501 -44.5
s42.667 -38.833 60 -62.5s30.666 -46.167 39.999 -67.5s16.333 -42.333 21 -63h-135c-13.333 34.667 -34.833 65 -64.5 91s-68.167 39 -115.5 39c-61.333 0 -111.666 -21.5 -150.999 -64.5s-59 -99.833 -59 -170.5s19.667 -127.5 59 -170.5s89.666 -64.5 150.999 -64.5
c48 0 86.833 13.333 116.5 40s50.834 58.334 63.501 95.001h135c-2.66699 -17.333 -7.66699 -35.666 -15 -54.999s-18.666 -40.666 -33.999 -63.999s-33 -44.5 -53 -63.5s-45.667 -35.5 -77 -49.5s-65.666 -22.667 -102.999 -26l-18 -42
c8.66699 -1.33301 17.834 -4.16602 27.501 -8.49902s20 -13.333 31 -27s16.5 -30.167 16.5 -49.5c0 -27.333 -10.167 -49.166 -30.5 -65.499s-48.5 -24.5 -84.5 -24.5h-60z" />
    <glyph glyph-name="Egrave" unicode="&#xc8;" horiz-adv-x="600" 
d="M75 0v700h470v-120h-340v-170h320v-120h-320v-170h340v-120h-470zM260 770l-120 145h130l95 -145h-105z" />
    <glyph glyph-name="Eacute" unicode="&#xc9;" horiz-adv-x="600" 
d="M75 0v700h470v-120h-340v-170h320v-120h-320v-170h340v-120h-470zM260 770l95 145h130l-120 -145h-105z" />
    <glyph glyph-name="Ecircumflex" unicode="&#xca;" horiz-adv-x="600" 
d="M75 0v700h470v-120h-340v-170h320v-120h-320v-170h340v-120h-470zM135 770l120 145h110l120 -145h-115l-60 75l-60 -75h-115z" />
    <glyph glyph-name="Edieresis" unicode="&#xcb;" horiz-adv-x="600" 
d="M75 0v700h470v-120h-340v-170h320v-120h-320v-170h340v-120h-470zM345 785v115h115v-115h-115zM160 785v115h115v-115h-115z" />
    <glyph glyph-name="Igrave" unicode="&#xcc;" horiz-adv-x="280" 
d="M75 0v700h130v-700h-130zM90 770l-120 145h130l95 -145h-105z" />
    <glyph glyph-name="Iacute" unicode="&#xcd;" horiz-adv-x="280" 
d="M75 0v700h130v-700h-130zM90 770l95 145h130l-120 -145h-105z" />
    <glyph glyph-name="Icircumflex" unicode="&#xce;" horiz-adv-x="280" 
d="M75 0v700h130v-700h-130zM-35 770l120 145h110l120 -145h-115l-60 75l-60 -75h-115z" />
    <glyph glyph-name="Idieresis" unicode="&#xcf;" horiz-adv-x="280" 
d="M75 0v700h130v-700h-130zM175 785v115h115v-115h-115zM-10 785v115h115v-115h-115z" />
    <glyph glyph-name="Eth" unicode="&#xd0;" horiz-adv-x="740" 
d="M100 0v295h-90v110h90v295h255c95.333 0 175.833 -33.5 241.5 -100.5s98.5 -150.167 98.5 -249.5s-32.833 -182.5 -98.5 -249.5s-146.167 -100.5 -241.5 -100.5h-255zM230 125l125 0.00195312c60.667 0 110.834 20.667 150.501 62s59.5 95.666 59.5 162.999
s-19.833 121.666 -59.5 162.999s-89.834 62 -150.501 62h-125v-170h155v-110h-155v-170z" />
    <glyph glyph-name="Ntilde" unicode="&#xd1;" horiz-adv-x="730" 
d="M75 0v700h175l255 -485h20v485h130v-700h-175l-255 485h-20v-485h-130zM285 780h-85c0 39.333 10 70 30 92s46.667 33 80 33c18 0 37.333 -6.66699 58 -20s36.334 -20 47.001 -20c10 0 18.333 3.66699 25 11s10 17 10 29h85c0 -39.333 -10 -70 -30 -92
s-46.667 -33 -80 -33c-18 0 -37.333 6.66699 -58 20s-36.334 20 -47.001 20c-10 0 -18.333 -3.66699 -25 -11s-10 -17 -10 -29z" />
    <glyph glyph-name="Ograve" unicode="&#xd2;" horiz-adv-x="770" 
d="M385 115c61.333 0 111.666 21.5 150.999 64.5s59 99.833 59 170.5s-19.667 127.5 -59 170.5s-89.666 64.5 -150.999 64.5s-111.666 -21.5 -150.999 -64.5s-59 -99.833 -59 -170.5s19.667 -127.5 59 -170.5s89.666 -64.5 150.999 -64.5zM385 710
c96 0 176.667 -34 242 -102s98 -154 98 -258s-32.667 -190 -98 -258s-146 -102 -242 -102s-176.667 34 -242 102s-98 154 -98 258s32.667 190 98 258s146 102 242 102zM335 770l-120 145h130l95 -145h-105z" />
    <glyph glyph-name="Oacute" unicode="&#xd3;" horiz-adv-x="770" 
d="M385 115c61.333 0 111.666 21.5 150.999 64.5s59 99.833 59 170.5s-19.667 127.5 -59 170.5s-89.666 64.5 -150.999 64.5s-111.666 -21.5 -150.999 -64.5s-59 -99.833 -59 -170.5s19.667 -127.5 59 -170.5s89.666 -64.5 150.999 -64.5zM385 710
c96 0 176.667 -34 242 -102s98 -154 98 -258s-32.667 -190 -98 -258s-146 -102 -242 -102s-176.667 34 -242 102s-98 154 -98 258s32.667 190 98 258s146 102 242 102zM335 770l95 145h130l-120 -145h-105z" />
    <glyph glyph-name="Ocircumflex" unicode="&#xd4;" horiz-adv-x="770" 
d="M385 115c61.333 0 111.666 21.5 150.999 64.5s59 99.833 59 170.5s-19.667 127.5 -59 170.5s-89.666 64.5 -150.999 64.5s-111.666 -21.5 -150.999 -64.5s-59 -99.833 -59 -170.5s19.667 -127.5 59 -170.5s89.666 -64.5 150.999 -64.5zM385 710
c96 0 176.667 -34 242 -102s98 -154 98 -258s-32.667 -190 -98 -258s-146 -102 -242 -102s-176.667 34 -242 102s-98 154 -98 258s32.667 190 98 258s146 102 242 102zM210 770l120 145h110l120 -145h-115l-60 75l-60 -75h-115z" />
    <glyph glyph-name="Otilde" unicode="&#xd5;" horiz-adv-x="770" 
d="M385 115c61.333 0 111.666 21.5 150.999 64.5s59 99.833 59 170.5s-19.667 127.5 -59 170.5s-89.666 64.5 -150.999 64.5s-111.666 -21.5 -150.999 -64.5s-59 -99.833 -59 -170.5s19.667 -127.5 59 -170.5s89.666 -64.5 150.999 -64.5zM385 710
c96 0 176.667 -34 242 -102s98 -154 98 -258s-32.667 -190 -98 -258s-146 -102 -242 -102s-176.667 34 -242 102s-98 154 -98 258s32.667 190 98 258s146 102 242 102zM305 780h-85c0 39.333 10 70 30 92s46.667 33 80 33c18 0 37.333 -6.66699 58 -20
s36.334 -20 47.001 -20c10 0 18.333 3.66699 25 11s10 17 10 29h85c0 -39.333 -10 -70 -30 -92s-46.667 -33 -80 -33c-18 0 -37.333 6.66699 -58 20s-36.334 20 -47.001 20c-10 0 -18.333 -3.66699 -25 -11s-10 -17 -10 -29z" />
    <glyph glyph-name="Odieresis" unicode="&#xd6;" horiz-adv-x="770" 
d="M385 115c61.333 0 111.666 21.5 150.999 64.5s59 99.833 59 170.5s-19.667 127.5 -59 170.5s-89.666 64.5 -150.999 64.5s-111.666 -21.5 -150.999 -64.5s-59 -99.833 -59 -170.5s19.667 -127.5 59 -170.5s89.666 -64.5 150.999 -64.5zM385 710
c96 0 176.667 -34 242 -102s98 -154 98 -258s-32.667 -190 -98 -258s-146 -102 -242 -102s-176.667 34 -242 102s-98 154 -98 258s32.667 190 98 258s146 102 242 102zM420 785v115h115v-115h-115zM235 785v115h115v-115h-115z" />
    <glyph glyph-name="multiply" unicode="&#xd7;" horiz-adv-x="550" 
d="M60 165l130 130l-130 130l85 85l130 -130l130 130l85 -85l-130 -130l130 -130l-85 -85l-130 130l-130 -130z" />
    <glyph glyph-name="Oslash" unicode="&#xd8;" horiz-adv-x="770" 
d="M115 -35l54 103c-82.667 69.333 -124 163.333 -124 282c0 104 32.667 190 98 258s146 102 242 102c38.667 0 76 -6.33301 112 -19l23 44h130l-53 -100c85.333 -69.333 128 -164.333 128 -285c0 -104 -32.667 -190 -98 -258s-146 -102 -242 -102
c-37.333 0 -76 6.66699 -116 20l-24 -45h-130zM537 520l-208.999 -398c16 -4.66699 35 -7 57 -7c61.333 0 111.666 21.5 150.999 64.5s59 99.833 59 170.5c0 69.333 -19.333 126 -58 170zM230.001 184l207.999 395c-17.333 4 -35 6 -53 6
c-61.333 0 -111.666 -21.5 -150.999 -64.5s-59 -99.833 -59 -170.5c0 -68.667 18.333 -124 55 -166z" />
    <glyph glyph-name="Ugrave" unicode="&#xd9;" horiz-adv-x="720" 
d="M70 285v415h130v-415c0 -49.333 15.333 -90 46 -122s68.667 -48 114 -48s83.333 16 114 48s46 72.667 46 122v415h130v-415c0 -90 -26.333 -161.667 -79 -215s-123 -80 -211 -80s-158.333 26.667 -211 80s-79 125 -79 215zM305 770l-120 145h130l95 -145h-105z" />
    <glyph glyph-name="Uacute" unicode="&#xda;" horiz-adv-x="720" 
d="M70 285v415h130v-415c0 -49.333 15.333 -90 46 -122s68.667 -48 114 -48s83.333 16 114 48s46 72.667 46 122v415h130v-415c0 -90 -26.333 -161.667 -79 -215s-123 -80 -211 -80s-158.333 26.667 -211 80s-79 125 -79 215zM305 770l95 145h130l-120 -145h-105z" />
    <glyph glyph-name="Ucircumflex" unicode="&#xdb;" horiz-adv-x="720" 
d="M70 285v415h130v-415c0 -49.333 15.333 -90 46 -122s68.667 -48 114 -48s83.333 16 114 48s46 72.667 46 122v415h130v-415c0 -90 -26.333 -161.667 -79 -215s-123 -80 -211 -80s-158.333 26.667 -211 80s-79 125 -79 215zM185 770l120 145h110l120 -145h-115l-60 75
l-60 -75h-115z" />
    <glyph glyph-name="Udieresis" unicode="&#xdc;" horiz-adv-x="720" 
d="M70 285v415h130v-415c0 -49.333 15.333 -90 46 -122s68.667 -48 114 -48s83.333 16 114 48s46 72.667 46 122v415h130v-415c0 -90 -26.333 -161.667 -79 -215s-123 -80 -211 -80s-158.333 26.667 -211 80s-79 125 -79 215zM395 785v115h115v-115h-115zM210 785v115h115
v-115h-115z" />
    <glyph glyph-name="Yacute" unicode="&#xdd;" horiz-adv-x="620" 
d="M245 0v240l-255 460h145l165 -300h20l165 300h145l-255 -460v-240h-130zM260 770l95 145h130l-120 -145h-105z" />
    <glyph glyph-name="Thorn" unicode="&#xde;" horiz-adv-x="710" 
d="M75 0v700h130v-130h240c68 0 122.5 -20.167 163.5 -60.5s61.5 -93.5 61.5 -159.5s-20.5 -119.167 -61.5 -159.5s-95.5 -60.5 -163.5 -60.5h-240v-130h-130zM205 255h235c30 0 54.167 8.83301 72.5 26.5s27.5 40.5 27.5 68.5s-9.16699 50.833 -27.5 68.5
s-42.5 26.5 -72.5 26.5h-235v-190z" />
    <glyph glyph-name="germandbls" unicode="&#xdf;" horiz-adv-x="585" 
d="M65 0l0.000976562 500.002c0 63.333 20.667 114.166 62 152.499s99 57.5 173 57.5c71.333 0 127.5 -18.667 168.5 -56s61.5 -85.333 61.5 -144c0 -46 -14.333 -84.667 -43 -116c-10.667 -12 -24.667 -21.667 -42 -29v-5c20 -9.33301 37.333 -21.333 52 -36
c35.333 -35.333 53 -78.333 53 -129c0 -58.667 -19.833 -105.834 -59.5 -141.501s-94.834 -53.5 -165.501 -53.5h-50v110h30c36.667 0 65.834 9.16699 87.501 27.5s32.5 40.833 32.5 67.5c0 28.667 -10.833 52.5 -32.5 71.5s-50.834 28.5 -87.501 28.5h-35v110h35
c29.333 0 53.333 8.5 72 25.5s28 38.5 28 64.5s-9.5 47.5 -28.5 64.5s-44.5 25.5 -76.5 25.5c-32.667 0 -59.167 -8.83301 -79.5 -26.5s-30.5 -40.5 -30.5 -68.5v-500h-125z" />
    <glyph glyph-name="agrave" unicode="&#xe0;" horiz-adv-x="550" 
d="M385 0l-9.99902 49.999h-5c-8.66699 -10.667 -20.334 -20.667 -35.001 -30c-32 -20 -68.667 -30 -110 -30c-56 0 -100.833 15 -134.5 45s-50.5 66.667 -50.5 110c0 52 18 93.333 54 124s88 46 156 46h115v10c0 28.667 -8.16699 51.667 -24.5 69s-38.166 26 -65.499 26
c-26 0 -46.833 -6.66699 -62.5 -20s-24.834 -28.333 -27.501 -45h-125c6 46 27.333 85 64 117s87 48 151 48s115.833 -18.667 155.5 -56s59.5 -83.666 59.5 -138.999v-325h-105zM365.001 204.999v15h-105c-63.333 0 -95 -21.667 -95 -65c0 -20 7 -35.833 21 -47.5
s33.667 -17.5 59 -17.5c38 0 67.5 10.167 88.5 30.5s31.5 48.5 31.5 84.5zM225.001 579.999l-120 145h130l95 -145h-105z" />
    <glyph glyph-name="aacute" unicode="&#xe1;" horiz-adv-x="550" 
d="M385 0l-9.99902 49.999h-5c-8.66699 -10.667 -20.334 -20.667 -35.001 -30c-32 -20 -68.667 -30 -110 -30c-56 0 -100.833 15 -134.5 45s-50.5 66.667 -50.5 110c0 52 18 93.333 54 124s88 46 156 46h115v10c0 28.667 -8.16699 51.667 -24.5 69s-38.166 26 -65.499 26
c-26 0 -46.833 -6.66699 -62.5 -20s-24.834 -28.333 -27.501 -45h-125c6 46 27.333 85 64 117s87 48 151 48s115.833 -18.667 155.5 -56s59.5 -83.666 59.5 -138.999v-325h-105zM365.001 204.999v15h-105c-63.333 0 -95 -21.667 -95 -65c0 -20 7 -35.833 21 -47.5
s33.667 -17.5 59 -17.5c38 0 67.5 10.167 88.5 30.5s31.5 48.5 31.5 84.5zM225.001 579.999l95 145h130l-120 -145h-105z" />
    <glyph glyph-name="acircumflex" unicode="&#xe2;" horiz-adv-x="550" 
d="M385 0l-9.99902 49.999h-5c-8.66699 -10.667 -20.334 -20.667 -35.001 -30c-32 -20 -68.667 -30 -110 -30c-56 0 -100.833 15 -134.5 45s-50.5 66.667 -50.5 110c0 52 18 93.333 54 124s88 46 156 46h115v10c0 28.667 -8.16699 51.667 -24.5 69s-38.166 26 -65.499 26
c-26 0 -46.833 -6.66699 -62.5 -20s-24.834 -28.333 -27.501 -45h-125c6 46 27.333 85 64 117s87 48 151 48s115.833 -18.667 155.5 -56s59.5 -83.666 59.5 -138.999v-325h-105zM365.001 204.999v15h-105c-63.333 0 -95 -21.667 -95 -65c0 -20 7 -35.833 21 -47.5
s33.667 -17.5 59 -17.5c38 0 67.5 10.167 88.5 30.5s31.5 48.5 31.5 84.5zM100.001 579.999l120 145h110l120 -145h-115l-60 75l-60 -75h-115z" />
    <glyph glyph-name="atilde" unicode="&#xe3;" horiz-adv-x="550" 
d="M385 0l-9.99902 49.999h-5c-8.66699 -10.667 -20.334 -20.667 -35.001 -30c-32 -20 -68.667 -30 -110 -30c-56 0 -100.833 15 -134.5 45s-50.5 66.667 -50.5 110c0 52 18 93.333 54 124s88 46 156 46h115v10c0 28.667 -8.16699 51.667 -24.5 69s-38.166 26 -65.499 26
c-26 0 -46.833 -6.66699 -62.5 -20s-24.834 -28.333 -27.501 -45h-125c6 46 27.333 85 64 117s87 48 151 48s115.833 -18.667 155.5 -56s59.5 -83.666 59.5 -138.999v-325h-105zM365.001 204.999v15h-105c-63.333 0 -95 -21.667 -95 -65c0 -20 7 -35.833 21 -47.5
s33.667 -17.5 59 -17.5c38 0 67.5 10.167 88.5 30.5s31.5 48.5 31.5 84.5zM195.001 589.999h-85c0 39.333 10 70 30 92s46.667 33 80 33c18 0 37.333 -6.66699 58 -20s36.334 -20 47.001 -20c10 0 18.333 3.66699 25 11s10 17 10 29h85c0 -39.333 -10 -70 -30 -92
s-46.667 -33 -80 -33c-18 0 -37.333 6.66699 -58 20s-36.334 20 -47.001 20c-10 0 -18.333 -3.66699 -25 -11s-10 -17 -10 -29z" />
    <glyph glyph-name="adieresis" unicode="&#xe4;" horiz-adv-x="550" 
d="M385 0l-9.99902 49.999h-5c-8.66699 -10.667 -20.334 -20.667 -35.001 -30c-32 -20 -68.667 -30 -110 -30c-56 0 -100.833 15 -134.5 45s-50.5 66.667 -50.5 110c0 52 18 93.333 54 124s88 46 156 46h115v10c0 28.667 -8.16699 51.667 -24.5 69s-38.166 26 -65.499 26
c-26 0 -46.833 -6.66699 -62.5 -20s-24.834 -28.333 -27.501 -45h-125c6 46 27.333 85 64 117s87 48 151 48s115.833 -18.667 155.5 -56s59.5 -83.666 59.5 -138.999v-325h-105zM365.001 204.999v15h-105c-63.333 0 -95 -21.667 -95 -65c0 -20 7 -35.833 21 -47.5
s33.667 -17.5 59 -17.5c38 0 67.5 10.167 88.5 30.5s31.5 48.5 31.5 84.5zM310.001 594.999v115h115v-115h-115zM125.001 594.999v115h115v-115h-115z" />
    <glyph glyph-name="aring" unicode="&#xe5;" horiz-adv-x="550" 
d="M385 0l-9.99902 49.999h-5c-8.66699 -10.667 -20.334 -20.667 -35.001 -30c-32 -20 -68.667 -30 -110 -30c-56 0 -100.833 15 -134.5 45s-50.5 66.667 -50.5 110c0 52 18 93.333 54 124s88 46 156 46h115v10c0 28.667 -8.16699 51.667 -24.5 69s-38.166 26 -65.499 26
c-26 0 -46.833 -6.66699 -62.5 -20s-24.834 -28.333 -27.501 -45h-125c6 46 27.333 85 64 117s87 48 151 48s115.833 -18.667 155.5 -56s59.5 -83.666 59.5 -138.999v-325h-105zM365.001 204.999v15h-105c-63.333 0 -95 -21.667 -95 -65c0 -20 7 -35.833 21 -47.5
s33.667 -17.5 59 -17.5c38 0 67.5 10.167 88.5 30.5s31.5 48.5 31.5 84.5zM275.001 619.999c10.667 0 20 3.66699 28 11s12 17 12 29s-4 21.667 -12 29s-17.333 11 -28 11s-20 -3.66699 -28 -11s-12 -17 -12 -29s4 -21.667 12 -29s17.333 -11 28 -11zM275.001 759.999
c29.333 0 53.333 -9.66699 72 -29s28 -43 28 -71s-9.33301 -51.667 -28 -71s-42.667 -29 -72 -29s-53.333 9.66699 -72 29s-28 43 -28 71s9.33301 51.667 28 71s42.667 29 72 29z" />
    <glyph glyph-name="ae" unicode="&#xe6;" horiz-adv-x="905" 
d="M370 205v10h-110c-30.667 0 -54.167 -6.16699 -70.5 -18.5s-24.5 -27.833 -24.5 -46.5c0 -40 26.667 -60 80 -60c39.333 0 70 10.167 92 30.5s33 48.5 33 84.5zM180 355l-120.002 0.00195312c6 48.667 26.833 88.334 62.5 119.001s84.834 46 147.501 46
c82 0 140.333 -30 175 -90c5.33301 9.33301 14 20 26 32s31.833 24.667 59.5 38s57.5 20 89.5 20c70 0 128.333 -24.333 175 -73s70 -109.334 70 -182.001c0 -6 -1 -18 -3 -36l-2 -14h-365c6 -36.667 19.667 -65.834 41 -87.501s49.333 -32.5 84 -32.5
c48 0 81.333 18.333 100 55h130c-3.33301 -12.667 -9.66602 -26.834 -18.999 -42.501s-22.5 -33 -39.5 -52s-40.5 -34.667 -70.5 -47s-63.667 -18.5 -101 -18.5c-46 0 -86.167 10.333 -120.5 31s-57.5 40.334 -69.5 59.001c-13.333 -17.333 -29.333 -32.333 -48 -45
c-43.333 -30 -95.666 -45 -156.999 -45c-56 0 -100.833 15 -134.5 45s-50.5 66.667 -50.5 110c0 47.333 18.167 85.833 54.5 115.5s88.166 44.5 155.499 44.5h120v15c0 28 -8.83301 50.833 -26.5 68.5s-40.5 26.5 -68.5 26.5c-28.667 0 -50.667 -6.33301 -66 -19
s-25 -26.334 -29 -41.001zM494.998 305.002h245c-6 33.333 -19.667 60.833 -41 82.5s-47.666 32.5 -78.999 32.5c-33.333 0 -61.833 -11.833 -85.5 -35.5s-36.834 -50.167 -39.501 -79.5z" />
    <glyph glyph-name="ccedilla" unicode="&#xe7;" horiz-adv-x="575" 
d="M220 -225v75h45c26.667 0 40 10 40 30s-13.333 30 -40 30h-30v40l19 44c-63.333 9.33301 -114.833 38 -154.5 86s-59.5 106.333 -59.5 175c0 77.333 24.5 140.833 73.5 190.5s111.167 74.5 186.5 74.5c38 0 72.167 -6.5 102.5 -19.5s54.5 -29.833 72.5 -50.5
s32.167 -41.334 42.5 -62.001s17.833 -41.667 22.5 -63h-125c-20 53.333 -58.333 80 -115 80c-38 0 -70 -14 -96 -42s-39 -64 -39 -108s13 -80 39 -108s58 -42 96 -42c58.667 0 97 28.333 115 85h125c-8 -44.667 -28.833 -86.834 -62.5 -126.501
s-79.834 -63.167 -138.501 -70.5l-19 -43c8.66699 -1.33301 17.834 -4.16602 27.501 -8.49902s20 -13.333 31 -27s16.5 -30.167 16.5 -49.5c0 -27.333 -10.167 -49.166 -30.5 -65.499s-48.5 -24.5 -84.5 -24.5h-60z" />
    <glyph glyph-name="egrave" unicode="&#xe8;" horiz-adv-x="590" 
d="M165 300h260c-6 34 -19.833 61.667 -41.5 83s-49.5 32 -83.5 32c-36 0 -65.5 -10.5 -88.5 -31.5s-38.5 -48.833 -46.5 -83.5zM405 150l130.001 0.000976562c-3.33301 -12.667 -9.83301 -26.834 -19.5 -42.501s-23.334 -33 -41.001 -52s-41.834 -34.667 -72.501 -47
s-64.667 -18.5 -102 -18.5c-75.333 0 -137.5 24.833 -186.5 74.5s-73.5 113.167 -73.5 190.5s24.5 140.833 73.5 190.5s111.167 74.5 186.5 74.5c70 0 129.167 -24.5 177.5 -73.5s72.5 -109.5 72.5 -181.5c0 -6 -1 -18 -3 -36l-2 -14h-380c5.33301 -36 20.333 -65 45 -87
s54.667 -33 90 -33c26.667 0 49.334 5.83301 68.001 17.5s31 24.167 37 37.5zM240.001 580.001l-120 145h130l95 -145h-105z" />
    <glyph glyph-name="eacute" unicode="&#xe9;" horiz-adv-x="590" 
d="M165 300h260c-6 34 -19.833 61.667 -41.5 83s-49.5 32 -83.5 32c-36 0 -65.5 -10.5 -88.5 -31.5s-38.5 -48.833 -46.5 -83.5zM405 150l130.001 0.000976562c-3.33301 -12.667 -9.83301 -26.834 -19.5 -42.501s-23.334 -33 -41.001 -52s-41.834 -34.667 -72.501 -47
s-64.667 -18.5 -102 -18.5c-75.333 0 -137.5 24.833 -186.5 74.5s-73.5 113.167 -73.5 190.5s24.5 140.833 73.5 190.5s111.167 74.5 186.5 74.5c70 0 129.167 -24.5 177.5 -73.5s72.5 -109.5 72.5 -181.5c0 -6 -1 -18 -3 -36l-2 -14h-380c5.33301 -36 20.333 -65 45 -87
s54.667 -33 90 -33c26.667 0 49.334 5.83301 68.001 17.5s31 24.167 37 37.5zM245.001 580.001l95 145h130l-120 -145h-105z" />
    <glyph glyph-name="ecircumflex" unicode="&#xea;" horiz-adv-x="590" 
d="M165 300h260c-6 34 -19.833 61.667 -41.5 83s-49.5 32 -83.5 32c-36 0 -65.5 -10.5 -88.5 -31.5s-38.5 -48.833 -46.5 -83.5zM405 150l130.001 0.000976562c-3.33301 -12.667 -9.83301 -26.834 -19.5 -42.501s-23.334 -33 -41.001 -52s-41.834 -34.667 -72.501 -47
s-64.667 -18.5 -102 -18.5c-75.333 0 -137.5 24.833 -186.5 74.5s-73.5 113.167 -73.5 190.5s24.5 140.833 73.5 190.5s111.167 74.5 186.5 74.5c70 0 129.167 -24.5 177.5 -73.5s72.5 -109.5 72.5 -181.5c0 -6 -1 -18 -3 -36l-2 -14h-380c5.33301 -36 20.333 -65 45 -87
s54.667 -33 90 -33c26.667 0 49.334 5.83301 68.001 17.5s31 24.167 37 37.5zM120.001 580.001l120 145h110l120 -145h-115l-60 75l-60 -75h-115z" />
    <glyph glyph-name="edieresis" unicode="&#xeb;" horiz-adv-x="590" 
d="M165 300h260c-6 34 -19.833 61.667 -41.5 83s-49.5 32 -83.5 32c-36 0 -65.5 -10.5 -88.5 -31.5s-38.5 -48.833 -46.5 -83.5zM405 150l130.001 0.000976562c-3.33301 -12.667 -9.83301 -26.834 -19.5 -42.501s-23.334 -33 -41.001 -52s-41.834 -34.667 -72.501 -47
s-64.667 -18.5 -102 -18.5c-75.333 0 -137.5 24.833 -186.5 74.5s-73.5 113.167 -73.5 190.5s24.5 140.833 73.5 190.5s111.167 74.5 186.5 74.5c70 0 129.167 -24.5 177.5 -73.5s72.5 -109.5 72.5 -181.5c0 -6 -1 -18 -3 -36l-2 -14h-380c5.33301 -36 20.333 -65 45 -87
s54.667 -33 90 -33c26.667 0 49.334 5.83301 68.001 17.5s31 24.167 37 37.5zM330.001 595.001v115h115v-115h-115zM145.001 595.001v115h115v-115h-115z" />
    <glyph glyph-name="igrave" unicode="&#xec;" horiz-adv-x="255" 
d="M65 0v510h125v-510h-125zM75 580l-120 145h130l95 -145h-105z" />
    <glyph glyph-name="iacute" unicode="&#xed;" horiz-adv-x="255" 
d="M65 0v510h125v-510h-125zM75 580l95 145h130l-120 -145h-105z" />
    <glyph glyph-name="icircumflex" unicode="&#xee;" horiz-adv-x="255" 
d="M65 0v510h125v-510h-125zM-45 580l120 145h110l120 -145h-115l-60 75l-60 -75h-115z" />
    <glyph glyph-name="idieresis" unicode="&#xef;" horiz-adv-x="255" 
d="M65 0v510h125v-510h-125zM165 595v115h115v-115h-115zM-20 595v115h115v-115h-115z" />
    <glyph glyph-name="eth" unicode="&#xf0;" horiz-adv-x="585" 
d="M190 490l-45 69.999l100 55c-12.667 10 -25.667 19 -39 27c-25.333 16.667 -47.333 29.334 -66 38.001l90 45c19.333 -10.667 41 -25 65 -43l35 -27l115 60l50 -70l-100 -50c10.667 -8.66699 22.667 -21.167 36 -37.5s28.833 -38.5 46.5 -66.5s32.5 -62.5 44.5 -103.5
s18 -83.5 18 -127.5c0 -82 -23 -147.5 -69 -196.5s-106.333 -73.5 -181 -73.5c-72 0 -131.667 22.667 -179 68s-71 101 -71 167c0 70 21.667 126.667 65 170s100 65 170 65c46.667 0 90 -15 130 -45h5c-17.333 47.333 -49 94 -95 140zM165 224.999
c0 -35.333 12.167 -65 36.5 -89s53.833 -36 88.5 -36s64.167 12 88.5 36s36.5 53.667 36.5 89s-12.167 65 -36.5 89s-53.833 36 -88.5 36s-64.167 -12 -88.5 -36s-36.5 -53.667 -36.5 -89z" />
    <glyph glyph-name="ntilde" unicode="&#xf1;" horiz-adv-x="595" 
d="M65 0v510h115l10 -50h5c8 10 19.333 20 34 30c30.667 20 66 30 106 30c58 0 105.833 -19.833 143.5 -59.5s56.5 -91.5 56.5 -155.5v-305h-125v295c0 32.667 -10.167 59.167 -30.5 79.5s-46.833 30.5 -79.5 30.5s-59.167 -10.167 -79.5 -30.5s-30.5 -46.833 -30.5 -79.5
v-295h-125zM225 590h-85c0 39.333 10 70 30 92s46.667 33 80 33c18 0 37.333 -6.66699 58 -20s36.334 -20 47.001 -20c10 0 18.333 3.66699 25 11s10 17 10 29h85c0 -39.333 -10 -70 -30 -92s-46.667 -33 -80 -33c-18 0 -37.333 6.66699 -58 20s-36.334 20 -47.001 20
c-10 0 -18.333 -3.66699 -25 -11s-10 -17 -10 -29z" />
    <glyph glyph-name="ograve" unicode="&#xf2;" horiz-adv-x="600" 
d="M300 105c38 0 70 14 96 42s39 64 39 108s-13 80 -39 108s-58 42 -96 42s-70 -14 -96 -42s-39 -64 -39 -108s13 -80 39 -108s58 -42 96 -42zM300 520c75.333 0 137.5 -24.833 186.5 -74.5s73.5 -113.167 73.5 -190.5s-24.5 -140.833 -73.5 -190.5
s-111.167 -74.5 -186.5 -74.5s-137.5 24.833 -186.5 74.5s-73.5 113.167 -73.5 190.5s24.5 140.833 73.5 190.5s111.167 74.5 186.5 74.5zM245 580l-120 145h130l95 -145h-105z" />
    <glyph glyph-name="oacute" unicode="&#xf3;" horiz-adv-x="600" 
d="M300 105c38 0 70 14 96 42s39 64 39 108s-13 80 -39 108s-58 42 -96 42s-70 -14 -96 -42s-39 -64 -39 -108s13 -80 39 -108s58 -42 96 -42zM300 520c75.333 0 137.5 -24.833 186.5 -74.5s73.5 -113.167 73.5 -190.5s-24.5 -140.833 -73.5 -190.5
s-111.167 -74.5 -186.5 -74.5s-137.5 24.833 -186.5 74.5s-73.5 113.167 -73.5 190.5s24.5 140.833 73.5 190.5s111.167 74.5 186.5 74.5zM250 580l95 145h130l-120 -145h-105z" />
    <glyph glyph-name="ocircumflex" unicode="&#xf4;" horiz-adv-x="600" 
d="M300 105c38 0 70 14 96 42s39 64 39 108s-13 80 -39 108s-58 42 -96 42s-70 -14 -96 -42s-39 -64 -39 -108s13 -80 39 -108s58 -42 96 -42zM300 520c75.333 0 137.5 -24.833 186.5 -74.5s73.5 -113.167 73.5 -190.5s-24.5 -140.833 -73.5 -190.5
s-111.167 -74.5 -186.5 -74.5s-137.5 24.833 -186.5 74.5s-73.5 113.167 -73.5 190.5s24.5 140.833 73.5 190.5s111.167 74.5 186.5 74.5zM125 580l120 145h110l120 -145h-115l-60 75l-60 -75h-115z" />
    <glyph glyph-name="otilde" unicode="&#xf5;" horiz-adv-x="600" 
d="M300 105c38 0 70 14 96 42s39 64 39 108s-13 80 -39 108s-58 42 -96 42s-70 -14 -96 -42s-39 -64 -39 -108s13 -80 39 -108s58 -42 96 -42zM300 520c75.333 0 137.5 -24.833 186.5 -74.5s73.5 -113.167 73.5 -190.5s-24.5 -140.833 -73.5 -190.5
s-111.167 -74.5 -186.5 -74.5s-137.5 24.833 -186.5 74.5s-73.5 113.167 -73.5 190.5s24.5 140.833 73.5 190.5s111.167 74.5 186.5 74.5zM220 590h-85c0 39.333 10 70 30 92s46.667 33 80 33c18 0 37.333 -6.66699 58 -20s36.334 -20 47.001 -20c10 0 18.333 3.66699 25 11
s10 17 10 29h85c0 -39.333 -10 -70 -30 -92s-46.667 -33 -80 -33c-18 0 -37.333 6.66699 -58 20s-36.334 20 -47.001 20c-10 0 -18.333 -3.66699 -25 -11s-10 -17 -10 -29z" />
    <glyph glyph-name="odieresis" unicode="&#xf6;" horiz-adv-x="600" 
d="M300 105c38 0 70 14 96 42s39 64 39 108s-13 80 -39 108s-58 42 -96 42s-70 -14 -96 -42s-39 -64 -39 -108s13 -80 39 -108s58 -42 96 -42zM300 520c75.333 0 137.5 -24.833 186.5 -74.5s73.5 -113.167 73.5 -190.5s-24.5 -140.833 -73.5 -190.5
s-111.167 -74.5 -186.5 -74.5s-137.5 24.833 -186.5 74.5s-73.5 113.167 -73.5 190.5s24.5 140.833 73.5 190.5s111.167 74.5 186.5 74.5zM335 595v115h115v-115h-115zM150 595v115h115v-115h-115z" />
    <glyph glyph-name="divide" unicode="&#xf7;" horiz-adv-x="550" 
d="M55 235v110h440v-110h-440zM210 115c0 20 6.33301 35.833 19 47.5s28 17.5 46 17.5s33.333 -5.83301 46 -17.5s19 -27.5 19 -47.5s-6.33301 -35.833 -19 -47.5s-28 -17.5 -46 -17.5s-33.333 5.83301 -46 17.5s-19 27.5 -19 47.5zM210 465c0 20 6.33301 35.833 19 47.5
s28 17.5 46 17.5s33.333 -5.83301 46 -17.5s19 -27.5 19 -47.5s-6.33301 -35.833 -19 -47.5s-28 -17.5 -46 -17.5s-33.333 5.83301 -46 17.5s-19 27.5 -19 47.5z" />
    <glyph glyph-name="oslash" unicode="&#xf8;" horiz-adv-x="600" 
d="M90 -35l44 81c-62.667 49.333 -94 119 -94 209c0 77.333 24.5 140.833 73.5 190.5s111.167 74.5 186.5 74.5c32 0 60 -4.33301 84 -13l21 38h110l-46 -84c60.667 -50 91 -118.667 91 -206c0 -77.333 -24.5 -140.833 -73.5 -190.5s-111.167 -74.5 -186.5 -74.5
c-26.667 0 -53.667 3.66699 -81 11l-19 -36h-110zM193 154l136 252c-8 2.66699 -17.667 4 -29 4c-38.667 0 -71.667 -14.667 -99 -44s-41 -66.333 -41 -111c0 -39.333 11 -73 33 -101zM410 352l-136 -249.999c12 -1.33301 20.667 -2 26 -2c38.667 0 71.667 14.667 99 44
s41 66.333 41 111c0 37.333 -10 69.666 -30 96.999z" />
    <glyph glyph-name="ugrave" unicode="&#xf9;" horiz-adv-x="600" 
d="M65 205v305h125v-295c0 -32.667 10.167 -59.167 30.5 -79.5s46.833 -30.5 79.5 -30.5s59.167 10.167 79.5 30.5s30.5 46.833 30.5 79.5v295h125v-510h-115l-10 50h-5c-8 -10 -19.333 -20 -34 -30c-30.667 -20 -66 -30 -106 -30c-58 0 -105.833 19.833 -143.5 59.5
s-56.5 91.5 -56.5 155.5zM250 580l-120 145h130l95 -145h-105z" />
    <glyph glyph-name="uacute" unicode="&#xfa;" horiz-adv-x="600" 
d="M65 205v305h125v-295c0 -32.667 10.167 -59.167 30.5 -79.5s46.833 -30.5 79.5 -30.5s59.167 10.167 79.5 30.5s30.5 46.833 30.5 79.5v295h125v-510h-115l-10 50h-5c-8 -10 -19.333 -20 -34 -30c-30.667 -20 -66 -30 -106 -30c-58 0 -105.833 19.833 -143.5 59.5
s-56.5 91.5 -56.5 155.5zM250 580l95 145h130l-120 -145h-105z" />
    <glyph glyph-name="ucircumflex" unicode="&#xfb;" horiz-adv-x="600" 
d="M65 205v305h125v-295c0 -32.667 10.167 -59.167 30.5 -79.5s46.833 -30.5 79.5 -30.5s59.167 10.167 79.5 30.5s30.5 46.833 30.5 79.5v295h125v-510h-115l-10 50h-5c-8 -10 -19.333 -20 -34 -30c-30.667 -20 -66 -30 -106 -30c-58 0 -105.833 19.833 -143.5 59.5
s-56.5 91.5 -56.5 155.5zM125 580l120 145h110l120 -145h-115l-60 75l-60 -75h-115z" />
    <glyph glyph-name="udieresis" unicode="&#xfc;" horiz-adv-x="600" 
d="M65 205v305h125v-295c0 -32.667 10.167 -59.167 30.5 -79.5s46.833 -30.5 79.5 -30.5s59.167 10.167 79.5 30.5s30.5 46.833 30.5 79.5v295h125v-510h-115l-10 50h-5c-8 -10 -19.333 -20 -34 -30c-30.667 -20 -66 -30 -106 -30c-58 0 -105.833 19.833 -143.5 59.5
s-56.5 91.5 -56.5 155.5zM335 595v115h115v-115h-115zM150 595v115h115v-115h-115z" />
    <glyph glyph-name="yacute" unicode="&#xfd;" 
d="M60 -200v115h100c20 0 32.667 8.33301 38 25l9 25l-207 545h130l130 -345h20l120 345h130l-215 -610c-12.667 -36.667 -29.5 -62.5 -50.5 -77.5s-54.167 -22.5 -99.5 -22.5h-105zM220 580l95 145h130l-120 -145h-105z" />
    <glyph glyph-name="thorn" unicode="&#xfe;" horiz-adv-x="620" 
d="M325 105c38.667 0 70 13.167 94 39.5s36 63.166 36 110.499s-12 84.166 -36 110.499s-55.333 39.5 -94 39.5s-70 -13.167 -94 -39.5s-36 -63.166 -36 -110.499s12 -84.166 36 -110.499s55.333 -39.5 94 -39.5zM70 -200l-0.000976562 900h125v-245h5
c9.33301 12 21 22.667 35 32c32.667 22 69.334 33 110.001 33c66.667 0 122.5 -24.5 167.5 -73.5s67.5 -112.833 67.5 -191.5s-22.5 -142.5 -67.5 -191.5s-100.833 -73.5 -167.5 -73.5c-44 0 -81.333 10 -112 30c-12.667 9.33301 -23.667 19.333 -33 30h-5v-250h-125z" />
    <glyph glyph-name="ydieresis" unicode="&#xff;" 
d="M60 -200v115h100c20 0 32.667 8.33301 38 25l9 25l-207 545h130l130 -345h20l120 345h130l-215 -610c-12.667 -36.667 -29.5 -62.5 -50.5 -77.5s-54.167 -22.5 -99.5 -22.5h-105zM305 595v115h115v-115h-115zM120 595v115h115v-115h-115z" />
    <glyph glyph-name="Amacron" unicode="&#x100;" horiz-adv-x="690" 
d="M0 0l250 700h190l250 -700h-145l-53 150h-294l-53 -150h-145zM240 270h210l-95 280h-20zM190 795v95h310v-95h-310z" />
    <glyph glyph-name="amacron" unicode="&#x101;" horiz-adv-x="550" 
d="M385 0l-9.99902 49.999h-5c-8.66699 -10.667 -20.334 -20.667 -35.001 -30c-32 -20 -68.667 -30 -110 -30c-56 0 -100.833 15 -134.5 45s-50.5 66.667 -50.5 110c0 52 18 93.333 54 124s88 46 156 46h115v10c0 28.667 -8.16699 51.667 -24.5 69s-38.166 26 -65.499 26
c-26 0 -46.833 -6.66699 -62.5 -20s-24.834 -28.333 -27.501 -45h-125c6 46 27.333 85 64 117s87 48 151 48s115.833 -18.667 155.5 -56s59.5 -83.666 59.5 -138.999v-325h-105zM365.001 204.999v15h-105c-63.333 0 -95 -21.667 -95 -65c0 -20 7 -35.833 21 -47.5
s33.667 -17.5 59 -17.5c38 0 67.5 10.167 88.5 30.5s31.5 48.5 31.5 84.5zM120.001 604.999v95h310v-95h-310z" />
    <glyph glyph-name="Abreve" unicode="&#x102;" horiz-adv-x="690" 
d="M0 0l250 700h190l250 -700h-145l-53 150h-294l-53 -150h-145zM240 270h210l-95 280h-20zM185 915h95c10 -40 31.667 -60 65 -60s55 20 65 60h95c-2.66699 -45.333 -18 -80.833 -46 -106.5s-66 -38.5 -114 -38.5s-86 12.833 -114 38.5s-43.333 61.167 -46 106.5z" />
    <glyph glyph-name="abreve" unicode="&#x103;" horiz-adv-x="550" 
d="M385 0l-9.99902 49.999h-5c-8.66699 -10.667 -20.334 -20.667 -35.001 -30c-32 -20 -68.667 -30 -110 -30c-56 0 -100.833 15 -134.5 45s-50.5 66.667 -50.5 110c0 52 18 93.333 54 124s88 46 156 46h115v10c0 28.667 -8.16699 51.667 -24.5 69s-38.166 26 -65.499 26
c-26 0 -46.833 -6.66699 -62.5 -20s-24.834 -28.333 -27.501 -45h-125c6 46 27.333 85 64 117s87 48 151 48s115.833 -18.667 155.5 -56s59.5 -83.666 59.5 -138.999v-325h-105zM365.001 204.999v15h-105c-63.333 0 -95 -21.667 -95 -65c0 -20 7 -35.833 21 -47.5
s33.667 -17.5 59 -17.5c38 0 67.5 10.167 88.5 30.5s31.5 48.5 31.5 84.5zM115.001 724.999h95c10 -40 31.667 -60 65 -60s55 20 65 60h95c-2.66699 -45.333 -18 -80.833 -46 -106.5s-66 -38.5 -114 -38.5s-86 12.833 -114 38.5s-43.333 61.167 -46 106.5z" />
    <glyph glyph-name="Aogonek" unicode="&#x104;" horiz-adv-x="690" 
d="M0 0l250 700.002h190l250 -700h-50c-36.667 -18.667 -55 -40.334 -55 -65.001c0 -23.333 15 -35 45 -35h10v-75h-25c-41.333 0 -72.5 8.5 -93.5 25.5s-31.5 40.167 -31.5 69.5c0 25.333 9 45.666 27 60.999c10 8.66699 19.333 15 28 19l-53 150h-294l-53 -150h-145z
M240 270.002h210l-95 280h-20z" />
    <glyph glyph-name="aogonek" unicode="&#x105;" horiz-adv-x="550" 
d="M490 -175h-24.999c-41.333 0 -72.5 8.5 -93.5 25.5s-31.5 40.167 -31.5 69.5c0 16 4.5 30.5 13.5 43.5s17.5 22.333 25.5 28s13 8.5 15 8.5h-9l-10 50h-5c-8.66699 -10.667 -20.334 -20.667 -35.001 -30c-32 -20 -68.667 -30 -110 -30c-56 0 -100.833 15 -134.5 45
s-50.5 66.667 -50.5 110c0 52 18 93.333 54 124s88 46 156 46h115v10c0 28.667 -8.16699 51.667 -24.5 69s-38.166 26 -65.499 26c-26 0 -46.833 -6.66699 -62.5 -20s-24.834 -28.333 -27.501 -45h-125c6 46 27.333 85 64 117s87 48 151 48s115.833 -18.667 155.5 -56
s59.5 -83.666 59.5 -138.999v-325c-36.667 -18.667 -55 -40.334 -55 -65.001c0 -23.333 15 -35 45 -35h10v-75zM365.001 205v15h-105c-63.333 0 -95 -21.667 -95 -65c0 -20 7 -35.833 21 -47.5s33.667 -17.5 59 -17.5c38 0 67.5 10.167 88.5 30.5s31.5 48.5 31.5 84.5z" />
    <glyph glyph-name="Cacute" unicode="&#x106;" horiz-adv-x="735" 
d="M565 250l134.999 -0.000976562c-4 -18.667 -9.83301 -38 -17.5 -58s-20 -42.5 -37 -67.5s-36.5 -47.167 -58.5 -66.5s-50.667 -35.5 -86 -48.5s-74 -19.5 -116 -19.5c-96 0 -176.667 34 -242 102s-98 154 -98 258s32.667 190 98 258s146 102 242 102
c39.333 0 75.833 -5.83301 109.5 -17.5s61.834 -26.5 84.501 -44.5s42.667 -38.833 60 -62.5s30.666 -46.167 39.999 -67.5s16.333 -42.333 21 -63h-135c-13.333 34.667 -34.833 65 -64.5 91s-68.167 39 -115.5 39c-61.333 0 -111.666 -21.5 -150.999 -64.5
s-59 -99.833 -59 -170.5s19.667 -127.5 59 -170.5s89.666 -64.5 150.999 -64.5c48 0 86.833 13.333 116.5 40s50.834 58.334 63.501 95.001zM324.999 769.999l95 145h130l-120 -145h-105z" />
    <glyph glyph-name="cacute" unicode="&#x107;" horiz-adv-x="575" 
d="M415 190l125 0.000976562c-4.66699 -22.667 -12.167 -44.667 -22.5 -66s-24.5 -42.5 -42.5 -63.5s-42.167 -38 -72.5 -51s-64.5 -19.5 -102.5 -19.5c-75.333 0 -137.5 24.833 -186.5 74.5s-73.5 113.167 -73.5 190.5s24.5 140.833 73.5 190.5s111.167 74.5 186.5 74.5
c38 0 72.167 -6.5 102.5 -19.5s54.5 -29.833 72.5 -50.5s32.167 -41.334 42.5 -62.001s17.833 -41.667 22.5 -63h-125c-20 53.333 -58.333 80 -115 80c-38 0 -70 -14 -96 -42s-39 -64 -39 -108s13 -80 39 -108s58 -42 96 -42c58.667 0 97 28.333 115 85zM245 580.001l95 145
h130l-120 -145h-105z" />
    <glyph glyph-name="Ccircumflex" unicode="&#x108;" horiz-adv-x="735" 
d="M565 250l134.999 -0.000976562c-4 -18.667 -9.83301 -38 -17.5 -58s-20 -42.5 -37 -67.5s-36.5 -47.167 -58.5 -66.5s-50.667 -35.5 -86 -48.5s-74 -19.5 -116 -19.5c-96 0 -176.667 34 -242 102s-98 154 -98 258s32.667 190 98 258s146 102 242 102
c39.333 0 75.833 -5.83301 109.5 -17.5s61.834 -26.5 84.501 -44.5s42.667 -38.833 60 -62.5s30.666 -46.167 39.999 -67.5s16.333 -42.333 21 -63h-135c-13.333 34.667 -34.833 65 -64.5 91s-68.167 39 -115.5 39c-61.333 0 -111.666 -21.5 -150.999 -64.5
s-59 -99.833 -59 -170.5s19.667 -127.5 59 -170.5s89.666 -64.5 150.999 -64.5c48 0 86.833 13.333 116.5 40s50.834 58.334 63.501 95.001zM199.999 769.999l120 145h110l120 -145h-115l-60 75l-60 -75h-115z" />
    <glyph glyph-name="ccircumflex" unicode="&#x109;" horiz-adv-x="575" 
d="M415 190l125 0.000976562c-4.66699 -22.667 -12.167 -44.667 -22.5 -66s-24.5 -42.5 -42.5 -63.5s-42.167 -38 -72.5 -51s-64.5 -19.5 -102.5 -19.5c-75.333 0 -137.5 24.833 -186.5 74.5s-73.5 113.167 -73.5 190.5s24.5 140.833 73.5 190.5s111.167 74.5 186.5 74.5
c38 0 72.167 -6.5 102.5 -19.5s54.5 -29.833 72.5 -50.5s32.167 -41.334 42.5 -62.001s17.833 -41.667 22.5 -63h-125c-20 53.333 -58.333 80 -115 80c-38 0 -70 -14 -96 -42s-39 -64 -39 -108s13 -80 39 -108s58 -42 96 -42c58.667 0 97 28.333 115 85zM120 580.001
l120 145h110l120 -145h-115l-60 75l-60 -75h-115z" />
    <glyph glyph-name="Cdotaccent" unicode="&#x10a;" horiz-adv-x="735" 
d="M565 250l134.999 -0.000976562c-4 -18.667 -9.83301 -38 -17.5 -58s-20 -42.5 -37 -67.5s-36.5 -47.167 -58.5 -66.5s-50.667 -35.5 -86 -48.5s-74 -19.5 -116 -19.5c-96 0 -176.667 34 -242 102s-98 154 -98 258s32.667 190 98 258s146 102 242 102
c39.333 0 75.833 -5.83301 109.5 -17.5s61.834 -26.5 84.501 -44.5s42.667 -38.833 60 -62.5s30.666 -46.167 39.999 -67.5s16.333 -42.333 21 -63h-135c-13.333 34.667 -34.833 65 -64.5 91s-68.167 39 -115.5 39c-61.333 0 -111.666 -21.5 -150.999 -64.5
s-59 -99.833 -59 -170.5s19.667 -127.5 59 -170.5s89.666 -64.5 150.999 -64.5c48 0 86.833 13.333 116.5 40s50.834 58.334 63.501 95.001zM319.999 784.999v115h115v-115h-115z" />
    <glyph glyph-name="cdotaccent" unicode="&#x10b;" horiz-adv-x="575" 
d="M415 190l125 0.000976562c-4.66699 -22.667 -12.167 -44.667 -22.5 -66s-24.5 -42.5 -42.5 -63.5s-42.167 -38 -72.5 -51s-64.5 -19.5 -102.5 -19.5c-75.333 0 -137.5 24.833 -186.5 74.5s-73.5 113.167 -73.5 190.5s24.5 140.833 73.5 190.5s111.167 74.5 186.5 74.5
c38 0 72.167 -6.5 102.5 -19.5s54.5 -29.833 72.5 -50.5s32.167 -41.334 42.5 -62.001s17.833 -41.667 22.5 -63h-125c-20 53.333 -58.333 80 -115 80c-38 0 -70 -14 -96 -42s-39 -64 -39 -108s13 -80 39 -108s58 -42 96 -42c58.667 0 97 28.333 115 85zM240 595.001v115
h115v-115h-115z" />
    <glyph glyph-name="Ccaron" unicode="&#x10c;" horiz-adv-x="735" 
d="M565 250l134.999 -0.000976562c-4 -18.667 -9.83301 -38 -17.5 -58s-20 -42.5 -37 -67.5s-36.5 -47.167 -58.5 -66.5s-50.667 -35.5 -86 -48.5s-74 -19.5 -116 -19.5c-96 0 -176.667 34 -242 102s-98 154 -98 258s32.667 190 98 258s146 102 242 102
c39.333 0 75.833 -5.83301 109.5 -17.5s61.834 -26.5 84.501 -44.5s42.667 -38.833 60 -62.5s30.666 -46.167 39.999 -67.5s16.333 -42.333 21 -63h-135c-13.333 34.667 -34.833 65 -64.5 91s-68.167 39 -115.5 39c-61.333 0 -111.666 -21.5 -150.999 -64.5
s-59 -99.833 -59 -170.5s19.667 -127.5 59 -170.5s89.666 -64.5 150.999 -64.5c48 0 86.833 13.333 116.5 40s50.834 58.334 63.501 95.001zM319.999 769.999l-120 145h115l60 -75l60 75h115l-120 -145h-110z" />
    <glyph glyph-name="ccaron" unicode="&#x10d;" horiz-adv-x="575" 
d="M415 190l125 0.000976562c-4.66699 -22.667 -12.167 -44.667 -22.5 -66s-24.5 -42.5 -42.5 -63.5s-42.167 -38 -72.5 -51s-64.5 -19.5 -102.5 -19.5c-75.333 0 -137.5 24.833 -186.5 74.5s-73.5 113.167 -73.5 190.5s24.5 140.833 73.5 190.5s111.167 74.5 186.5 74.5
c38 0 72.167 -6.5 102.5 -19.5s54.5 -29.833 72.5 -50.5s32.167 -41.334 42.5 -62.001s17.833 -41.667 22.5 -63h-125c-20 53.333 -58.333 80 -115 80c-38 0 -70 -14 -96 -42s-39 -64 -39 -108s13 -80 39 -108s58 -42 96 -42c58.667 0 97 28.333 115 85zM240 580.001
l-120 145h115l60 -75l60 75h115l-120 -145h-110z" />
    <glyph glyph-name="Dcaron" unicode="&#x10e;" horiz-adv-x="715" 
d="M75 0v700h255c95.333 0 175.833 -33.5 241.5 -100.5s98.5 -150.167 98.5 -249.5s-32.833 -182.5 -98.5 -249.5s-146.167 -100.5 -241.5 -100.5h-255zM205 125l125 0.00195312c60.667 0 110.834 20.667 150.501 62s59.5 95.666 59.5 162.999
s-19.833 121.666 -59.5 162.999s-89.834 62 -150.501 62h-125v-450zM300 770.002l-120 145h115l60 -75l60 75h115l-120 -145h-110z" />
    <glyph glyph-name="dcaron" unicode="&#x10f;" horiz-adv-x="715" 
d="M295 105c38.667 0 70 13.167 94 39.5s36 63.166 36 110.499s-12 84.166 -36 110.499s-55.333 39.5 -94 39.5s-70 -13.167 -94 -39.5s-36 -63.166 -36 -110.499s12 -84.166 36 -110.499s55.333 -39.5 94 -39.5zM440 0l-10 55h-5c-10 -12.667 -22 -23.667 -36 -33
c-32 -21.333 -70 -32 -114 -32c-66.667 0 -122.5 24.5 -167.5 73.5s-67.5 112.833 -67.5 191.5s22.5 142.5 67.5 191.5s100.833 73.5 167.5 73.5c40 0 76.667 -11 110 -33c14 -9.33301 25.667 -20 35 -32h5v245h125v-700h-110zM595 530l40 170h115l-60 -170h-95z" />
    <glyph glyph-name="Dcroat" unicode="&#x110;" horiz-adv-x="740" 
d="M100 0v295h-90v110h90v295h255c95.333 0 175.833 -33.5 241.5 -100.5s98.5 -150.167 98.5 -249.5s-32.833 -182.5 -98.5 -249.5s-146.167 -100.5 -241.5 -100.5h-255zM230 125l125 0.00195312c60.667 0 110.834 20.667 150.501 62s59.5 95.666 59.5 162.999
s-19.833 121.666 -59.5 162.999s-89.834 62 -150.501 62h-125v-170h155v-110h-155v-170z" />
    <glyph glyph-name="dslash" unicode="&#x111;" horiz-adv-x="615" 
d="M430 0l-9.99902 50h-5c-8.66699 -10.667 -20.334 -20.667 -35.001 -30c-32 -20 -68.667 -30 -110 -30c-68 0 -123.333 21.667 -166 65s-64 100 -64 170s21.333 126.667 64 170s98 65 166 65c42 0 77.333 -9.33301 106 -28c14.667 -8.66699 26 -17.667 34 -27h5v125h-160
v100h160v75h125v-75h80v-100h-80v-530h-110zM290.001 95c35.333 0 65 12.333 89 37s36 55.667 36 93s-12 68.333 -36 93s-53.667 37 -89 37s-65 -12.333 -89 -37s-36 -55.667 -36 -93s12 -68.333 36 -93s53.667 -37 89 -37z" />
    <glyph glyph-name="Emacron" unicode="&#x112;" horiz-adv-x="600" 
d="M75 0v700h470v-120h-340v-170h320v-120h-320v-170h340v-120h-470zM155 795v95h310v-95h-310z" />
    <glyph glyph-name="emacron" unicode="&#x113;" horiz-adv-x="590" 
d="M165 300h260c-6 34 -19.833 61.667 -41.5 83s-49.5 32 -83.5 32c-36 0 -65.5 -10.5 -88.5 -31.5s-38.5 -48.833 -46.5 -83.5zM405 150l130.001 0.000976562c-3.33301 -12.667 -9.83301 -26.834 -19.5 -42.501s-23.334 -33 -41.001 -52s-41.834 -34.667 -72.501 -47
s-64.667 -18.5 -102 -18.5c-75.333 0 -137.5 24.833 -186.5 74.5s-73.5 113.167 -73.5 190.5s24.5 140.833 73.5 190.5s111.167 74.5 186.5 74.5c70 0 129.167 -24.5 177.5 -73.5s72.5 -109.5 72.5 -181.5c0 -6 -1 -18 -3 -36l-2 -14h-380c5.33301 -36 20.333 -65 45 -87
s54.667 -33 90 -33c26.667 0 49.334 5.83301 68.001 17.5s31 24.167 37 37.5zM140.001 605.001v95h310v-95h-310z" />
    <glyph glyph-name="Ebreve" unicode="&#x114;" horiz-adv-x="600" 
d="M75 0v700h470v-120h-340v-170h320v-120h-320v-170h340v-120h-470zM150 915h95c10 -40 31.667 -60 65 -60s55 20 65 60h95c-2.66699 -45.333 -18 -80.833 -46 -106.5s-66 -38.5 -114 -38.5s-86 12.833 -114 38.5s-43.333 61.167 -46 106.5z" />
    <glyph glyph-name="ebreve" unicode="&#x115;" horiz-adv-x="590" 
d="M165 300h260c-6 34 -19.833 61.667 -41.5 83s-49.5 32 -83.5 32c-36 0 -65.5 -10.5 -88.5 -31.5s-38.5 -48.833 -46.5 -83.5zM405 150l130.001 0.000976562c-3.33301 -12.667 -9.83301 -26.834 -19.5 -42.501s-23.334 -33 -41.001 -52s-41.834 -34.667 -72.501 -47
s-64.667 -18.5 -102 -18.5c-75.333 0 -137.5 24.833 -186.5 74.5s-73.5 113.167 -73.5 190.5s24.5 140.833 73.5 190.5s111.167 74.5 186.5 74.5c70 0 129.167 -24.5 177.5 -73.5s72.5 -109.5 72.5 -181.5c0 -6 -1 -18 -3 -36l-2 -14h-380c5.33301 -36 20.333 -65 45 -87
s54.667 -33 90 -33c26.667 0 49.334 5.83301 68.001 17.5s31 24.167 37 37.5zM135.001 725.001h95c10 -40 31.667 -60 65 -60s55 20 65 60h95c-2.66699 -45.333 -18 -80.833 -46 -106.5s-66 -38.5 -114 -38.5s-86 12.833 -114 38.5s-43.333 61.167 -46 106.5z" />
    <glyph glyph-name="Edotaccent" unicode="&#x116;" horiz-adv-x="600" 
d="M75 0v700h470v-120h-340v-170h320v-120h-320v-170h340v-120h-470zM255 785v115h115v-115h-115z" />
    <glyph glyph-name="edotaccent" unicode="&#x117;" horiz-adv-x="590" 
d="M165 300h260c-6 34 -19.833 61.667 -41.5 83s-49.5 32 -83.5 32c-36 0 -65.5 -10.5 -88.5 -31.5s-38.5 -48.833 -46.5 -83.5zM405 150l130.001 0.000976562c-3.33301 -12.667 -9.83301 -26.834 -19.5 -42.501s-23.334 -33 -41.001 -52s-41.834 -34.667 -72.501 -47
s-64.667 -18.5 -102 -18.5c-75.333 0 -137.5 24.833 -186.5 74.5s-73.5 113.167 -73.5 190.5s24.5 140.833 73.5 190.5s111.167 74.5 186.5 74.5c70 0 129.167 -24.5 177.5 -73.5s72.5 -109.5 72.5 -181.5c0 -6 -1 -18 -3 -36l-2 -14h-380c5.33301 -36 20.333 -65 45 -87
s54.667 -33 90 -33c26.667 0 49.334 5.83301 68.001 17.5s31 24.167 37 37.5zM240.001 595.001v115h115v-115h-115z" />
    <glyph glyph-name="Eogonek" unicode="&#x118;" horiz-adv-x="600" 
d="M75 0v700.002h470v-120h-340v-170h320v-120h-320v-170h340v-120c-36.667 -18.667 -55 -40.334 -55 -65.001c0 -23.333 15 -35 45 -35h10v-75h-25c-41.333 0 -72.5 8.5 -93.5 25.5s-31.5 40.167 -31.5 69.5c0 25.333 9 45.666 27 60.999c10 8.66699 19.333 15 28 19h-375z
" />
    <glyph glyph-name="eogonek" unicode="&#x119;" horiz-adv-x="590" 
d="M375 -175l-30.0029 0.000976562c-41.333 0 -72.5 8.5 -93.5 25.5s-31.5 40.167 -31.5 69.5s14 53.666 42 72.999c-65.333 8 -118.666 36 -159.999 84s-62 107.333 -62 178c0 77.333 24.5 140.833 73.5 190.5s111.167 74.5 186.5 74.5c70 0 129.167 -24.5 177.5 -73.5
s72.5 -109.5 72.5 -181.5c0 -6 -1 -18 -3 -36l-2 -14h-380c5.33301 -36 20.333 -65 45 -87s54.667 -33 90 -33c26.667 0 49.334 5.83301 68.001 17.5s31 24.167 37 37.5h130c-6 -25.333 -23.667 -54.333 -53 -87s-68.666 -54.667 -117.999 -66
c-32.667 -18 -49 -38.667 -49 -62s15 -35 45 -35h15v-75zM164.997 300.001h260c-6 34 -19.833 61.667 -41.5 83s-49.5 32 -83.5 32c-36 0 -65.5 -10.5 -88.5 -31.5s-38.5 -48.833 -46.5 -83.5z" />
    <glyph glyph-name="Ecaron" unicode="&#x11a;" horiz-adv-x="600" 
d="M75 0v700h470v-120h-340v-170h320v-120h-320v-170h340v-120h-470zM255 770l-120 145h115l60 -75l60 75h115l-120 -145h-110z" />
    <glyph glyph-name="ecaron" unicode="&#x11b;" horiz-adv-x="590" 
d="M165 300h260c-6 34 -19.833 61.667 -41.5 83s-49.5 32 -83.5 32c-36 0 -65.5 -10.5 -88.5 -31.5s-38.5 -48.833 -46.5 -83.5zM405 150l130.001 0.000976562c-3.33301 -12.667 -9.83301 -26.834 -19.5 -42.501s-23.334 -33 -41.001 -52s-41.834 -34.667 -72.501 -47
s-64.667 -18.5 -102 -18.5c-75.333 0 -137.5 24.833 -186.5 74.5s-73.5 113.167 -73.5 190.5s24.5 140.833 73.5 190.5s111.167 74.5 186.5 74.5c70 0 129.167 -24.5 177.5 -73.5s72.5 -109.5 72.5 -181.5c0 -6 -1 -18 -3 -36l-2 -14h-380c5.33301 -36 20.333 -65 45 -87
s54.667 -33 90 -33c26.667 0 49.334 5.83301 68.001 17.5s31 24.167 37 37.5zM240.001 580.001l-120 145h115l60 -75l60 75h115l-120 -145h-110z" />
    <glyph glyph-name="Gcircumflex" unicode="&#x11c;" horiz-adv-x="765" 
d="M605 0l-10 80.001h-5c-12.667 -16.667 -29.334 -31.667 -50.001 -45c-45.333 -30 -97 -45 -155 -45c-96 0 -176.667 34 -242 102s-98 154 -98 258s32.667 190 98 258s146 102 242 102c45.333 0 87 -7.66699 125 -23s69.667 -35.666 95 -60.999s45.833 -52 61.5 -80
s26.834 -56.667 33.501 -86h-135c-38.667 83.333 -98.667 125 -180 125c-61.333 0 -111.666 -21.5 -150.999 -64.5s-59 -99.833 -59 -170.5s19.667 -127.5 59 -170.5s89.666 -64.5 150.999 -64.5c30.667 0 58.667 5.66699 84 17s45.333 25.166 60 41.499
s26 32.666 34 48.999s12 30.5 12 42.5v5h-175v100h305v-370h-100zM205 770.001l120 145h110l120 -145h-115l-60 75l-60 -75h-115z" />
    <glyph glyph-name="gcircumflex" unicode="&#x11d;" horiz-adv-x="605" 
d="M55 -25l129.998 -0.000976562c2.66699 -10.667 7 -21 13 -31s17.5 -19.833 34.5 -29.5s37.833 -14.5 62.5 -14.5c36 0 65 10.333 87 31s33 48.667 33 84v70h-5c-8 -9.33301 -19.333 -18.666 -34 -27.999c-27.333 -18 -62.666 -27 -105.999 -27
c-66 0 -120.833 22.833 -164.5 68.5s-65.5 104.5 -65.5 176.5s21.833 130.833 65.5 176.5s98.5 68.5 164.5 68.5c41.333 0 78 -10 110 -30c14.667 -9.33301 26.334 -19.333 35.001 -30h5l10 50h110v-496c0 -67.333 -22.167 -121.5 -66.5 -162.5s-103.833 -61.5 -178.5 -61.5
c-37.333 0 -71 5.33301 -101 16s-53.333 23.667 -70 39s-30.5 32 -41.5 50s-18.333 33.667 -22 47s-5.5 24.333 -5.5 33zM289.998 409.999c-35.333 0 -65 -12.667 -89 -38s-36 -57.666 -36 -96.999s12 -71.666 36 -96.999s53.667 -38 89 -38s65 12.667 89 38
s36 57.666 36 96.999s-12 71.666 -36 96.999s-53.667 38 -89 38zM129.998 579.999l120 145h110l120 -145h-115l-60 75l-60 -75h-115z" />
    <glyph glyph-name="Gbreve" unicode="&#x11e;" horiz-adv-x="765" 
d="M605 0l-10 80.001h-5c-12.667 -16.667 -29.334 -31.667 -50.001 -45c-45.333 -30 -97 -45 -155 -45c-96 0 -176.667 34 -242 102s-98 154 -98 258s32.667 190 98 258s146 102 242 102c45.333 0 87 -7.66699 125 -23s69.667 -35.666 95 -60.999s45.833 -52 61.5 -80
s26.834 -56.667 33.501 -86h-135c-38.667 83.333 -98.667 125 -180 125c-61.333 0 -111.666 -21.5 -150.999 -64.5s-59 -99.833 -59 -170.5s19.667 -127.5 59 -170.5s89.666 -64.5 150.999 -64.5c30.667 0 58.667 5.66699 84 17s45.333 25.166 60 41.499
s26 32.666 34 48.999s12 30.5 12 42.5v5h-175v100h305v-370h-100zM220 915.001h95c10 -40 31.667 -60 65 -60s55 20 65 60h95c-2.66699 -45.333 -18 -80.833 -46 -106.5s-66 -38.5 -114 -38.5s-86 12.833 -114 38.5s-43.333 61.167 -46 106.5z" />
    <glyph glyph-name="gbreve" unicode="&#x11f;" horiz-adv-x="605" 
d="M55 -25l129.998 -0.000976562c2.66699 -10.667 7 -21 13 -31s17.5 -19.833 34.5 -29.5s37.833 -14.5 62.5 -14.5c36 0 65 10.333 87 31s33 48.667 33 84v70h-5c-8 -9.33301 -19.333 -18.666 -34 -27.999c-27.333 -18 -62.666 -27 -105.999 -27
c-66 0 -120.833 22.833 -164.5 68.5s-65.5 104.5 -65.5 176.5s21.833 130.833 65.5 176.5s98.5 68.5 164.5 68.5c41.333 0 78 -10 110 -30c14.667 -9.33301 26.334 -19.333 35.001 -30h5l10 50h110v-496c0 -67.333 -22.167 -121.5 -66.5 -162.5s-103.833 -61.5 -178.5 -61.5
c-37.333 0 -71 5.33301 -101 16s-53.333 23.667 -70 39s-30.5 32 -41.5 50s-18.333 33.667 -22 47s-5.5 24.333 -5.5 33zM289.998 409.999c-35.333 0 -65 -12.667 -89 -38s-36 -57.666 -36 -96.999s12 -71.666 36 -96.999s53.667 -38 89 -38s65 12.667 89 38
s36 57.666 36 96.999s-12 71.666 -36 96.999s-53.667 38 -89 38zM144.998 724.999h95c10 -40 31.667 -60 65 -60s55 20 65 60h95c-2.66699 -45.333 -18 -80.833 -46 -106.5s-66 -38.5 -114 -38.5s-86 12.833 -114 38.5s-43.333 61.167 -46 106.5z" />
    <glyph glyph-name="Gdotaccent" unicode="&#x120;" horiz-adv-x="765" 
d="M605 0l-10 80.001h-5c-12.667 -16.667 -29.334 -31.667 -50.001 -45c-45.333 -30 -97 -45 -155 -45c-96 0 -176.667 34 -242 102s-98 154 -98 258s32.667 190 98 258s146 102 242 102c45.333 0 87 -7.66699 125 -23s69.667 -35.666 95 -60.999s45.833 -52 61.5 -80
s26.834 -56.667 33.501 -86h-135c-38.667 83.333 -98.667 125 -180 125c-61.333 0 -111.666 -21.5 -150.999 -64.5s-59 -99.833 -59 -170.5s19.667 -127.5 59 -170.5s89.666 -64.5 150.999 -64.5c30.667 0 58.667 5.66699 84 17s45.333 25.166 60 41.499
s26 32.666 34 48.999s12 30.5 12 42.5v5h-175v100h305v-370h-100zM325 785.001v115h115v-115h-115z" />
    <glyph glyph-name="gdotaccent" unicode="&#x121;" horiz-adv-x="605" 
d="M55 -25l129.998 -0.000976562c2.66699 -10.667 7 -21 13 -31s17.5 -19.833 34.5 -29.5s37.833 -14.5 62.5 -14.5c36 0 65 10.333 87 31s33 48.667 33 84v70h-5c-8 -9.33301 -19.333 -18.666 -34 -27.999c-27.333 -18 -62.666 -27 -105.999 -27
c-66 0 -120.833 22.833 -164.5 68.5s-65.5 104.5 -65.5 176.5s21.833 130.833 65.5 176.5s98.5 68.5 164.5 68.5c41.333 0 78 -10 110 -30c14.667 -9.33301 26.334 -19.333 35.001 -30h5l10 50h110v-496c0 -67.333 -22.167 -121.5 -66.5 -162.5s-103.833 -61.5 -178.5 -61.5
c-37.333 0 -71 5.33301 -101 16s-53.333 23.667 -70 39s-30.5 32 -41.5 50s-18.333 33.667 -22 47s-5.5 24.333 -5.5 33zM289.998 409.999c-35.333 0 -65 -12.667 -89 -38s-36 -57.666 -36 -96.999s12 -71.666 36 -96.999s53.667 -38 89 -38s65 12.667 89 38
s36 57.666 36 96.999s-12 71.666 -36 96.999s-53.667 38 -89 38zM244.998 594.999v115h115v-115h-115z" />
    <glyph glyph-name="Gcommaaccent" unicode="&#x122;" horiz-adv-x="765" 
d="M605 0l-10 80.001h-5c-12.667 -16.667 -29.334 -31.667 -50.001 -45c-45.333 -30 -97 -45 -155 -45c-96 0 -176.667 34 -242 102s-98 154 -98 258s32.667 190 98 258s146 102 242 102c45.333 0 87 -7.66699 125 -23s69.667 -35.666 95 -60.999s45.833 -52 61.5 -80
s26.834 -56.667 33.501 -86h-135c-38.667 83.333 -98.667 125 -180 125c-61.333 0 -111.666 -21.5 -150.999 -64.5s-59 -99.833 -59 -170.5s19.667 -127.5 59 -170.5s89.666 -64.5 150.999 -64.5c30.667 0 58.667 5.66699 84 17s45.333 25.166 60 41.499
s26 32.666 34 48.999s12 30.5 12 42.5v5h-175v100h305v-370h-100zM285 -239.999l40 170h115l-60 -170h-95z" />
    <glyph glyph-name="gcommaaccent" unicode="&#x123;" horiz-adv-x="605" 
d="M245 580l60 170h95l-40 -170h-115zM55 -25l129.998 -0.000976562c2.66699 -10.667 7 -21 13 -31s17.5 -19.833 34.5 -29.5s37.833 -14.5 62.5 -14.5c36 0 65 10.333 87 31s33 48.667 33 84v70h-5c-8 -9.33301 -19.333 -18.666 -34 -27.999
c-27.333 -18 -62.666 -27 -105.999 -27c-66 0 -120.833 22.833 -164.5 68.5s-65.5 104.5 -65.5 176.5s21.833 130.833 65.5 176.5s98.5 68.5 164.5 68.5c41.333 0 78 -10 110 -30c14.667 -9.33301 26.334 -19.333 35.001 -30h5l10 50h110v-496
c0 -67.333 -22.167 -121.5 -66.5 -162.5s-103.833 -61.5 -178.5 -61.5c-37.333 0 -71 5.33301 -101 16s-53.333 23.667 -70 39s-30.5 32 -41.5 50s-18.333 33.667 -22 47s-5.5 24.333 -5.5 33zM289.998 409.999c-35.333 0 -65 -12.667 -89 -38s-36 -57.666 -36 -96.999
s12 -71.666 36 -96.999s53.667 -38 89 -38s65 12.667 89 38s36 57.666 36 96.999s-12 71.666 -36 96.999s-53.667 38 -89 38z" />
    <glyph glyph-name="Hcircumflex" unicode="&#x124;" horiz-adv-x="725" 
d="M75 0v700h130v-280h315v280h130v-700h-130v290h-315v-290h-130zM190 770l120 145h110l120 -145h-115l-60 75l-60 -75h-115z" />
    <glyph glyph-name="hcircumflex" unicode="&#x125;" horiz-adv-x="600" 
d="M70 0v700h125v-240h5c8 10 19.333 20 34 30c30.667 20 66 30 106 30c58 0 105.833 -19.833 143.5 -59.5s56.5 -91.5 56.5 -155.5v-305h-125v295c0 32.667 -10.167 59.167 -30.5 79.5s-46.833 30.5 -79.5 30.5s-59.167 -10.167 -79.5 -30.5s-30.5 -46.833 -30.5 -79.5
v-295h-125zM135 770l120 145h110l120 -145h-115l-60 75l-60 -75h-115z" />
    <glyph glyph-name="Hbar" unicode="&#x126;" horiz-adv-x="775" 
d="M100 0v495h-90v120h90v85h130v-85h315v85h130v-85h90v-120h-90v-495h-130v290h-315v-290h-130zM230 420h315v75h-315v-75z" />
    <glyph glyph-name="hbar" unicode="&#x127;" horiz-adv-x="610" 
d="M80 0v525h-80v110h80v75h125v-75h160v-110h-160v-125h5c8 10 19.333 20 34 30c30.667 20 66 30 106 30c58 0 105.833 -19.833 143.5 -59.5s56.5 -91.5 56.5 -155.5v-245h-125v235c0 32.667 -10.167 59.167 -30.5 79.5s-46.833 30.5 -79.5 30.5
s-59.167 -10.167 -79.5 -30.5s-30.5 -46.833 -30.5 -79.5v-235h-125z" />
    <glyph glyph-name="Imacron" unicode="&#x12a;" horiz-adv-x="280" 
d="M75 0v700h130v-700h-130zM-15 795v95h310v-95h-310z" />
    <glyph glyph-name="imacron" unicode="&#x12b;" horiz-adv-x="255" 
d="M65 0v510h125v-510h-125zM-25 605v95h310v-95h-310z" />
    <glyph glyph-name="Ibreve" unicode="&#x12c;" horiz-adv-x="280" 
d="M75 0v700h130v-700h-130zM-20 915h95c10 -40 31.667 -60 65 -60s55 20 65 60h95c-2.66699 -45.333 -18 -80.833 -46 -106.5s-66 -38.5 -114 -38.5s-86 12.833 -114 38.5s-43.333 61.167 -46 106.5z" />
    <glyph glyph-name="ibreve" unicode="&#x12d;" horiz-adv-x="255" 
d="M65 0v510h125v-510h-125zM-30 725h95c10 -40 31.667 -60 65 -60s55 20 65 60h95c-2.66699 -45.333 -18 -80.833 -46 -106.5s-66 -38.5 -114 -38.5s-86 12.833 -114 38.5s-43.333 61.167 -46 106.5z" />
    <glyph glyph-name="Iogonek" unicode="&#x12e;" horiz-adv-x="280" 
d="M170 -175l-25 0.00195312c-41.333 0 -72.5 8.5 -93.5 25.5s-31.5 40.167 -31.5 69.5c0 25.333 9 45.666 27 60.999c10 8.66699 19.333 15 28 19v700h130v-700h-35c-36.667 -18.667 -55 -40.334 -55 -65.001c0 -23.333 15 -35 45 -35h10v-75z" />
    <glyph glyph-name="iogonek" unicode="&#x12f;" horiz-adv-x="255" 
d="M160 -175l-25 0.00195312c-41.333 0 -72.5 8.5 -93.5 25.5s-31.5 40.167 -31.5 69.5c0 25.333 9 45.666 27 60.999c10 8.66699 19.333 15 28 19v510h125v-510h-30c-36.667 -18.667 -55 -40.334 -55 -65.001c0 -23.333 15 -35 45 -35h10v-75zM60 590.002v120h135v-120
h-135z" />
    <glyph glyph-name="Idot" unicode="&#x130;" horiz-adv-x="280" 
d="M75 0v700h130v-700h-130zM85 785v115h115v-115h-115z" />
    <glyph glyph-name="dotlessi" unicode="&#x131;" horiz-adv-x="255" 
d="M65 0v510h125v-510h-125z" />
    <glyph glyph-name="uni0132" unicode="&#x132;" horiz-adv-x="675" 
d="M75 0v700h130v-700h-130zM275 0v125h155c30 0 45 16.667 45 50v525h130v-560c0 -93.333 -46.667 -140 -140 -140h-190z" />
    <glyph glyph-name="uni0133" unicode="&#x133;" horiz-adv-x="510" 
d="M65 0v510h125v-510h-125zM60 590v120h135v-120h-135zM205 -200v115h80c23.333 0 35 11.667 35 35v560h125v-590c0 -36 -11.833 -65 -35.5 -87s-55.167 -33 -94.5 -33h-110zM315 590v120h135v-120h-135z" />
    <glyph glyph-name="Jcircumflex" unicode="&#x134;" horiz-adv-x="410" 
d="M10 0v125h155c30 0 45 16.667 45 50v525h130v-560c0 -93.333 -46.667 -140 -140 -140h-190zM100 770l120 145h110l120 -145h-115l-60 75l-60 -75h-115z" />
    <glyph glyph-name="jcircumflex" unicode="&#x135;" horiz-adv-x="255" 
d="M-50 -200v115h80c23.333 0 35 11.667 35 35v560h125v-590c0 -36 -11.833 -65 -35.5 -87s-55.167 -33 -94.5 -33h-110zM-45 580l120 145h110l120 -145h-115l-60 75l-60 -75h-115z" />
    <glyph glyph-name="Kcommaaccent" unicode="&#x136;" horiz-adv-x="605" 
d="M75 0v700h130v-315l240 315h160l-265 -345l285 -355h-160l-260 325v-325h-130zM235 -240l40 170h115l-60 -170h-95z" />
    <glyph glyph-name="kcommaaccent" unicode="&#x137;" horiz-adv-x="525" 
d="M70 0v700h125v-420l190 230h145l-210 -250l220 -260h-145l-200 240v-240h-125zM195 -240l40 170h115l-60 -170h-95z" />
    <glyph glyph-name="Lacute" unicode="&#x139;" horiz-adv-x="555" 
d="M75 0v700h130v-575h330v-125h-460zM85 770l95 145h130l-120 -145h-105z" />
    <glyph glyph-name="lacute" unicode="&#x13a;" horiz-adv-x="265" 
d="M70 0v700h125v-700h-125zM85 770l95 145h130l-120 -145h-105z" />
    <glyph glyph-name="Lcommaaccent" unicode="&#x13b;" horiz-adv-x="555" 
d="M75 0v700h130v-575h330v-125h-460zM210 -240l40 170h115l-60 -170h-95z" />
    <glyph glyph-name="lcommaaccent" unicode="&#x13c;" horiz-adv-x="265" 
d="M70 0v700h125v-700h-125zM40 -240l40 170h115l-60 -170h-95z" />
    <glyph glyph-name="Lcaron" unicode="&#x13d;" horiz-adv-x="555" 
d="M75 0v700h130v-575h330v-125h-460zM255 530l40 170h115l-60 -170h-95z" />
    <glyph glyph-name="lcaron" unicode="&#x13e;" horiz-adv-x="360" 
d="M70 0v700h125v-700h-125zM240 530l40 170h115l-60 -170h-95z" />
    <glyph glyph-name="Ldot" unicode="&#x13f;" horiz-adv-x="555" 
d="M335 320v140h140v-140h-140zM75 0v700h130v-575h330v-125h-460z" />
    <glyph glyph-name="ldot" unicode="&#x140;" horiz-adv-x="430" 
d="M275 300v140h140v-140h-140zM70 0v700h125v-700h-125z" />
    <glyph glyph-name="Lslash" unicode="&#x141;" horiz-adv-x="575" 
d="M95 0v270l-80 -30v125l80 30v305h130v-256l160 61v-125l-160 -61v-194h330v-125h-460z" />
    <glyph glyph-name="lslash" unicode="&#x142;" horiz-adv-x="305" 
d="M90 0v275l-75 -30v115l75 30v310h125v-260l75 30v-115l-75 -30v-325h-125z" />
    <glyph glyph-name="Nacute" unicode="&#x143;" horiz-adv-x="730" 
d="M75 0v700h175l255 -485h20v485h130v-700h-175l-255 485h-20v-485h-130zM315 770l95 145h130l-120 -145h-105z" />
    <glyph glyph-name="nacute" unicode="&#x144;" horiz-adv-x="595" 
d="M65 0v510h115l10 -50h5c8 10 19.333 20 34 30c30.667 20 66 30 106 30c58 0 105.833 -19.833 143.5 -59.5s56.5 -91.5 56.5 -155.5v-305h-125v295c0 32.667 -10.167 59.167 -30.5 79.5s-46.833 30.5 -79.5 30.5s-59.167 -10.167 -79.5 -30.5s-30.5 -46.833 -30.5 -79.5
v-295h-125zM255 580l95 145h130l-120 -145h-105z" />
    <glyph glyph-name="Ncommaaccent" unicode="&#x145;" horiz-adv-x="730" 
d="M75 0v700h175l255 -485h20v485h130v-700h-175l-255 485h-20v-485h-130zM270 -240l40 170h115l-60 -170h-95z" />
    <glyph glyph-name="ncommaaccent" unicode="&#x146;" horiz-adv-x="595" 
d="M65 0v510h115l10 -50h5c8 10 19.333 20 34 30c30.667 20 66 30 106 30c58 0 105.833 -19.833 143.5 -59.5s56.5 -91.5 56.5 -155.5v-305h-125v295c0 32.667 -10.167 59.167 -30.5 79.5s-46.833 30.5 -79.5 30.5s-59.167 -10.167 -79.5 -30.5s-30.5 -46.833 -30.5 -79.5
v-295h-125zM205 -240l40 170h115l-60 -170h-95z" />
    <glyph glyph-name="Ncaron" unicode="&#x147;" horiz-adv-x="730" 
d="M75 0v700h175l255 -485h20v485h130v-700h-175l-255 485h-20v-485h-130zM310 770l-120 145h115l60 -75l60 75h115l-120 -145h-110z" />
    <glyph glyph-name="ncaron" unicode="&#x148;" horiz-adv-x="595" 
d="M65 0v510h115l10 -50h5c8 10 19.333 20 34 30c30.667 20 66 30 106 30c58 0 105.833 -19.833 143.5 -59.5s56.5 -91.5 56.5 -155.5v-305h-125v295c0 32.667 -10.167 59.167 -30.5 79.5s-46.833 30.5 -79.5 30.5s-59.167 -10.167 -79.5 -30.5s-30.5 -46.833 -30.5 -79.5
v-295h-125zM250 580l-120 145h115l60 -75l60 75h115l-120 -145h-110z" />
    <glyph glyph-name="napostrophe" unicode="&#x149;" horiz-adv-x="640" 
d="M110 0v510h115l10 -50h5c8 10 19.333 20 34 30c30.667 20 66 30 106 30c58 0 105.833 -19.833 143.5 -59.5s56.5 -91.5 56.5 -155.5v-305h-125v295c0 32.667 -10.167 59.167 -30.5 79.5s-46.833 30.5 -79.5 30.5s-59.167 -10.167 -79.5 -30.5s-30.5 -46.833 -30.5 -79.5
v-295h-125zM0 555l40 170h115l-60 -170h-95z" />
    <glyph glyph-name="Eng" unicode="&#x14a;" horiz-adv-x="730" 
d="M75 0v700h175l255 -485h20v485h130v-780c0 -45.333 -12 -80 -36 -104s-58.667 -36 -104 -36h-140v125h100c33.333 0 50 16.667 50 50v45h-45l-255 485h-20v-485h-130z" />
    <glyph glyph-name="eng" unicode="&#x14b;" horiz-adv-x="595" 
d="M65 0v510h115l10 -50h5c8 10 19.333 20 34 30c30.667 20 66 30 106 30c58 0 105.833 -19.833 143.5 -59.5s56.5 -91.5 56.5 -155.5v-365c0 -93.333 -50 -140 -150 -140h-95v115h75c30 0 45 15 45 45v335c0 32.667 -10.167 59.167 -30.5 79.5s-46.833 30.5 -79.5 30.5
s-59.167 -10.167 -79.5 -30.5s-30.5 -46.833 -30.5 -79.5v-295h-125z" />
    <glyph glyph-name="Omacron" unicode="&#x14c;" horiz-adv-x="770" 
d="M385 115c61.333 0 111.666 21.5 150.999 64.5s59 99.833 59 170.5s-19.667 127.5 -59 170.5s-89.666 64.5 -150.999 64.5s-111.666 -21.5 -150.999 -64.5s-59 -99.833 -59 -170.5s19.667 -127.5 59 -170.5s89.666 -64.5 150.999 -64.5zM385 710
c96 0 176.667 -34 242 -102s98 -154 98 -258s-32.667 -190 -98 -258s-146 -102 -242 -102s-176.667 34 -242 102s-98 154 -98 258s32.667 190 98 258s146 102 242 102zM230 795v95h310v-95h-310z" />
    <glyph glyph-name="omacron" unicode="&#x14d;" horiz-adv-x="600" 
d="M300 105c38 0 70 14 96 42s39 64 39 108s-13 80 -39 108s-58 42 -96 42s-70 -14 -96 -42s-39 -64 -39 -108s13 -80 39 -108s58 -42 96 -42zM300 520c75.333 0 137.5 -24.833 186.5 -74.5s73.5 -113.167 73.5 -190.5s-24.5 -140.833 -73.5 -190.5
s-111.167 -74.5 -186.5 -74.5s-137.5 24.833 -186.5 74.5s-73.5 113.167 -73.5 190.5s24.5 140.833 73.5 190.5s111.167 74.5 186.5 74.5zM145 605v95h310v-95h-310z" />
    <glyph glyph-name="Obreve" unicode="&#x14e;" horiz-adv-x="770" 
d="M385 115c61.333 0 111.666 21.5 150.999 64.5s59 99.833 59 170.5s-19.667 127.5 -59 170.5s-89.666 64.5 -150.999 64.5s-111.666 -21.5 -150.999 -64.5s-59 -99.833 -59 -170.5s19.667 -127.5 59 -170.5s89.666 -64.5 150.999 -64.5zM385 710
c96 0 176.667 -34 242 -102s98 -154 98 -258s-32.667 -190 -98 -258s-146 -102 -242 -102s-176.667 34 -242 102s-98 154 -98 258s32.667 190 98 258s146 102 242 102zM225 915h95c10 -40 31.667 -60 65 -60s55 20 65 60h95c-2.66699 -45.333 -18 -80.833 -46 -106.5
s-66 -38.5 -114 -38.5s-86 12.833 -114 38.5s-43.333 61.167 -46 106.5z" />
    <glyph glyph-name="obreve" unicode="&#x14f;" horiz-adv-x="600" 
d="M300 105c38 0 70 14 96 42s39 64 39 108s-13 80 -39 108s-58 42 -96 42s-70 -14 -96 -42s-39 -64 -39 -108s13 -80 39 -108s58 -42 96 -42zM300 520c75.333 0 137.5 -24.833 186.5 -74.5s73.5 -113.167 73.5 -190.5s-24.5 -140.833 -73.5 -190.5
s-111.167 -74.5 -186.5 -74.5s-137.5 24.833 -186.5 74.5s-73.5 113.167 -73.5 190.5s24.5 140.833 73.5 190.5s111.167 74.5 186.5 74.5zM140 725h95c10 -40 31.667 -60 65 -60s55 20 65 60h95c-2.66699 -45.333 -18 -80.833 -46 -106.5s-66 -38.5 -114 -38.5
s-86 12.833 -114 38.5s-43.333 61.167 -46 106.5z" />
    <glyph glyph-name="Ohungarumlaut" unicode="&#x150;" horiz-adv-x="770" 
d="M385 115c61.333 0 111.666 21.5 150.999 64.5s59 99.833 59 170.5s-19.667 127.5 -59 170.5s-89.666 64.5 -150.999 64.5s-111.666 -21.5 -150.999 -64.5s-59 -99.833 -59 -170.5s19.667 -127.5 59 -170.5s89.666 -64.5 150.999 -64.5zM385 710
c96 0 176.667 -34 242 -102s98 -154 98 -258s-32.667 -190 -98 -258s-146 -102 -242 -102s-176.667 34 -242 102s-98 154 -98 258s32.667 190 98 258s146 102 242 102zM250 770l100 145h115l-115 -145h-100zM425 770l100 145h115l-115 -145h-100z" />
    <glyph glyph-name="ohungarumlaut" unicode="&#x151;" horiz-adv-x="600" 
d="M300 105c38 0 70 14 96 42s39 64 39 108s-13 80 -39 108s-58 42 -96 42s-70 -14 -96 -42s-39 -64 -39 -108s13 -80 39 -108s58 -42 96 -42zM300 520c75.333 0 137.5 -24.833 186.5 -74.5s73.5 -113.167 73.5 -190.5s-24.5 -140.833 -73.5 -190.5
s-111.167 -74.5 -186.5 -74.5s-137.5 24.833 -186.5 74.5s-73.5 113.167 -73.5 190.5s24.5 140.833 73.5 190.5s111.167 74.5 186.5 74.5zM165 580l100 145h115l-115 -145h-100zM340 580l100 145h115l-115 -145h-100z" />
    <glyph glyph-name="OE" unicode="&#x152;" horiz-adv-x="1095" 
d="M375 115c55.333 0 101.666 21.833 138.999 65.5s56 100.167 56 169.5s-18.667 125.833 -56 169.5s-83.666 65.5 -138.999 65.5c-56 0 -103.333 -21.667 -142 -65s-58 -100 -58 -170s19.333 -126.667 58 -170s86 -65 142 -65zM570 0v70h-5
c-48.667 -53.333 -112 -80 -190 -80c-92 0 -170 34 -234 102s-96 154 -96 258s32 190 96 258s142 102 234 102c78 0 141.333 -26.667 190 -80h5v70h470v-120h-340v-170h320v-120h-320v-170h340v-120h-470z" />
    <glyph glyph-name="oe" unicode="&#x153;" horiz-adv-x="955" 
d="M770 150l129.999 0.000976562c-3.33301 -12.667 -9.66602 -26.834 -18.999 -42.501s-22.5 -33 -39.5 -52s-40.5 -34.667 -70.5 -47s-63.667 -18.5 -101 -18.5c-46.667 0 -87.834 10.333 -123.501 31s-59.5 40.334 -71.5 59.001
c-12.667 -19.333 -35.167 -39.166 -67.5 -59.499s-71.5 -30.5 -117.5 -30.5c-70.667 0 -130 25 -178 75s-72 113.333 -72 190s24 140 72 190s107.333 75 178 75c76.667 0 138.334 -31.667 185.001 -95c14 22 38 43.333 72 64s75 31 123 31c70 0 128.333 -24.333 175 -73
s70 -109.334 70 -182.001c0 -6 -1 -18 -3 -36l-2 -14h-365c6 -36.667 19.667 -65.834 41 -87.501s49.333 -32.5 84 -32.5c48 0 81.333 18.333 100 55zM289.999 105.001c34 0 63.333 14.167 88 42.5s37 64.166 37 107.499s-12.333 79.166 -37 107.499s-54 42.5 -88 42.5
s-63.333 -14.167 -88 -42.5s-37 -64.166 -37 -107.499s12.333 -79.166 37 -107.499s54 -42.5 88 -42.5zM544.999 295.001l245 -0.000976562c-5.33301 38 -18.5 67.5 -39.5 88.5s-47.833 31.5 -80.5 31.5c-34 0 -62.667 -11.667 -86 -35s-36.333 -51.666 -39 -84.999z" />
    <glyph glyph-name="Racute" unicode="&#x154;" horiz-adv-x="665" 
d="M75 0v700h320c62.667 0 115 -21.833 157 -65.5s63 -100.167 63 -169.5c0 -65.333 -19.833 -118.5 -59.5 -159.5s-88.167 -62.833 -145.5 -65.5l225 -240h-165l-225 240h-40v-240h-130zM205 360l185 0.000976562c25.333 0 47.5 10.167 66.5 30.5s28.5 45.166 28.5 74.499
c0 32 -9.33301 58.333 -28 79s-41 31 -67 31h-185v-215zM280 770.001l95 145h130l-120 -145h-105z" />
    <glyph glyph-name="racute" unicode="&#x155;" horiz-adv-x="385" 
d="M65 0l-0.000976562 510h105l10 -45h5c6 8 13.333 15.333 22 22c20.667 15.333 43.334 23 68.001 23h100v-120h-90c-63.333 0 -95 -31.667 -95 -95v-295h-125zM174.999 580l95 145h130l-120 -145h-105z" />
    <glyph glyph-name="Rcommaaccent" unicode="&#x156;" horiz-adv-x="665" 
d="M75 0v700h320c62.667 0 115 -21.833 157 -65.5s63 -100.167 63 -169.5c0 -65.333 -19.833 -118.5 -59.5 -159.5s-88.167 -62.833 -145.5 -65.5l225 -240h-165l-225 240h-40v-240h-130zM205 360l185 0.000976562c25.333 0 47.5 10.167 66.5 30.5s28.5 45.166 28.5 74.499
c0 32 -9.33301 58.333 -28 79s-41 31 -67 31h-185v-215zM235 -239.999l40 170h115l-60 -170h-95z" />
    <glyph glyph-name="rcommaaccent" unicode="&#x157;" horiz-adv-x="385" 
d="M65 0l-0.000976562 510h105l10 -45h5c6 8 13.333 15.333 22 22c20.667 15.333 43.334 23 68.001 23h100v-120h-90c-63.333 0 -95 -31.667 -95 -95v-295h-125zM29.999 -240l40 170h115l-60 -170h-95z" />
    <glyph glyph-name="Rcaron" unicode="&#x158;" horiz-adv-x="665" 
d="M75 0v700h320c62.667 0 115 -21.833 157 -65.5s63 -100.167 63 -169.5c0 -65.333 -19.833 -118.5 -59.5 -159.5s-88.167 -62.833 -145.5 -65.5l225 -240h-165l-225 240h-40v-240h-130zM205 360l185 0.000976562c25.333 0 47.5 10.167 66.5 30.5s28.5 45.166 28.5 74.499
c0 32 -9.33301 58.333 -28 79s-41 31 -67 31h-185v-215zM275 770.001l-120 145h115l60 -75l60 75h115l-120 -145h-110z" />
    <glyph glyph-name="rcaron" unicode="&#x159;" horiz-adv-x="385" 
d="M65 0l-0.000976562 510h105l10 -45h5c6 8 13.333 15.333 22 22c20.667 15.333 43.334 23 68.001 23h100v-120h-90c-63.333 0 -95 -31.667 -95 -95v-295h-125zM169.999 580l-120 145h115l60 -75l60 75h115l-120 -145h-110z" />
    <glyph glyph-name="Sacute" unicode="&#x15a;" horiz-adv-x="635" 
d="M35 220l130 0.00292969c0 -31.333 14.167 -57.5 42.5 -78.5s65.833 -31.5 112.5 -31.5c47.333 0 82.5 8.16699 105.5 24.5s34.5 38.166 34.5 65.499c0 46.667 -38.333 76.667 -115 90l-120 20c-116.667 19.333 -175 82.666 -175 189.999c0 60 23.333 110 70 150
s110 60 190 60c86.667 0 153.334 -21.333 200.001 -64s70 -98 70 -166h-130c0 31.333 -12.333 57.5 -37 78.5s-59 31.5 -103 31.5c-43.333 0 -75.833 -8.16699 -97.5 -24.5s-32.5 -38.166 -32.5 -65.499c0 -21.333 7 -38.5 21 -51.5s38.667 -22.5 74 -28.5l110 -20
c71.333 -12.667 123.333 -34.834 156 -66.501s49 -76.167 49 -133.5c0 -62.667 -23.333 -113.334 -70 -152.001s-113.334 -58 -200.001 -58c-88 0 -157.5 21.5 -208.5 64.5s-76.5 98.167 -76.5 165.5zM265 770.003l95 145h130l-120 -145h-105z" />
    <glyph glyph-name="sacute" unicode="&#x15b;" horiz-adv-x="505" 
d="M30 155l120.001 0.000976562c0 -15.333 8.83301 -30 26.5 -44s42.167 -21 73.5 -21c63.333 0 95 18.333 95 55c0 16 -5 28.5 -15 37.5s-28.333 15.5 -55 19.5l-80 13c-110 18 -165 66.333 -165 145c0 44.667 19 82.5 57 113.5s90.667 46.5 158 46.5s120 -18.333 158 -55
s57 -73.334 57 -110.001h-120c0 16.667 -8.66699 31.667 -26 45s-40.333 20 -69 20s-50.834 -5.83301 -66.501 -17.5s-23.5 -25.834 -23.5 -42.501c0 -24.667 23.333 -40.334 70 -47.001l85 -13c106.667 -16 160 -67.667 160 -155c0 -44.667 -18.833 -81.667 -56.5 -111
s-92.167 -44 -163.5 -44c-36 0 -67.833 4.66699 -95.5 14s-49 20.5 -64 33.5s-27.333 27.833 -37 44.5s-16 30.834 -19 42.501s-4.5 21.834 -4.5 30.501zM200.001 580.001l95 145h130l-120 -145h-105z" />
    <glyph glyph-name="Scircumflex" unicode="&#x15c;" horiz-adv-x="635" 
d="M35 220l130 0.00292969c0 -31.333 14.167 -57.5 42.5 -78.5s65.833 -31.5 112.5 -31.5c47.333 0 82.5 8.16699 105.5 24.5s34.5 38.166 34.5 65.499c0 46.667 -38.333 76.667 -115 90l-120 20c-116.667 19.333 -175 82.666 -175 189.999c0 60 23.333 110 70 150
s110 60 190 60c86.667 0 153.334 -21.333 200.001 -64s70 -98 70 -166h-130c0 31.333 -12.333 57.5 -37 78.5s-59 31.5 -103 31.5c-43.333 0 -75.833 -8.16699 -97.5 -24.5s-32.5 -38.166 -32.5 -65.499c0 -21.333 7 -38.5 21 -51.5s38.667 -22.5 74 -28.5l110 -20
c71.333 -12.667 123.333 -34.834 156 -66.501s49 -76.167 49 -133.5c0 -62.667 -23.333 -113.334 -70 -152.001s-113.334 -58 -200.001 -58c-88 0 -157.5 21.5 -208.5 64.5s-76.5 98.167 -76.5 165.5zM140 770.003l120 145h110l120 -145h-115l-60 75l-60 -75h-115z" />
    <glyph glyph-name="scircumflex" unicode="&#x15d;" horiz-adv-x="505" 
d="M30 155l120.001 0.000976562c0 -15.333 8.83301 -30 26.5 -44s42.167 -21 73.5 -21c63.333 0 95 18.333 95 55c0 16 -5 28.5 -15 37.5s-28.333 15.5 -55 19.5l-80 13c-110 18 -165 66.333 -165 145c0 44.667 19 82.5 57 113.5s90.667 46.5 158 46.5s120 -18.333 158 -55
s57 -73.334 57 -110.001h-120c0 16.667 -8.66699 31.667 -26 45s-40.333 20 -69 20s-50.834 -5.83301 -66.501 -17.5s-23.5 -25.834 -23.5 -42.501c0 -24.667 23.333 -40.334 70 -47.001l85 -13c106.667 -16 160 -67.667 160 -155c0 -44.667 -18.833 -81.667 -56.5 -111
s-92.167 -44 -163.5 -44c-36 0 -67.833 4.66699 -95.5 14s-49 20.5 -64 33.5s-27.333 27.833 -37 44.5s-16 30.834 -19 42.501s-4.5 21.834 -4.5 30.501zM75.001 580.001l120 145h110l120 -145h-115l-60 75l-60 -75h-115z" />
    <glyph glyph-name="Scedilla" unicode="&#x15e;" horiz-adv-x="635" 
d="M235 -225v75h45c26.667 0 40 10 40 30s-13.333 30 -40 30h-30v40l19 43c-72.667 8 -129.834 33 -171.501 75s-62.5 92.667 -62.5 152h130c0 -31.333 14.167 -57.5 42.5 -78.5s65.833 -31.5 112.5 -31.5c47.333 0 82.5 8.16699 105.5 24.5s34.5 38.166 34.5 65.499
c0 46.667 -38.333 76.667 -115 90l-120 20c-116.667 19.333 -175 82.666 -175 189.999c0 60 23.333 110 70 150s110 60 190 60c86.667 0 153.334 -21.333 200.001 -64s70 -98 70 -166h-130c0 31.333 -12.333 57.5 -37 78.5s-59 31.5 -103 31.5
c-43.333 0 -75.833 -8.16699 -97.5 -24.5s-32.5 -38.166 -32.5 -65.499c0 -21.333 7 -38.5 21 -51.5s38.667 -22.5 74 -28.5l110 -20c71.333 -12.667 123.333 -34.834 156 -66.501s49 -76.167 49 -133.5c0 -58 -20.333 -106 -61 -144s-99.334 -59.667 -176.001 -65l-18 -41
c8.66699 -1.33301 17.834 -4.16602 27.501 -8.49902s20 -13.333 31 -27s16.5 -30.167 16.5 -49.5c0 -27.333 -10.167 -49.166 -30.5 -65.499s-48.5 -24.5 -84.5 -24.5h-60z" />
    <glyph glyph-name="scedilla" unicode="&#x15f;" horiz-adv-x="505" 
d="M170 -225v75h45c26.667 0 40 10 40 30s-13.333 30 -40 30h-30v40l19 43c-28 3.33301 -53 10.333 -75 21s-39 22.167 -51 34.5s-21.833 25.833 -29.5 40.5s-12.667 27.334 -15 38.001s-3.5 20 -3.5 28h120c0 -15.333 8.83301 -30 26.5 -44s42.167 -21 73.5 -21
c63.333 0 95 18.333 95 55c0 16 -5 28.5 -15 37.5s-28.333 15.5 -55 19.5l-80 13c-110 18 -165 66.333 -165 145c0 44.667 19 82.5 57 113.5s90.667 46.5 158 46.5s120 -18.333 158 -55s57 -73.334 57 -110.001h-120c0 16.667 -8.66699 31.667 -26 45s-40.333 20 -69 20
s-50.834 -5.83301 -66.501 -17.5s-23.5 -25.834 -23.5 -42.501c0 -24.667 23.333 -40.334 70 -47.001l85 -13c106.667 -16 160 -67.667 160 -155c0 -41.333 -15.333 -75.833 -46 -103.5s-76 -44.167 -136 -49.5l-18 -42c8.66699 -1.33301 17.834 -4.16602 27.501 -8.49902
s20 -13.333 31 -27s16.5 -30.167 16.5 -49.5c0 -27.333 -10.167 -49.166 -30.5 -65.499s-48.5 -24.5 -84.5 -24.5h-60z" />
    <glyph glyph-name="Scaron" unicode="&#x160;" horiz-adv-x="635" 
d="M35 220l130 0.00292969c0 -31.333 14.167 -57.5 42.5 -78.5s65.833 -31.5 112.5 -31.5c47.333 0 82.5 8.16699 105.5 24.5s34.5 38.166 34.5 65.499c0 46.667 -38.333 76.667 -115 90l-120 20c-116.667 19.333 -175 82.666 -175 189.999c0 60 23.333 110 70 150
s110 60 190 60c86.667 0 153.334 -21.333 200.001 -64s70 -98 70 -166h-130c0 31.333 -12.333 57.5 -37 78.5s-59 31.5 -103 31.5c-43.333 0 -75.833 -8.16699 -97.5 -24.5s-32.5 -38.166 -32.5 -65.499c0 -21.333 7 -38.5 21 -51.5s38.667 -22.5 74 -28.5l110 -20
c71.333 -12.667 123.333 -34.834 156 -66.501s49 -76.167 49 -133.5c0 -62.667 -23.333 -113.334 -70 -152.001s-113.334 -58 -200.001 -58c-88 0 -157.5 21.5 -208.5 64.5s-76.5 98.167 -76.5 165.5zM260 770.003l-120 145h115l60 -75l60 75h115l-120 -145h-110z" />
    <glyph glyph-name="scaron" unicode="&#x161;" horiz-adv-x="505" 
d="M30 155l120.001 0.000976562c0 -15.333 8.83301 -30 26.5 -44s42.167 -21 73.5 -21c63.333 0 95 18.333 95 55c0 16 -5 28.5 -15 37.5s-28.333 15.5 -55 19.5l-80 13c-110 18 -165 66.333 -165 145c0 44.667 19 82.5 57 113.5s90.667 46.5 158 46.5s120 -18.333 158 -55
s57 -73.334 57 -110.001h-120c0 16.667 -8.66699 31.667 -26 45s-40.333 20 -69 20s-50.834 -5.83301 -66.501 -17.5s-23.5 -25.834 -23.5 -42.501c0 -24.667 23.333 -40.334 70 -47.001l85 -13c106.667 -16 160 -67.667 160 -155c0 -44.667 -18.833 -81.667 -56.5 -111
s-92.167 -44 -163.5 -44c-36 0 -67.833 4.66699 -95.5 14s-49 20.5 -64 33.5s-27.333 27.833 -37 44.5s-16 30.834 -19 42.501s-4.5 21.834 -4.5 30.501zM195.001 580.001l-120 145h115l60 -75l60 75h115l-120 -145h-110z" />
    <glyph glyph-name="uni0162" unicode="&#x162;" horiz-adv-x="590" 
d="M235 -225l-0.000976562 74.998h45c26.667 0 40 10 40 30s-13.333 30 -40 30h-30v40l25 50h-45v575h-210v125h550v-125h-210v-575l-25 -50c8.66699 -1.33301 17.834 -4.16602 27.501 -8.49902s20 -13.333 31 -27s16.5 -30.167 16.5 -49.5
c0 -27.333 -10.167 -49.166 -30.5 -65.499s-48.5 -24.5 -84.5 -24.5h-60z" />
    <glyph glyph-name="uni0163" unicode="&#x163;" horiz-adv-x="390" 
d="M150 -225l-0.000976562 74.998h45c26.667 0 40 10 40 30s-13.333 30 -40 30h-30v40l22 55c-54.667 14.667 -82 53 -82 115v270h-80v120h80v145h125v-145h115v-120h-115v-245c0 -23.333 11.667 -35 35 -35h80v-110h-75l-20 -50
c8.66699 -1.33301 17.834 -4.16602 27.501 -8.49902s20 -13.333 31 -27s16.5 -30.167 16.5 -49.5c0 -27.333 -10.167 -49.166 -30.5 -65.499s-48.5 -24.5 -84.5 -24.5h-60z" />
    <glyph glyph-name="Tcaron" unicode="&#x164;" horiz-adv-x="590" 
d="M230 0v575h-210v125h550v-125h-210v-575h-130zM240 770l-120 145h115l60 -75l60 75h115l-120 -145h-110z" />
    <glyph glyph-name="tcaron" unicode="&#x165;" horiz-adv-x="455" 
d="M105 120v270h-80v120h80v145h125v-145h115v-120h-115v-245c0 -23.333 11.667 -35 35 -35h80v-110h-110c-42 0 -74.167 10.5 -96.5 31.5s-33.5 50.5 -33.5 88.5zM335 560l40 170h115l-60 -170h-95z" />
    <glyph glyph-name="Tbar" unicode="&#x166;" horiz-adv-x="590" 
d="M230 0v355h-145v125h145v95h-210v125h550v-125h-210v-95h145v-125h-145v-355h-130z" />
    <glyph glyph-name="tbar" unicode="&#x167;" horiz-adv-x="390" 
d="M105 120v95h-80v120h80v55h-80v120h80v160h125v-160h115v-120h-115v-55h115v-120h-115v-70c0 -23.333 11.667 -35 35 -35h80v-110h-110c-42 0 -74.167 10.5 -96.5 31.5s-33.5 50.5 -33.5 88.5z" />
    <glyph glyph-name="Umacron" unicode="&#x16a;" horiz-adv-x="720" 
d="M70 285v415h130v-415c0 -49.333 15.333 -90 46 -122s68.667 -48 114 -48s83.333 16 114 48s46 72.667 46 122v415h130v-415c0 -90 -26.333 -161.667 -79 -215s-123 -80 -211 -80s-158.333 26.667 -211 80s-79 125 -79 215zM205 795v95h310v-95h-310z" />
    <glyph glyph-name="umacron" unicode="&#x16b;" horiz-adv-x="600" 
d="M65 205v305h125v-295c0 -32.667 10.167 -59.167 30.5 -79.5s46.833 -30.5 79.5 -30.5s59.167 10.167 79.5 30.5s30.5 46.833 30.5 79.5v295h125v-510h-115l-10 50h-5c-8 -10 -19.333 -20 -34 -30c-30.667 -20 -66 -30 -106 -30c-58 0 -105.833 19.833 -143.5 59.5
s-56.5 91.5 -56.5 155.5zM145 605v95h310v-95h-310z" />
    <glyph glyph-name="Ubreve" unicode="&#x16c;" horiz-adv-x="720" 
d="M70 285v415h130v-415c0 -49.333 15.333 -90 46 -122s68.667 -48 114 -48s83.333 16 114 48s46 72.667 46 122v415h130v-415c0 -90 -26.333 -161.667 -79 -215s-123 -80 -211 -80s-158.333 26.667 -211 80s-79 125 -79 215zM200 915h95c10 -40 31.667 -60 65 -60
s55 20 65 60h95c-2.66699 -45.333 -18 -80.833 -46 -106.5s-66 -38.5 -114 -38.5s-86 12.833 -114 38.5s-43.333 61.167 -46 106.5z" />
    <glyph glyph-name="ubreve" unicode="&#x16d;" horiz-adv-x="600" 
d="M65 205v305h125v-295c0 -32.667 10.167 -59.167 30.5 -79.5s46.833 -30.5 79.5 -30.5s59.167 10.167 79.5 30.5s30.5 46.833 30.5 79.5v295h125v-510h-115l-10 50h-5c-8 -10 -19.333 -20 -34 -30c-30.667 -20 -66 -30 -106 -30c-58 0 -105.833 19.833 -143.5 59.5
s-56.5 91.5 -56.5 155.5zM140 725h95c10 -40 31.667 -60 65 -60s55 20 65 60h95c-2.66699 -45.333 -18 -80.833 -46 -106.5s-66 -38.5 -114 -38.5s-86 12.833 -114 38.5s-43.333 61.167 -46 106.5z" />
    <glyph glyph-name="Uring" unicode="&#x16e;" horiz-adv-x="720" 
d="M70 285v415h130v-415c0 -49.333 15.333 -90 46 -122s68.667 -48 114 -48s83.333 16 114 48s46 72.667 46 122v415h130v-415c0 -90 -26.333 -161.667 -79 -215s-123 -80 -211 -80s-158.333 26.667 -211 80s-79 125 -79 215zM360 810c10.667 0 20 3.66699 28 11
s12 17 12 29s-4 21.667 -12 29s-17.333 11 -28 11s-20 -3.66699 -28 -11s-12 -17 -12 -29s4 -21.667 12 -29s17.333 -11 28 -11zM360 950c29.333 0 53.333 -9.66699 72 -29s28 -43 28 -71s-9.33301 -51.667 -28 -71s-42.667 -29 -72 -29s-53.333 9.66699 -72 29
s-28 43 -28 71s9.33301 51.667 28 71s42.667 29 72 29z" />
    <glyph glyph-name="uring" unicode="&#x16f;" horiz-adv-x="600" 
d="M65 205v305h125v-295c0 -32.667 10.167 -59.167 30.5 -79.5s46.833 -30.5 79.5 -30.5s59.167 10.167 79.5 30.5s30.5 46.833 30.5 79.5v295h125v-510h-115l-10 50h-5c-8 -10 -19.333 -20 -34 -30c-30.667 -20 -66 -30 -106 -30c-58 0 -105.833 19.833 -143.5 59.5
s-56.5 91.5 -56.5 155.5zM300 620c10.667 0 20 3.66699 28 11s12 17 12 29s-4 21.667 -12 29s-17.333 11 -28 11s-20 -3.66699 -28 -11s-12 -17 -12 -29s4 -21.667 12 -29s17.333 -11 28 -11zM300 760c29.333 0 53.333 -9.66699 72 -29s28 -43 28 -71
s-9.33301 -51.667 -28 -71s-42.667 -29 -72 -29s-53.333 9.66699 -72 29s-28 43 -28 71s9.33301 51.667 28 71s42.667 29 72 29z" />
    <glyph glyph-name="Uhungarumlaut" unicode="&#x170;" horiz-adv-x="720" 
d="M70 285v415h130v-415c0 -49.333 15.333 -90 46 -122s68.667 -48 114 -48s83.333 16 114 48s46 72.667 46 122v415h130v-415c0 -90 -26.333 -161.667 -79 -215s-123 -80 -211 -80s-158.333 26.667 -211 80s-79 125 -79 215zM220 770l100 145h115l-115 -145h-100zM395 770
l100 145h115l-115 -145h-100z" />
    <glyph glyph-name="uhungarumlaut" unicode="&#x171;" horiz-adv-x="600" 
d="M65 205v305h125v-295c0 -32.667 10.167 -59.167 30.5 -79.5s46.833 -30.5 79.5 -30.5s59.167 10.167 79.5 30.5s30.5 46.833 30.5 79.5v295h125v-510h-115l-10 50h-5c-8 -10 -19.333 -20 -34 -30c-30.667 -20 -66 -30 -106 -30c-58 0 -105.833 19.833 -143.5 59.5
s-56.5 91.5 -56.5 155.5zM165 580l100 145h115l-115 -145h-100zM340 580l100 145h115l-115 -145h-100z" />
    <glyph glyph-name="Uogonek" unicode="&#x172;" horiz-adv-x="720" 
d="M440 -175l-25 -0.00292969c-41.333 0 -72.5 8.5 -93.5 25.5s-31.5 40.167 -31.5 69.5s13.333 53.333 40 72c-78.667 5.33301 -141.667 34.333 -189 87s-71 121.334 -71 206.001v415h130v-415c0 -49.333 15.333 -90 46 -122s68.667 -48 114 -48s83.333 16 114 48
s46 72.667 46 122v415h130v-415c0 -75.333 -19.333 -138.666 -58 -189.999s-91 -83.666 -157 -96.999c-33.333 -18 -50 -39 -50 -63c0 -23.333 15 -35 45 -35h10v-75z" />
    <glyph glyph-name="uogonek" unicode="&#x173;" horiz-adv-x="600" 
d="M65 205v305.002h125v-295c0 -32.667 10.167 -59.167 30.5 -79.5s46.833 -30.5 79.5 -30.5s59.167 10.167 79.5 30.5s30.5 46.833 30.5 79.5v295h125v-510h-20c-36.667 -18.667 -55 -40.334 -55 -65.001c0 -23.333 15 -35 45 -35h10v-75h-25
c-41.333 0 -72.5 8.5 -93.5 25.5s-31.5 40.167 -31.5 69.5c0 25.333 9 45.666 27 60.999c10 8.66699 19.333 15 28 19l-10 50h-5c-8 -10 -19.333 -20 -34 -30c-30.667 -20 -66 -30 -106 -30c-58 0 -105.833 19.833 -143.5 59.5s-56.5 91.5 -56.5 155.5z" />
    <glyph glyph-name="Wcircumflex" unicode="&#x174;" horiz-adv-x="980" 
d="M180 0l-175 700h145l120 -490h20l125 490h150l125 -490h20l120 490h145l-175 -700h-180l-120 480h-20l-120 -480h-180zM315 770l120 145h110l120 -145h-115l-60 75l-60 -75h-115z" />
    <glyph glyph-name="wcircumflex" unicode="&#x175;" horiz-adv-x="790" 
d="M135 0l-130 510h130l85 -335h20l85 335h140l85 -335h20l85 335h130l-130 -510h-165l-85 330h-20l-85 -330h-165zM225 580l120 145h110l120 -145h-115l-60 75l-60 -75h-115z" />
    <glyph glyph-name="Ycircumflex" unicode="&#x176;" horiz-adv-x="620" 
d="M245 0v240l-255 460h145l165 -300h20l165 300h145l-255 -460v-240h-130zM135 770l120 145h110l120 -145h-115l-60 75l-60 -75h-115z" />
    <glyph glyph-name="ycircumflex" unicode="&#x177;" 
d="M60 -200v115h100c20 0 32.667 8.33301 38 25l9 25l-207 545h130l130 -345h20l120 345h130l-215 -610c-12.667 -36.667 -29.5 -62.5 -50.5 -77.5s-54.167 -22.5 -99.5 -22.5h-105zM95 580l120 145h110l120 -145h-115l-60 75l-60 -75h-115z" />
    <glyph glyph-name="Ydieresis" unicode="&#x178;" horiz-adv-x="620" 
d="M245 0v240l-255 460h145l165 -300h20l165 300h145l-255 -460v-240h-130zM345 785v115h115v-115h-115zM160 785v115h115v-115h-115z" />
    <glyph glyph-name="Zacute" unicode="&#x179;" horiz-adv-x="605" 
d="M35 0v115l355 460h-350v125h525v-115l-355 -460h360v-125h-535zM250 770l95 145h130l-120 -145h-105z" />
    <glyph glyph-name="zacute" unicode="&#x17a;" horiz-adv-x="475" 
d="M30 0v110l250 285h-245v115h405v-110l-250 -285h255v-115h-415zM185 580l95 145h130l-120 -145h-105z" />
    <glyph glyph-name="Zdotaccent" unicode="&#x17b;" horiz-adv-x="605" 
d="M35 0v115l355 460h-350v125h525v-115l-355 -460h360v-125h-535zM245 785v115h115v-115h-115z" />
    <glyph glyph-name="zdotaccent" unicode="&#x17c;" horiz-adv-x="475" 
d="M30 0v110l250 285h-245v115h405v-110l-250 -285h255v-115h-415zM180 595v115h115v-115h-115z" />
    <glyph glyph-name="Zcaron" unicode="&#x17d;" horiz-adv-x="605" 
d="M35 0v115l355 460h-350v125h525v-115l-355 -460h360v-125h-535zM250 770l-120 145h115l60 -75l60 75h115l-120 -145h-110z" />
    <glyph glyph-name="zcaron" unicode="&#x17e;" horiz-adv-x="475" 
d="M30 0v110l250 285h-245v115h405v-110l-250 -285h255v-115h-415zM185 580l-120 145h115l60 -75l60 75h115l-120 -145h-110z" />
    <glyph glyph-name="uni018F" unicode="&#x18f;" horiz-adv-x="755" 
d="M575 295h-395c5.33301 -52 26.5 -95 63.5 -129s80.833 -51 131.5 -51c53.333 0 98 17 134 51s58 77 66 129zM45 335l-0.000976562 64.999h530c-8 54 -29.833 98.333 -65.5 133s-80.5 52 -134.5 52c-38.667 0 -73.5 -9.66699 -104.5 -29s-54.5 -44.666 -70.5 -75.999h-145
c22.667 72 62.667 128.333 120 169s124 61 200 61c93.333 0 172.5 -34 237.5 -102s97.5 -154 97.5 -258s-32.5 -190 -97.5 -258s-144.167 -102 -237.5 -102s-171.666 33.5 -234.999 100.5s-95 148.5 -95 244.5z" />
    <glyph glyph-name="florin" unicode="&#x192;" horiz-adv-x="435" 
d="M-65 -200l29.999 120.001h55c14.667 0 26.834 4.16699 36.501 12.5s15.834 19.166 18.501 32.499l75 345h-95l25 120h97l33 150c20.667 93.333 69 140 145 140h105l-27 -120h-58c-24.667 0 -40.334 -16.667 -47.001 -50l-26 -120h98l-25 -120h-99l-86 -390
c-16.667 -80 -68 -120 -154 -120h-101z" />
    <glyph glyph-name="Aringacute" unicode="&#x1fa;" horiz-adv-x="690" 
d="M334 939l41 70.999h120l-79 -98c19.333 -19.333 29 -43.333 29 -72c0 -28 -9.33301 -51.667 -28 -71s-42.667 -29 -72 -29s-53.333 9.66699 -72 29s-28 43 -28 71c0 26 8.16699 48.333 24.5 67s37.833 29.334 64.5 32.001zM345 799.999c10.667 0 20 3.66699 28 11
s12 17 12 29s-4 21.667 -12 29s-17.333 11 -28 11s-20 -3.66699 -28 -11s-12 -17 -12 -29s4 -21.667 12 -29s17.333 -11 28 -11zM0 -0.000976562l250 700h190l250 -700h-145l-53 150h-294l-53 -150h-145zM240 269.999h210l-95 280h-20z" />
    <glyph glyph-name="aringacute" unicode="&#x1fb;" horiz-adv-x="550" 
d="M264 749l41 70.999h120l-79 -98c19.333 -19.333 29 -43.333 29 -72c0 -28 -9.33301 -51.667 -28 -71s-42.667 -29 -72 -29s-53.333 9.66699 -72 29s-28 43 -28 71c0 26 8.16699 48.333 24.5 67s37.833 29.334 64.5 32.001zM275 609.999c10.667 0 20 3.66699 28 11
s12 17 12 29s-4 21.667 -12 29s-17.333 11 -28 11s-20 -3.66699 -28 -11s-12 -17 -12 -29s4 -21.667 12 -29s17.333 -11 28 -11zM385 -0.000976562l-9.99902 49.999h-5c-8.66699 -10.667 -20.334 -20.667 -35.001 -30c-32 -20 -68.667 -30 -110 -30
c-56 0 -100.833 15 -134.5 45s-50.5 66.667 -50.5 110c0 52 18 93.333 54 124s88 46 156 46h115v10c0 28.667 -8.16699 51.667 -24.5 69s-38.166 26 -65.499 26c-26 0 -46.833 -6.66699 -62.5 -20s-24.834 -28.333 -27.501 -45h-125c6 46 27.333 85 64 117s87 48 151 48
s115.833 -18.667 155.5 -56s59.5 -83.666 59.5 -138.999v-325h-105zM365.001 204.998v15h-105c-63.333 0 -95 -21.667 -95 -65c0 -20 7 -35.833 21 -47.5s33.667 -17.5 59 -17.5c38 0 67.5 10.167 88.5 30.5s31.5 48.5 31.5 84.5z" />
    <glyph glyph-name="AEacute" unicode="&#x1fc;" horiz-adv-x="950" 
d="M-25 0l305 700h615v-120h-340v-170h320v-120h-320v-170h340v-120h-470v155h-238l-67 -155h-145zM235 270h190v310h-55zM425 770l95 145h130l-120 -145h-105z" />
    <glyph glyph-name="aeacute" unicode="&#x1fd;" horiz-adv-x="905" 
d="M370 205v10h-110c-30.667 0 -54.167 -6.16699 -70.5 -18.5s-24.5 -27.833 -24.5 -46.5c0 -40 26.667 -60 80 -60c39.333 0 70 10.167 92 30.5s33 48.5 33 84.5zM180 355l-120.002 0.00195312c6 48.667 26.833 88.334 62.5 119.001s84.834 46 147.501 46
c82 0 140.333 -30 175 -90c5.33301 9.33301 14 20 26 32s31.833 24.667 59.5 38s57.5 20 89.5 20c70 0 128.333 -24.333 175 -73s70 -109.334 70 -182.001c0 -6 -1 -18 -3 -36l-2 -14h-365c6 -36.667 19.667 -65.834 41 -87.501s49.333 -32.5 84 -32.5
c48 0 81.333 18.333 100 55h130c-3.33301 -12.667 -9.66602 -26.834 -18.999 -42.501s-22.5 -33 -39.5 -52s-40.5 -34.667 -70.5 -47s-63.667 -18.5 -101 -18.5c-46 0 -86.167 10.333 -120.5 31s-57.5 40.334 -69.5 59.001c-13.333 -17.333 -29.333 -32.333 -48 -45
c-43.333 -30 -95.666 -45 -156.999 -45c-56 0 -100.833 15 -134.5 45s-50.5 66.667 -50.5 110c0 47.333 18.167 85.833 54.5 115.5s88.166 44.5 155.499 44.5h120v15c0 28 -8.83301 50.833 -26.5 68.5s-40.5 26.5 -68.5 26.5c-28.667 0 -50.667 -6.33301 -66 -19
s-25 -26.334 -29 -41.001zM494.998 305.002h245c-6 33.333 -19.667 60.833 -41 82.5s-47.666 32.5 -78.999 32.5c-33.333 0 -61.833 -11.833 -85.5 -35.5s-36.834 -50.167 -39.501 -79.5zM399.998 580.002l95 145h130l-120 -145h-105z" />
    <glyph glyph-name="Oslashacute" unicode="&#x1fe;" horiz-adv-x="770" 
d="M115 -35l54 103c-82.667 69.333 -124 163.333 -124 282c0 104 32.667 190 98 258s146 102 242 102c38.667 0 76 -6.33301 112 -19l23 44h130l-53 -100c85.333 -69.333 128 -164.333 128 -285c0 -104 -32.667 -190 -98 -258s-146 -102 -242 -102
c-37.333 0 -76 6.66699 -116 20l-24 -45h-130zM537 520l-208.999 -398c16 -4.66699 35 -7 57 -7c61.333 0 111.666 21.5 150.999 64.5s59 99.833 59 170.5c0 69.333 -19.333 126 -58 170zM230.001 184l207.999 395c-17.333 4 -35 6 -53 6
c-61.333 0 -111.666 -21.5 -150.999 -64.5s-59 -99.833 -59 -170.5c0 -68.667 18.333 -124 55 -166zM335 770l95 145h130l-120 -145h-105z" />
    <glyph glyph-name="oslashacute" unicode="&#x1ff;" horiz-adv-x="600" 
d="M90 -35l44 81c-62.667 49.333 -94 119 -94 209c0 77.333 24.5 140.833 73.5 190.5s111.167 74.5 186.5 74.5c32 0 60 -4.33301 84 -13l21 38h110l-46 -84c60.667 -50 91 -118.667 91 -206c0 -77.333 -24.5 -140.833 -73.5 -190.5s-111.167 -74.5 -186.5 -74.5
c-26.667 0 -53.667 3.66699 -81 11l-19 -36h-110zM193 154l136 252c-8 2.66699 -17.667 4 -29 4c-38.667 0 -71.667 -14.667 -99 -44s-41 -66.333 -41 -111c0 -39.333 11 -73 33 -101zM410 352l-136 -249.999c12 -1.33301 20.667 -2 26 -2c38.667 0 71.667 14.667 99 44
s41 66.333 41 111c0 37.333 -10 69.666 -30 96.999zM250 580.001l95 145h130l-120 -145h-105z" />
    <glyph glyph-name="Scommaaccent" unicode="&#x218;" horiz-adv-x="635" 
d="M35 220l130 0.00292969c0 -31.333 14.167 -57.5 42.5 -78.5s65.833 -31.5 112.5 -31.5c47.333 0 82.5 8.16699 105.5 24.5s34.5 38.166 34.5 65.499c0 46.667 -38.333 76.667 -115 90l-120 20c-116.667 19.333 -175 82.666 -175 189.999c0 60 23.333 110 70 150
s110 60 190 60c86.667 0 153.334 -21.333 200.001 -64s70 -98 70 -166h-130c0 31.333 -12.333 57.5 -37 78.5s-59 31.5 -103 31.5c-43.333 0 -75.833 -8.16699 -97.5 -24.5s-32.5 -38.166 -32.5 -65.499c0 -21.333 7 -38.5 21 -51.5s38.667 -22.5 74 -28.5l110 -20
c71.333 -12.667 123.333 -34.834 156 -66.501s49 -76.167 49 -133.5c0 -62.667 -23.333 -113.334 -70 -152.001s-113.334 -58 -200.001 -58c-88 0 -157.5 21.5 -208.5 64.5s-76.5 98.167 -76.5 165.5zM220 -239.997l40 170h115l-60 -170h-95z" />
    <glyph glyph-name="scommaaccent" unicode="&#x219;" horiz-adv-x="505" 
d="M30 155l120.001 0.000976562c0 -15.333 8.83301 -30 26.5 -44s42.167 -21 73.5 -21c63.333 0 95 18.333 95 55c0 16 -5 28.5 -15 37.5s-28.333 15.5 -55 19.5l-80 13c-110 18 -165 66.333 -165 145c0 44.667 19 82.5 57 113.5s90.667 46.5 158 46.5s120 -18.333 158 -55
s57 -73.334 57 -110.001h-120c0 16.667 -8.66699 31.667 -26 45s-40.333 20 -69 20s-50.834 -5.83301 -66.501 -17.5s-23.5 -25.834 -23.5 -42.501c0 -24.667 23.333 -40.334 70 -47.001l85 -13c106.667 -16 160 -67.667 160 -155c0 -44.667 -18.833 -81.667 -56.5 -111
s-92.167 -44 -163.5 -44c-36 0 -67.833 4.66699 -95.5 14s-49 20.5 -64 33.5s-27.333 27.833 -37 44.5s-16 30.834 -19 42.501s-4.5 21.834 -4.5 30.501zM155.001 -239.999l40 170h115l-60 -170h-95z" />
    <glyph glyph-name="uni021A" unicode="&#x21a;" horiz-adv-x="590" 
d="M230 0v575h-210v125h550v-125h-210v-575h-130zM200 -240l40 170h115l-60 -170h-95z" />
    <glyph glyph-name="uni021B" unicode="&#x21b;" horiz-adv-x="390" 
d="M105 120v270h-80v120h80v145h125v-145h115v-120h-115v-245c0 -23.333 11.667 -35 35 -35h80v-110h-110c-42 0 -74.167 10.5 -96.5 31.5s-33.5 50.5 -33.5 88.5zM135 -240l40 170h115l-60 -170h-95z" />
    <glyph glyph-name="uni0232" unicode="&#x232;" horiz-adv-x="620" 
d="M245 0v240l-255 460h145l165 -300h20l165 300h145l-255 -460v-240h-130zM155 795v95h310v-95h-310z" />
    <glyph glyph-name="uni0233" unicode="&#x233;" 
d="M60 -200v115h100c20 0 32.667 8.33301 38 25l9 25l-207 545h130l130 -345h20l120 345h130l-215 -610c-12.667 -36.667 -29.5 -62.5 -50.5 -77.5s-54.167 -22.5 -99.5 -22.5h-105zM115 605v95h310v-95h-310z" />
    <glyph glyph-name="uni0244" unicode="&#x244;" horiz-adv-x="780" 
d="M100 285v115h-90v120h90v180h130v-180h320v180h130v-180h90v-120h-90v-115c0 -90 -26.333 -161.667 -79 -215s-123 -80 -211 -80s-158.333 26.667 -211 80s-79 125 -79 215zM230 400v-115c0 -49.333 15.333 -90 46 -122s68.667 -48 114 -48s83.333 16 114 48
s46 72.667 46 122v115h-320z" />
    <glyph glyph-name="uni0259" unicode="&#x259;" horiz-adv-x="590" 
d="M425 210h-260c6 -34 19.833 -61.667 41.5 -83s49.5 -32 83.5 -32c36 0 65.5 10.5 88.5 31.5s38.5 48.833 46.5 83.5zM45 295l380.001 0.00195312c-5.33301 36 -20.333 65 -45 87s-54.667 33 -90 33c-25.333 0 -47.5 -6.33301 -66.5 -19s-31.833 -26.334 -38.5 -41.001
h-130c3.33301 12.667 10.166 27.167 20.499 43.5s24.5 34.166 42.5 53.499s42.167 35.5 72.5 48.5s63.5 19.5 99.5 19.5c75.333 0 137.5 -24.833 186.5 -74.5s73.5 -113.167 73.5 -190.5s-24.5 -140.833 -73.5 -190.5s-111.167 -74.5 -186.5 -74.5
c-70 0 -129.167 24.5 -177.5 73.5s-72.5 109.5 -72.5 181.5c0 12 0.666992 24 2 36z" />
    <glyph glyph-name="uni0289" unicode="&#x289;" horiz-adv-x="600" 
d="M65 205v105h-65v110h65v90h125v-90h220v90h125v-90h65v-110h-65v-310h-115l-10 50h-5c-8 -10 -19.333 -20 -34 -30c-30.667 -20 -66 -30 -106 -30c-58 0 -105.833 19.833 -143.5 59.5s-56.5 91.5 -56.5 155.5zM190 310v-95c0 -32.667 10.167 -59.167 30.5 -79.5
s46.833 -30.5 79.5 -30.5s59.167 10.167 79.5 30.5s30.5 46.833 30.5 79.5v95h-220z" />
    <glyph glyph-name="uni02BC" unicode="&#x2bc;" horiz-adv-x="215" 
d="M30 530l40 170h115l-60 -170h-95z" />
    <glyph glyph-name="circumflex" unicode="&#x2c6;" horiz-adv-x="410" 
d="M30 590l120 145h110l120 -145h-115l-60 75l-60 -75h-115z" />
    <glyph glyph-name="caron" unicode="&#x2c7;" horiz-adv-x="410" 
d="M150 590l-120 145h115l60 -75l60 75h115l-120 -145h-110z" />
    <glyph glyph-name="breve" unicode="&#x2d8;" horiz-adv-x="380" 
d="M30 730h95c10 -40 31.667 -60 65 -60s55 20 65 60h95c-2.66699 -45.333 -18 -80.833 -46 -106.5s-66 -38.5 -114 -38.5s-86 12.833 -114 38.5s-43.333 61.167 -46 106.5z" />
    <glyph glyph-name="dotaccent" unicode="&#x2d9;" horiz-adv-x="175" 
d="M30 600v115h115v-115h-115z" />
    <glyph glyph-name="ring" unicode="&#x2da;" horiz-adv-x="260" 
d="M130 645c10.667 0 20 3.66699 28 11s12 17 12 29s-4 21.667 -12 29s-17.333 11 -28 11s-20 -3.66699 -28 -11s-12 -17 -12 -29s4 -21.667 12 -29s17.333 -11 28 -11zM130 785c29.333 0 53.333 -9.66699 72 -29s28 -43 28 -71s-9.33301 -51.667 -28 -71
s-42.667 -29 -72 -29s-53.333 9.66699 -72 29s-28 43 -28 71s9.33301 51.667 28 71s42.667 29 72 29z" />
    <glyph glyph-name="ogonek" unicode="&#x2db;" horiz-adv-x="210" 
d="M180 -175l-25 0.00195312c-41.333 0 -72.5 8.5 -93.5 25.5s-31.5 40.167 -31.5 69.5c0 25.333 9 45.666 27 60.999c10 8.66699 19.333 15 28 19v5h95v-5c-36.667 -18.667 -55 -40.334 -55 -65.001c0 -23.333 15 -35 45 -35h10v-75z" />
    <glyph glyph-name="tilde" unicode="&#x2dc;" horiz-adv-x="395" 
d="M115 595h-85c0 39.333 10 70 30 92s46.667 33 80 33c18 0 37.333 -6.66699 58 -20s36.334 -20 47.001 -20c10 0 18.333 3.66699 25 11s10 17 10 29h85c0 -39.333 -10 -70 -30 -92s-46.667 -33 -80 -33c-18 0 -37.333 6.66699 -58 20s-36.334 20 -47.001 20
c-10 0 -18.333 -3.66699 -25 -11s-10 -17 -10 -29z" />
    <glyph glyph-name="hungarumlaut" unicode="&#x2dd;" horiz-adv-x="450" 
d="M30 590l100 145h115l-115 -145h-100zM205 590l100 145h115l-115 -145h-100z" />
    <glyph glyph-name="acutecomb" unicode="&#x301;" horiz-adv-x="0" 
d="M-415 785l95 145h130l-120 -145h-105z" />
    <glyph glyph-name="uni0302" unicode="&#x302;" horiz-adv-x="0" 
d="M-535 785l120 145h110l120 -145h-115l-60 75l-60 -75h-115z" />
    <glyph glyph-name="uni0304" unicode="&#x304;" horiz-adv-x="0" 
d="M-515 805v95h310v-95h-310z" />
    <glyph glyph-name="uni0306" unicode="&#x306;" horiz-adv-x="0" 
d="M-525 920h95c10 -40 31.667 -60 65 -60s55 20 65 60h95c-2.66699 -45.333 -18 -80.833 -46 -106.5s-66 -38.5 -114 -38.5s-86 12.833 -114 38.5s-43.333 61.167 -46 106.5z" />
    <glyph glyph-name="uni0307" unicode="&#x307;" horiz-adv-x="0" 
d="M-420 790v115h115v-115h-115z" />
    <glyph glyph-name="uni0308" unicode="&#x308;" horiz-adv-x="0" 
d="M-330 790v115h115v-115h-115zM-515 790v115h115v-115h-115z" />
    <glyph glyph-name="uni030A" unicode="&#x30a;" horiz-adv-x="0" 
d="M-360 830c10.667 0 20 3.66699 28 11s12 17 12 29s-4 21.667 -12 29s-17.333 11 -28 11s-20 -3.66699 -28 -11s-12 -17 -12 -29s4 -21.667 12 -29s17.333 -11 28 -11zM-460 870c0 28 9.33301 51.667 28 71s42.667 29 72 29s53.333 -9.66699 72 -29s28 -43 28 -71
s-9.33301 -51.667 -28 -71s-42.667 -29 -72 -29s-53.333 9.66699 -72 29s-28 43 -28 71z" />
    <glyph glyph-name="uni030C" unicode="&#x30c;" horiz-adv-x="0" 
d="M-415 785l-120 145h115l60 -75l60 75h115l-120 -145h-110z" />
    <glyph glyph-name="uni0326" unicode="&#x326;" horiz-adv-x="215" 
d="M30 -250l40 170h115l-60 -170h-95z" />
    <glyph glyph-name="uni0400" unicode="&#x400;" horiz-adv-x="600" 
d="M75 0v700h470v-120h-340v-170h320v-120h-320v-170h340v-120h-470zM260 770l-120 145h130l95 -145h-105z" />
    <glyph glyph-name="uni0401" unicode="&#x401;" horiz-adv-x="600" 
d="M75 0v700h470v-120h-340v-170h320v-120h-320v-170h340v-120h-470zM345 785v115h115v-115h-115zM160 785v115h115v-115h-115z" />
    <glyph glyph-name="uni0402" unicode="&#x402;" horiz-adv-x="740" 
d="M185 0l-0.000976562 575.001h-185v125h500v-125h-185v-165c12.667 8 25.667 14.667 39 20c32.667 13.333 69.667 20 111 20c69.333 0 125 -20.5 167 -61.5s63 -95.5 63 -163.5c0 -68.667 -21.5 -123.334 -64.5 -164.001s-101.5 -61 -175.5 -61h-55v120h45
c36.667 0 65.834 10.167 87.501 30.5s32.5 45.166 32.5 74.499c0 30.667 -10.5 55.834 -31.5 75.501s-48.833 29.5 -83.5 29.5c-32 0 -64 -6 -96 -18c-12 -4 -25 -9.66699 -39 -17v-295h-130z" />
    <glyph glyph-name="uni0403" unicode="&#x403;" horiz-adv-x="555" 
d="M75 0v700h460v-125h-330v-575h-130zM250 770l95 145h130l-120 -145h-105z" />
    <glyph glyph-name="uni0404" unicode="&#x404;" horiz-adv-x="735" 
d="M180 410l284.999 -0.000976562v-120h-285c10 -54.667 33.333 -97.5 70 -128.5s81.667 -46.5 135 -46.5c48 0 86.833 13.333 116.5 40s50.834 58.334 63.501 95.001h135c-4 -18.667 -9.83301 -38 -17.5 -58s-20 -42.5 -37 -67.5s-36.5 -47.167 -58.5 -66.5
s-50.667 -35.5 -86 -48.5s-74 -19.5 -116 -19.5c-96 0 -176.667 34 -242 102s-98 154 -98 258s32.667 190 98 258s146 102 242 102c39.333 0 75.833 -5.83301 109.5 -17.5s61.834 -26.5 84.501 -44.5s42.667 -38.833 60 -62.5s30.666 -46.167 39.999 -67.5
s16.333 -42.333 21 -63h-135c-13.333 34.667 -34.833 65 -64.5 91s-68.167 39 -115.5 39c-53.333 0 -98.333 -15.5 -135 -46.5s-60 -73.833 -70 -128.5z" />
    <glyph glyph-name="uni0405" unicode="&#x405;" horiz-adv-x="635" 
d="M35 220l130 0.00292969c0 -31.333 14.167 -57.5 42.5 -78.5s65.833 -31.5 112.5 -31.5c47.333 0 82.5 8.16699 105.5 24.5s34.5 38.166 34.5 65.499c0 46.667 -38.333 76.667 -115 90l-120 20c-116.667 19.333 -175 82.666 -175 189.999c0 60 23.333 110 70 150
s110 60 190 60c86.667 0 153.334 -21.333 200.001 -64s70 -98 70 -166h-130c0 31.333 -12.333 57.5 -37 78.5s-59 31.5 -103 31.5c-43.333 0 -75.833 -8.16699 -97.5 -24.5s-32.5 -38.166 -32.5 -65.499c0 -21.333 7 -38.5 21 -51.5s38.667 -22.5 74 -28.5l110 -20
c71.333 -12.667 123.333 -34.834 156 -66.501s49 -76.167 49 -133.5c0 -62.667 -23.333 -113.334 -70 -152.001s-113.334 -58 -200.001 -58c-88 0 -157.5 21.5 -208.5 64.5s-76.5 98.167 -76.5 165.5z" />
    <glyph glyph-name="uni0406" unicode="&#x406;" horiz-adv-x="280" 
d="M75 0v700h130v-700h-130z" />
    <glyph glyph-name="uni0407" unicode="&#x407;" horiz-adv-x="280" 
d="M75 0v700h130v-700h-130zM175 785v115h115v-115h-115zM-10 785v115h115v-115h-115z" />
    <glyph glyph-name="uni0408" unicode="&#x408;" horiz-adv-x="410" 
d="M10 0v125h155c30 0 45 16.667 45 50v525h130v-560c0 -93.333 -46.667 -140 -140 -140h-190z" />
    <glyph glyph-name="uni0409" unicode="&#x409;" horiz-adv-x="1030" 
d="M5 -5v125h30c44.667 0 69.667 30 75 90l40 490h460v-250h160c68 0 122.5 -20.5 163.5 -61.5s61.5 -95.5 61.5 -163.5s-20.5 -122.5 -61.5 -163.5s-95.5 -61.5 -163.5 -61.5h-290v575h-210l-30 -395c-10 -123.333 -73.333 -185 -190 -185h-45zM610 125h155
c30 0 54.167 9.16699 72.5 27.5s27.5 42.5 27.5 72.5s-9.16699 54.167 -27.5 72.5s-42.5 27.5 -72.5 27.5h-155v-200z" />
    <glyph glyph-name="uni040A" unicode="&#x40a;" horiz-adv-x="1050" 
d="M630 125h155c30 0 54.167 8.83301 72.5 26.5s27.5 40.5 27.5 68.5s-9.16699 50.833 -27.5 68.5s-42.5 26.5 -72.5 26.5h-155v-190zM75 0v700h130v-260h295v260h130v-260h160c68 0 122.5 -20.167 163.5 -60.5s61.5 -93.5 61.5 -159.5s-20.5 -119.167 -61.5 -159.5
s-95.5 -60.5 -163.5 -60.5h-290v310h-295v-310h-130z" />
    <glyph glyph-name="uni040B" unicode="&#x40b;" horiz-adv-x="745" 
d="M185 0v575h-185v125h500v-125h-185v-165c43.333 26.667 93.333 40 150 40c68 0 120.833 -19.5 158.5 -58.5s56.5 -94.5 56.5 -166.5v-225h-130v215c0 76.667 -36.667 115 -110 115c-48 0 -89.667 -11.667 -125 -35v-295h-130z" />
    <glyph glyph-name="uni040C" unicode="&#x40c;" horiz-adv-x="605" 
d="M75 0v700h130v-315l240 315h160l-265 -345l285 -355h-160l-260 325v-325h-130zM275 770l95 145h130l-120 -145h-105z" />
    <glyph glyph-name="uni040D" unicode="&#x40d;" horiz-adv-x="725" 
d="M75 0v700h130v-485h20l250 485h175v-700h-130v485h-20l-250 -485h-175zM310 770l-120 145h130l95 -145h-105z" />
    <glyph glyph-name="uni040E" unicode="&#x40e;" horiz-adv-x="620" 
d="M90 0v120h100c22 0 37 10 45 30l12 27l-257 523h145l170 -350h20l160 350h145l-275 -600c-29.333 -66.667 -84.333 -100 -165 -100h-100zM155 915h95c10 -40 31.667 -60 65 -60s55 20 65 60h95c-2.66699 -45.333 -18 -80.833 -46 -106.5s-66 -38.5 -114 -38.5
s-86 12.833 -114 38.5s-43.333 61.167 -46 106.5z" />
    <glyph glyph-name="uni040F" unicode="&#x40f;" horiz-adv-x="710" 
d="M75 0v700h130v-575h300v575h130v-700h-215v-140h-130v140h-215z" />
    <glyph glyph-name="uni0410" unicode="&#x410;" horiz-adv-x="690" 
d="M0 0l250 700h190l250 -700h-145l-53 150h-294l-53 -150h-145zM240 270h210l-95 280h-20z" />
    <glyph glyph-name="uni0411" unicode="&#x411;" horiz-adv-x="660" 
d="M75 0v700.002h500v-120h-370v-160h200c62.667 0 113.334 -19.333 152.001 -58s58 -89.334 58 -152.001s-19.333 -113.334 -58 -152.001s-89.334 -58 -152.001 -58h-330zM205 115.002h195c26 0 46.667 8.5 62 25.5s23 40.167 23 69.5s-7.66699 52.5 -23 69.5
s-36 25.5 -62 25.5h-195v-190z" />
    <glyph glyph-name="uni0412" unicode="&#x412;" horiz-adv-x="660" 
d="M75 0v700h325c60 0 108.333 -18 145 -54s55 -83 55 -141c0 -43.333 -11.667 -81.333 -35 -114c-12 -15.333 -23.667 -27.333 -35 -36v-5c14.667 -8.66699 28 -20.667 40 -36c26.667 -33.333 40 -73 40 -119c0 -58 -18.333 -105 -55 -141s-85 -54 -145 -54h-335zM205 410
h180c25.333 0 45.833 7.83301 61.5 23.5s23.5 36.167 23.5 61.5c0 28 -7.66699 50 -23 66s-36 24 -62 24h-180v-175zM205 115l190 0.00195312c22.667 0 42.5 8.66699 59.5 26s25.5 38.666 25.5 63.999s-8.5 46.666 -25.5 63.999s-36.833 26 -59.5 26h-190v-180z" />
    <glyph glyph-name="uni0413" unicode="&#x413;" horiz-adv-x="555" 
d="M75 0v700h460v-125h-330v-575h-130z" />
    <glyph glyph-name="uni0414" unicode="&#x414;" horiz-adv-x="700" 
d="M0 -140l-0.000976562 265h5c30.667 0 52.334 7.66699 65.001 23s21 46 25 92l40 460h470v-575h75v-265h-130v140h-420v-140h-130zM189.999 125h284.999v450h-219l-31 -365c-2.66699 -22.667 -9 -43.667 -19 -63c-5.33301 -8 -10.666 -15.333 -15.999 -22z" />
    <glyph glyph-name="uni0415" unicode="&#x415;" horiz-adv-x="600" 
d="M75 0v700h470v-120h-340v-170h320v-120h-320v-170h340v-120h-470z" />
    <glyph glyph-name="uni0416" unicode="&#x416;" horiz-adv-x="840" 
d="M-15 0l235 355l-215 345h160l190 -315v315h130v-315l190 315h160l-215 -345l235 -355h-160l-210 325v-325h-130v325l-210 -325h-160z" />
    <glyph glyph-name="uni0417" unicode="&#x417;" horiz-adv-x="615" 
d="M35 210h130c0 -28 11.333 -51.667 34 -71s56.334 -29 101.001 -29c45.333 0 80 9 104 27s36 40.667 36 68c0 26.667 -11.167 49.167 -33.5 67.5s-52.833 27.5 -91.5 27.5h-70v110h70c36 0 64.167 8 84.5 24s30.5 34.667 30.5 56c0 28 -11 51.667 -33 71
s-54.333 29 -97 29c-38.667 0 -69.167 -9.5 -91.5 -28.5s-33.5 -42.833 -33.5 -71.5h-130c0 64 23 116.667 69 158s108 62 186 62c79.333 0 142.5 -19.833 189.5 -59.5s70.5 -88.167 70.5 -145.5c0 -46.667 -16 -85.334 -48 -116.001
c-12.667 -11.333 -28.334 -21 -47.001 -29v-5c20 -8.66699 37.333 -19.667 52 -33c35.333 -31.333 53 -73.666 53 -126.999c0 -58 -24 -106.667 -72 -146s-114 -59 -198 -59c-82.667 0 -147.5 20.667 -194.5 62s-70.5 94 -70.5 158z" />
    <glyph glyph-name="uni0418" unicode="&#x418;" horiz-adv-x="725" 
d="M75 0v700h130v-485h20l250 485h175v-700h-130v485h-20l-250 -485h-175z" />
    <glyph glyph-name="uni0419" unicode="&#x419;" horiz-adv-x="725" 
d="M75 0v700h130v-485h20l250 485h175v-700h-130v485h-20l-250 -485h-175zM200 915h95c10 -40 31.667 -60 65 -60s55 20 65 60h95c-2.66699 -45.333 -18 -80.833 -46 -106.5s-66 -38.5 -114 -38.5s-86 12.833 -114 38.5s-43.333 61.167 -46 106.5z" />
    <glyph glyph-name="uni041A" unicode="&#x41a;" horiz-adv-x="605" 
d="M75 0v700h130v-315l240 315h160l-265 -345l285 -355h-160l-260 325v-325h-130z" />
    <glyph glyph-name="uni041B" unicode="&#x41b;" horiz-adv-x="695" 
d="M5 -5v125h30c44.667 0 69.667 30 75 90l40 490h470v-700h-130v575h-220l-30 -395c-10 -123.333 -73.333 -185 -190 -185h-45z" />
    <glyph glyph-name="uni041C" unicode="&#x41c;" horiz-adv-x="920" 
d="M75 0v700h210l165 -490h20l165 490h210v-700h-130v485h-20l-165 -485h-140l-165 485h-20v-485h-130z" />
    <glyph glyph-name="uni041D" unicode="&#x41d;" horiz-adv-x="725" 
d="M75 0v700h130v-280h315v280h130v-700h-130v290h-315v-290h-130z" />
    <glyph glyph-name="uni041E" unicode="&#x41e;" horiz-adv-x="770" 
d="M385 115c61.333 0 111.666 21.5 150.999 64.5s59 99.833 59 170.5s-19.667 127.5 -59 170.5s-89.666 64.5 -150.999 64.5s-111.666 -21.5 -150.999 -64.5s-59 -99.833 -59 -170.5s19.667 -127.5 59 -170.5s89.666 -64.5 150.999 -64.5zM385 710
c96 0 176.667 -34 242 -102s98 -154 98 -258s-32.667 -190 -98 -258s-146 -102 -242 -102s-176.667 34 -242 102s-98 154 -98 258s32.667 190 98 258s146 102 242 102z" />
    <glyph glyph-name="uni041F" unicode="&#x41f;" horiz-adv-x="720" 
d="M75 0v700h570v-700h-130v575h-310v-575h-130z" />
    <glyph glyph-name="uni0420" unicode="&#x420;" horiz-adv-x="650" 
d="M75 0v700h315c66 0 119.167 -21.333 159.5 -64s60.5 -99.667 60.5 -171s-20.167 -128.333 -60.5 -171s-93.5 -64 -159.5 -64h-185v-230h-130zM205 355h180c28.667 0 51.667 9.66699 69 29s26 46.333 26 81s-8.66699 61.667 -26 81s-40.333 29 -69 29h-180v-220z" />
    <glyph glyph-name="uni0421" unicode="&#x421;" horiz-adv-x="735" 
d="M565 250l134.999 -0.000976562c-4 -18.667 -9.83301 -38 -17.5 -58s-20 -42.5 -37 -67.5s-36.5 -47.167 -58.5 -66.5s-50.667 -35.5 -86 -48.5s-74 -19.5 -116 -19.5c-96 0 -176.667 34 -242 102s-98 154 -98 258s32.667 190 98 258s146 102 242 102
c39.333 0 75.833 -5.83301 109.5 -17.5s61.834 -26.5 84.501 -44.5s42.667 -38.833 60 -62.5s30.666 -46.167 39.999 -67.5s16.333 -42.333 21 -63h-135c-13.333 34.667 -34.833 65 -64.5 91s-68.167 39 -115.5 39c-61.333 0 -111.666 -21.5 -150.999 -64.5
s-59 -99.833 -59 -170.5s19.667 -127.5 59 -170.5s89.666 -64.5 150.999 -64.5c48 0 86.833 13.333 116.5 40s50.834 58.334 63.501 95.001z" />
    <glyph glyph-name="uni0422" unicode="&#x422;" horiz-adv-x="590" 
d="M230 0v575h-210v125h550v-125h-210v-575h-130z" />
    <glyph glyph-name="uni0423" unicode="&#x423;" horiz-adv-x="620" 
d="M90 0v120h100c22 0 37 10 45 30l12 27l-257 523h145l170 -350h20l160 350h145l-275 -600c-29.333 -66.667 -84.333 -100 -165 -100h-100z" />
    <glyph glyph-name="uni0424" unicode="&#x424;" horiz-adv-x="840" 
d="M355 -20v110c-100 0 -178.333 25 -235 75s-85 115 -85 195s28.333 145 85 195s135 75 235 75v90h130v-90c100 0 178.333 -25 235 -75s85 -115 85 -195s-28.333 -145 -85 -195s-135 -75 -235 -75v-110h-130zM350 205h5v310h-5c-56 0 -100.833 -15 -134.5 -45
s-50.5 -66.667 -50.5 -110s16.833 -80 50.5 -110s78.5 -45 134.5 -45zM485 205h5c56 0 100.833 15 134.5 45s50.5 66.667 50.5 110s-16.833 80 -50.5 110s-78.5 45 -134.5 45h-5v-310z" />
    <glyph glyph-name="uni0425" unicode="&#x425;" horiz-adv-x="640" 
d="M-10 0l240 360l-225 340h155l150 -230h20l150 230h155l-225 -340l240 -360h-155l-165 250h-20l-165 -250h-155z" />
    <glyph glyph-name="uni0426" unicode="&#x426;" horiz-adv-x="725" 
d="M75 0v700h130v-575h295v575h130v-575h75v-265h-130v140h-500z" />
    <glyph glyph-name="uni0427" unicode="&#x427;" horiz-adv-x="685" 
d="M480 0l-0.000976562 265c-13.333 -10 -29.333 -19.333 -48 -28c-37.333 -18 -79.666 -27 -126.999 -27c-160 0 -240 85 -240 255v235h130v-225c0 -93.333 45 -140 135 -140c41.333 0 78.333 9 111 27c16 8.66699 29 18 39 28v310h130v-700h-130z" />
    <glyph glyph-name="uni0428" unicode="&#x428;" horiz-adv-x="970" 
d="M75 0v700h130v-575h215v575h130v-575h215v575h130v-700h-820z" />
    <glyph glyph-name="uni0429" unicode="&#x429;" horiz-adv-x="990" 
d="M75 0v700h130v-575h215v575h130v-575h215v575h130v-575h75v-265h-130v140h-765z" />
    <glyph glyph-name="uni042A" unicode="&#x42a;" horiz-adv-x="720" 
d="M290 125h165c28.667 0 52.5 10.333 71.5 31s28.5 47 28.5 79s-9.5 58.333 -28.5 79s-42.833 31 -71.5 31h-165v-220zM160 0v575h-155v125h285v-230h170c65.333 0 119.166 -21.833 161.499 -65.5s63.5 -100.167 63.5 -169.5s-21.167 -125.833 -63.5 -169.5
s-96.166 -65.5 -161.499 -65.5h-300z" />
    <glyph glyph-name="uni042B" unicode="&#x42b;" horiz-adv-x="865" 
d="M660 0v700h130v-700h-130zM205 125h155c28.667 0 52.5 10.333 71.5 31s28.5 47 28.5 79s-9.5 58.333 -28.5 79s-42.833 31 -71.5 31h-155v-220zM75 0v700h130v-230h160c65.333 0 119.166 -21.833 161.499 -65.5s63.5 -100.167 63.5 -169.5s-21.167 -125.833 -63.5 -169.5
s-96.166 -65.5 -161.499 -65.5h-290z" />
    <glyph glyph-name="uni042C" unicode="&#x42c;" horiz-adv-x="645" 
d="M205 125h175c28.667 0 52.5 10.333 71.5 31s28.5 47 28.5 79s-9.5 58.333 -28.5 79s-42.833 31 -71.5 31h-175v-220zM75 0v700h130v-230h180c65.333 0 119.166 -21.833 161.499 -65.5s63.5 -100.167 63.5 -169.5s-21.167 -125.833 -63.5 -169.5
s-96.166 -65.5 -161.499 -65.5h-310z" />
    <glyph glyph-name="uni042D" unicode="&#x42d;" horiz-adv-x="735" 
d="M35 250h135.002c10.667 -35.333 31.5 -66.666 62.5 -93.999s70.167 -41 117.5 -41c53.333 0 98.333 15.5 135 46.5s60 73.833 70 128.5h-285v120h285c-10 54.667 -33.333 97.5 -70 128.5s-81.667 46.5 -135 46.5c-47.333 0 -86.5 -13.333 -117.5 -40
s-51.833 -56.667 -62.5 -90h-135c4.66699 26 14.167 52.833 28.5 80.5s33.666 55 57.999 82s56.5 49.167 96.5 66.5s84 26 132 26c96 0 176.667 -34 242 -102s98 -154 98 -258s-32.667 -190 -98 -258s-146 -102 -242 -102c-51.333 0 -97.5 9.5 -138.5 28.5
s-73.167 43.167 -96.5 72.5s-41.333 57.166 -54 83.499s-21.334 51.5 -26.001 75.5z" />
    <glyph glyph-name="uni042E" unicode="&#x42e;" horiz-adv-x="980" 
d="M75 0v700.001h130v-285h84c13.333 88.667 49.833 160 109.5 214s130.167 81 211.5 81c92 0 169.167 -33.5 231.5 -100.5s93.5 -153.5 93.5 -259.5s-31.167 -192.5 -93.5 -259.5s-139.5 -100.5 -231.5 -100.5c-82 0 -153 27.667 -213 83s-96 127.666 -108 216.999h-84
v-290h-130zM610 115.001c56.667 0 103.334 21 140.001 63s55 99.333 55 172s-18.333 130 -55 172s-83.334 63 -140.001 63s-103.334 -21 -140.001 -63s-55 -99.333 -55 -172s18.333 -130 55 -172s83.334 -63 140.001 -63z" />
    <glyph glyph-name="uni042F" unicode="&#x42f;" horiz-adv-x="665" 
d="M30 0l229.999 240c-53.333 0 -101.666 20 -144.999 60s-65 95 -65 165c0 69.333 21 125.833 63 169.5s94.333 65.5 157 65.5h320v-700h-130v235h-40l-225 -235h-165zM279.999 360h180v215h-180c-28.667 0 -52.5 -10.333 -71.5 -31s-28.5 -47 -28.5 -79
c0 -30 9.66699 -55 29 -75s43 -30 71 -30z" />
    <glyph glyph-name="uni0430" unicode="&#x430;" horiz-adv-x="550" 
d="M385 0l-9.99902 49.999h-5c-8.66699 -10.667 -20.334 -20.667 -35.001 -30c-32 -20 -68.667 -30 -110 -30c-56 0 -100.833 15 -134.5 45s-50.5 66.667 -50.5 110c0 52 18 93.333 54 124s88 46 156 46h115v10c0 28.667 -8.16699 51.667 -24.5 69s-38.166 26 -65.499 26
c-26 0 -46.833 -6.66699 -62.5 -20s-24.834 -28.333 -27.501 -45h-125c6 46 27.333 85 64 117s87 48 151 48s115.833 -18.667 155.5 -56s59.5 -83.666 59.5 -138.999v-325h-105zM365.001 204.999v15h-105c-63.333 0 -95 -21.667 -95 -65c0 -20 7 -35.833 21 -47.5
s33.667 -17.5 59 -17.5c38 0 67.5 10.167 88.5 30.5s31.5 48.5 31.5 84.5z" />
    <glyph glyph-name="uni0431" unicode="&#x431;" horiz-adv-x="585" 
d="M45 270l0.00195312 24.998c0 168.667 48.333 280.334 145 335.001c39.333 20.667 92.666 35.667 159.999 45c36.667 5.33301 55 27 55 65h115c0 -56.667 -8.83301 -97 -26.5 -121s-45.5 -40.333 -83.5 -49c-78 -15.333 -130 -29.666 -156 -42.999
c-48 -24 -74.333 -63 -79 -117h5c34 40 80.667 60 140 60c65.333 0 119.166 -21.833 161.499 -65.5s63.5 -100.167 63.5 -169.5c0 -70 -23.667 -128.333 -71 -175s-107 -70 -179 -70c-73.333 0 -133.333 25.667 -180 77s-70 119 -70 203zM295.002 359.998
c-35.333 0 -65 -12.333 -89 -37s-36 -55.667 -36 -93s12 -68.333 36 -93s53.667 -37 89 -37s65 12.333 89 37s36 55.667 36 93s-12 68.333 -36 93s-53.667 37 -89 37z" />
    <glyph glyph-name="uni0432" unicode="&#x432;" horiz-adv-x="545" 
d="M65 0v510.001h280c47.333 0 85 -13.333 113 -40s42 -61.667 42 -105c0 -30.667 -10 -56.667 -30 -78c-10 -10 -20 -17.333 -30 -22v-5c13.333 -6.66699 25 -15.334 35 -26.001c23.333 -26 35 -55.667 35 -89c0 -40.667 -14.667 -75 -44 -103s-66.333 -42 -111 -42h-290z
M190 95.001l135 0.000976562c17.333 0 31.666 5.66699 42.999 17s17 25.666 17 42.999c0 15.333 -5.66699 28.333 -17 39s-25.666 16 -42.999 16h-135v-115zM190 305.002h130c36.667 0 55 18.333 55 55s-18.333 55 -55 55h-130v-110z" />
    <glyph glyph-name="uni0433" unicode="&#x433;" horiz-adv-x="440" 
d="M65 0v510h355v-120h-230v-390h-125z" />
    <glyph glyph-name="uni0434" unicode="&#x434;" horiz-adv-x="570" 
d="M0 -120v240h5c25.333 0 43 5.16699 53 15.5s16 28.5 18 54.5l29 320h380v-390h70v-240h-125v120h-305v-120h-125zM170 120h190v275h-140l-20 -215c-2.66699 -20 -8.33398 -35.667 -17.001 -47c-5.33301 -6.66699 -9.66602 -11 -12.999 -13z" />
    <glyph glyph-name="uni0435" unicode="&#x435;" horiz-adv-x="590" 
d="M165 300h260c-6 34 -19.833 61.667 -41.5 83s-49.5 32 -83.5 32c-36 0 -65.5 -10.5 -88.5 -31.5s-38.5 -48.833 -46.5 -83.5zM405 150l130.001 0.000976562c-3.33301 -12.667 -9.83301 -26.834 -19.5 -42.501s-23.334 -33 -41.001 -52s-41.834 -34.667 -72.501 -47
s-64.667 -18.5 -102 -18.5c-75.333 0 -137.5 24.833 -186.5 74.5s-73.5 113.167 -73.5 190.5s24.5 140.833 73.5 190.5s111.167 74.5 186.5 74.5c70 0 129.167 -24.5 177.5 -73.5s72.5 -109.5 72.5 -181.5c0 -6 -1 -18 -3 -36l-2 -14h-380c5.33301 -36 20.333 -65 45 -87
s54.667 -33 90 -33c26.667 0 49.334 5.83301 68.001 17.5s31 24.167 37 37.5z" />
    <glyph glyph-name="uni0436" unicode="&#x436;" horiz-adv-x="705" 
d="M-5 0l165 260l-155 250h145l140 -230v230h125v-230l140 230h145l-155 -250l165 -260h-145l-150 240v-240h-125v240l-150 -240h-145z" />
    <glyph glyph-name="uni0437" unicode="&#x437;" horiz-adv-x="505" 
d="M30 170l125 -0.00195312c0 -21.333 8.66699 -40 26 -56s40.333 -24 69 -24c30.667 0 54.167 6.16699 70.5 18.5s24.5 27.833 24.5 46.5c0 36.667 -30 55 -90 55h-55v90h55c26.667 0 46.667 5.83301 60 17.5s20 25.834 20 42.501s-7.5 30.834 -22.5 42.501
s-35.833 17.5 -62.5 17.5s-48.334 -7 -65.001 -21s-25 -30.333 -25 -49h-125c0 45.333 19.667 85 59 119s91.333 51 156 51s115.834 -15.5 153.501 -46.5s56.5 -68.833 56.5 -113.5c0 -32.667 -11.667 -59.334 -35 -80.001c-10 -8 -21.667 -14.667 -35 -20v-5
c7.33301 -2 14.5 -5 21.5 -9s15.5 -10 25.5 -18s18 -19.167 24 -33.5s9 -30.833 9 -49.5c0 -44.667 -18.833 -81.667 -56.5 -111s-92.167 -44 -163.5 -44c-69.333 0 -123.333 17.333 -162 52s-58 77.334 -58 128.001z" />
    <glyph glyph-name="uni0438" unicode="&#x438;" horiz-adv-x="585" 
d="M65 0v510h125v-310h20l150 310h160v-510h-125v310h-20l-150 -310h-160z" />
    <glyph glyph-name="uni0439" unicode="&#x439;" horiz-adv-x="585" 
d="M65 0v510h125v-310h20l150 310h160v-510h-125v310h-20l-150 -310h-160zM135 725h95c10 -40 31.667 -60 65 -60s55 20 65 60h95c-2.66699 -45.333 -18 -80.833 -46 -106.5s-66 -38.5 -114 -38.5s-86 12.833 -114 38.5s-43.333 61.167 -46 106.5z" />
    <glyph glyph-name="uni043A" unicode="&#x43a;" horiz-adv-x="520" 
d="M65 0v510h125v-230l190 230h145l-210 -250l220 -260h-145l-200 240v-240h-125z" />
    <glyph glyph-name="uni043B" unicode="&#x43b;" horiz-adv-x="570" 
d="M5 -5l0.000976562 115h25c39.333 0 61.666 26.667 66.999 80l28 320h380v-510h-125v395h-140l-20 -225c-10 -116.667 -66.667 -175 -170 -175h-45z" />
    <glyph glyph-name="uni043C" unicode="&#x43c;" horiz-adv-x="750" 
d="M65 0v510h190l110 -330h20l110 330h190v-510h-125v325h-20l-105 -325h-120l-105 325h-20v-325h-125z" />
    <glyph glyph-name="uni043D" unicode="&#x43d;" horiz-adv-x="585" 
d="M65 0v510h125v-200h205v200h125v-510h-125v190h-205v-190h-125z" />
    <glyph glyph-name="uni043E" unicode="&#x43e;" horiz-adv-x="600" 
d="M300 105c38 0 70 14 96 42s39 64 39 108s-13 80 -39 108s-58 42 -96 42s-70 -14 -96 -42s-39 -64 -39 -108s13 -80 39 -108s58 -42 96 -42zM300 520c75.333 0 137.5 -24.833 186.5 -74.5s73.5 -113.167 73.5 -190.5s-24.5 -140.833 -73.5 -190.5
s-111.167 -74.5 -186.5 -74.5s-137.5 24.833 -186.5 74.5s-73.5 113.167 -73.5 190.5s24.5 140.833 73.5 190.5s111.167 74.5 186.5 74.5z" />
    <glyph glyph-name="uni043F" unicode="&#x43f;" horiz-adv-x="585" 
d="M65 0v510h455v-510h-125v390h-205v-390h-125z" />
    <glyph glyph-name="uni0440" unicode="&#x440;" horiz-adv-x="615" 
d="M450 255c0 47.333 -12 84.166 -36 110.499s-55.333 39.5 -94 39.5s-70 -13.167 -94 -39.5s-36 -63.166 -36 -110.499s12 -84.166 36 -110.499s55.333 -39.5 94 -39.5s70 13.167 94 39.5s36 63.166 36 110.499zM65 -200v710h115l10 -55h5c9.33301 12 21 22.667 35 32
c33.333 22 70 33 110 33c66.667 0 122.5 -24.5 167.5 -73.5s67.5 -112.833 67.5 -191.5s-22.5 -142.5 -67.5 -191.5s-100.833 -73.5 -167.5 -73.5c-44 0 -81.333 10 -112 30c-13.333 9.33301 -24.333 19.333 -33 30h-5v-250h-125z" />
    <glyph glyph-name="uni0441" unicode="&#x441;" horiz-adv-x="575" 
d="M415 190l125 0.000976562c-4.66699 -22.667 -12.167 -44.667 -22.5 -66s-24.5 -42.5 -42.5 -63.5s-42.167 -38 -72.5 -51s-64.5 -19.5 -102.5 -19.5c-75.333 0 -137.5 24.833 -186.5 74.5s-73.5 113.167 -73.5 190.5s24.5 140.833 73.5 190.5s111.167 74.5 186.5 74.5
c38 0 72.167 -6.5 102.5 -19.5s54.5 -29.833 72.5 -50.5s32.167 -41.334 42.5 -62.001s17.833 -41.667 22.5 -63h-125c-20 53.333 -58.333 80 -115 80c-38 0 -70 -14 -96 -42s-39 -64 -39 -108s13 -80 39 -108s58 -42 96 -42c58.667 0 97 28.333 115 85z" />
    <glyph glyph-name="uni0442" unicode="&#x442;" horiz-adv-x="485" 
d="M180 0v395h-160v115h445v-115h-160v-395h-125z" />
    <glyph glyph-name="uni0443" unicode="&#x443;" 
d="M60 -200v115h100c20 0 32.667 8.33301 38 25l9 25l-207 545h130l130 -345h20l120 345h130l-215 -610c-12.667 -36.667 -29.5 -62.5 -50.5 -77.5s-54.167 -22.5 -99.5 -22.5h-105z" />
    <glyph glyph-name="uni0444" unicode="&#x444;" horiz-adv-x="755" 
d="M310 115h5v280h-5c-96.667 0 -145 -46.667 -145 -140s48.333 -140 145 -140zM315 -200v200c-86.667 -0 -154.167 22.833 -202.5 68.5s-72.5 107.834 -72.5 186.501s24.167 140.834 72.5 186.501s115.833 68.5 202.5 68.5v190h125v-190
c86.667 0 154.167 -22.833 202.5 -68.5s72.5 -107.834 72.5 -186.501s-24.167 -140.834 -72.5 -186.501s-115.833 -68.5 -202.5 -68.5v-200h-125zM440 115h5c96.667 0 145 46.667 145 140s-48.333 140 -145 140h-5v-280z" />
    <glyph glyph-name="uni0445" unicode="&#x445;" horiz-adv-x="510" 
d="M-5 0l170 260l-165 250h140l105 -160h20l105 160h140l-165 -250l170 -260h-140l-110 170h-20l-110 -170h-140z" />
    <glyph glyph-name="uni0446" unicode="&#x446;" horiz-adv-x="600" 
d="M65 0v510h125v-390h200v390h125v-390h70v-240h-125v120h-395z" />
    <glyph glyph-name="uni0447" unicode="&#x447;" horiz-adv-x="560" 
d="M370 0l0.00195312 180c-35.333 -26.667 -80.333 -40 -135 -40c-56.667 0 -100.834 16.5 -132.501 49.5s-47.5 81.5 -47.5 145.5v175h125v-160c0 -30 8 -53.333 24 -70s38 -25 66 -25c35.333 0 68.666 11.667 99.999 35v220h125v-510h-125z" />
    <glyph glyph-name="uni0448" unicode="&#x448;" horiz-adv-x="805" 
d="M65 0v510h125v-390h150v390h125v-390h150v390h125v-510h-675z" />
    <glyph glyph-name="uni0449" unicode="&#x449;" horiz-adv-x="825" 
d="M65 0v510h125v-390h150v390h125v-390h150v390h125v-390h70v-240h-125v120h-620z" />
    <glyph glyph-name="uni044A" unicode="&#x44a;" horiz-adv-x="590" 
d="M135 0v395h-125v115h250v-160h120c55.333 0 99.166 -16 131.499 -48s48.5 -74.333 48.5 -127s-16.167 -95 -48.5 -127s-76.166 -48 -131.499 -48h-245zM260 100l100 -0.00195312c22.667 0 40.834 6.83301 54.501 20.5s20.5 31.834 20.5 54.501
s-6.83301 40.834 -20.5 54.501s-31.834 20.5 -54.501 20.5h-100v-150z" />
    <glyph glyph-name="uni044B" unicode="&#x44b;" horiz-adv-x="735" 
d="M545 0v510h125v-510h-125zM65 0v510h125v-160h120c55.333 0 99.166 -16 131.499 -48s48.5 -74.333 48.5 -127s-16.167 -95 -48.5 -127s-76.166 -48 -131.499 -48h-245zM190 100l100 -0.00195312c22.667 0 40.834 6.83301 54.501 20.5s20.5 31.834 20.5 54.501
s-6.83301 40.834 -20.5 54.501s-31.834 20.5 -54.501 20.5h-100v-150z" />
    <glyph glyph-name="uni044C" unicode="&#x44c;" 
d="M65 0v510h125v-160h130c55.333 0 99.166 -16 131.499 -48s48.5 -74.333 48.5 -127s-16.167 -95 -48.5 -127s-76.166 -48 -131.499 -48h-255zM190 100l110 -0.00195312c22.667 0 40.834 6.83301 54.501 20.5s20.5 31.834 20.5 54.501s-6.83301 40.834 -20.5 54.501
s-31.834 20.5 -54.501 20.5h-110v-150z" />
    <glyph glyph-name="uni044D" unicode="&#x44d;" horiz-adv-x="575" 
d="M35 180l125 -0.000976562c20 -53.333 58.333 -80 115 -80c64.667 0 107.334 35 128.001 105h-178v100h178c-20.667 70 -63.334 105 -128.001 105c-56.667 0 -95 -26.667 -115 -80h-125c2 12.667 6 26.334 12 41.001s15.333 31.167 28 49.5s27.5 34.666 44.5 48.999
s39 26.333 66 36s56.833 14.5 89.5 14.5c75.333 0 137.5 -24.833 186.5 -74.5s73.5 -113.167 73.5 -190.5s-24.5 -140.833 -73.5 -190.5s-111.167 -74.5 -186.5 -74.5c-38 0 -72.167 6 -102.5 18s-54.5 27.833 -72.5 47.5s-32.167 39.834 -42.5 60.501s-17.833 42 -22.5 64z
" />
    <glyph glyph-name="uni044E" unicode="&#x44e;" horiz-adv-x="780" 
d="M65 0l-0.000976562 510h125v-200h54c10.667 64 38.334 115 83.001 153s99 57 163 57c73.333 0 133.333 -24.333 180 -73s70 -112.667 70 -192s-23.333 -143.333 -70 -192s-106.667 -73 -180 -73c-62.667 0 -116.167 18.5 -160.5 55.5s-72.5 86.833 -84.5 149.5h-55v-195
h-125zM489.999 105c36.667 0 66.667 13.333 90 40s35 63.334 35 110.001s-11.667 83.334 -35 110.001s-53.333 40 -90 40s-66.667 -13.333 -90 -40s-35 -63.334 -35 -110.001s11.667 -83.334 35 -110.001s53.333 -40 90 -40z" />
    <glyph glyph-name="uni044F" unicode="&#x44f;" horiz-adv-x="545" 
d="M25 0l160.001 174.999c-38.667 0 -73.334 16.333 -104.001 49s-46 71.334 -46 116.001c0 48 17 88.333 51 121s77 49 129 49h265v-510h-125v175h-30l-160 -175h-140zM235.001 269.999h120v140h-120c-22 0 -40 -6.66699 -54 -20s-21 -30 -21 -50s7 -36.667 21 -50
s32 -20 54 -20z" />
    <glyph glyph-name="uni0450" unicode="&#x450;" horiz-adv-x="590" 
d="M165 300h260c-6 34 -19.833 61.667 -41.5 83s-49.5 32 -83.5 32c-36 0 -65.5 -10.5 -88.5 -31.5s-38.5 -48.833 -46.5 -83.5zM405 150l130.001 0.000976562c-3.33301 -12.667 -9.83301 -26.834 -19.5 -42.501s-23.334 -33 -41.001 -52s-41.834 -34.667 -72.501 -47
s-64.667 -18.5 -102 -18.5c-75.333 0 -137.5 24.833 -186.5 74.5s-73.5 113.167 -73.5 190.5s24.5 140.833 73.5 190.5s111.167 74.5 186.5 74.5c70 0 129.167 -24.5 177.5 -73.5s72.5 -109.5 72.5 -181.5c0 -6 -1 -18 -3 -36l-2 -14h-380c5.33301 -36 20.333 -65 45 -87
s54.667 -33 90 -33c26.667 0 49.334 5.83301 68.001 17.5s31 24.167 37 37.5zM240.001 580.001l-120 145h130l95 -145h-105z" />
    <glyph glyph-name="uni0451" unicode="&#x451;" horiz-adv-x="590" 
d="M165 300h260c-6 34 -19.833 61.667 -41.5 83s-49.5 32 -83.5 32c-36 0 -65.5 -10.5 -88.5 -31.5s-38.5 -48.833 -46.5 -83.5zM405 150l130.001 0.000976562c-3.33301 -12.667 -9.83301 -26.834 -19.5 -42.501s-23.334 -33 -41.001 -52s-41.834 -34.667 -72.501 -47
s-64.667 -18.5 -102 -18.5c-75.333 0 -137.5 24.833 -186.5 74.5s-73.5 113.167 -73.5 190.5s24.5 140.833 73.5 190.5s111.167 74.5 186.5 74.5c70 0 129.167 -24.5 177.5 -73.5s72.5 -109.5 72.5 -181.5c0 -6 -1 -18 -3 -36l-2 -14h-380c5.33301 -36 20.333 -65 45 -87
s54.667 -33 90 -33c26.667 0 49.334 5.83301 68.001 17.5s31 24.167 37 37.5zM330.001 595.001v115h115v-115h-115zM145.001 595.001v115h115v-115h-115z" />
    <glyph glyph-name="uni0452" unicode="&#x452;" horiz-adv-x="610" 
d="M80 0v525h-80v110h80v75h125v-75h160v-110h-160v-125h5c8 10 19.333 20 34 30c30.667 20 66 30 106 30c58 0 105.833 -19.833 143.5 -59.5s56.5 -91.5 56.5 -155.5v-260c0 -58 -17 -103.333 -51 -136s-82 -49 -144 -49h-50v115h50c46.667 0 70 23.333 70 70v250
c0 32.667 -10.167 59.167 -30.5 79.5s-46.833 30.5 -79.5 30.5s-59.167 -10.167 -79.5 -30.5s-30.5 -46.833 -30.5 -79.5v-235h-125z" />
    <glyph glyph-name="uni0453" unicode="&#x453;" horiz-adv-x="440" 
d="M65 0v510h355v-120h-230v-390h-125zM195 580l95 145h130l-120 -145h-105z" />
    <glyph glyph-name="uni0454" unicode="&#x454;" horiz-adv-x="575" 
d="M172 305l178 0.000976562v-100h-178c20.667 -70 63.334 -105 128.001 -105c56.667 0 95 26.667 115 80h125c-4.66699 -22 -12.167 -43.333 -22.5 -64s-24.5 -40.834 -42.5 -60.501s-42.167 -35.5 -72.5 -47.5s-64.5 -18 -102.5 -18c-75.333 0 -137.5 24.833 -186.5 74.5
s-73.5 113.167 -73.5 190.5s24.5 140.833 73.5 190.5s111.167 74.5 186.5 74.5c32.667 0 62.5 -4.83301 89.5 -14.5s49 -21.667 66 -36s31.833 -30.666 44.5 -48.999s22 -34.833 28 -49.5s10 -28.334 12 -41.001h-125c-20 53.333 -58.333 80 -115 80
c-64.667 0 -107.334 -35 -128.001 -105z" />
    <glyph glyph-name="uni0455" unicode="&#x455;" horiz-adv-x="505" 
d="M30 155l120.001 0.000976562c0 -15.333 8.83301 -30 26.5 -44s42.167 -21 73.5 -21c63.333 0 95 18.333 95 55c0 16 -5 28.5 -15 37.5s-28.333 15.5 -55 19.5l-80 13c-110 18 -165 66.333 -165 145c0 44.667 19 82.5 57 113.5s90.667 46.5 158 46.5s120 -18.333 158 -55
s57 -73.334 57 -110.001h-120c0 16.667 -8.66699 31.667 -26 45s-40.333 20 -69 20s-50.834 -5.83301 -66.501 -17.5s-23.5 -25.834 -23.5 -42.501c0 -24.667 23.333 -40.334 70 -47.001l85 -13c106.667 -16 160 -67.667 160 -155c0 -44.667 -18.833 -81.667 -56.5 -111
s-92.167 -44 -163.5 -44c-36 0 -67.833 4.66699 -95.5 14s-49 20.5 -64 33.5s-27.333 27.833 -37 44.5s-16 30.834 -19 42.501s-4.5 21.834 -4.5 30.501z" />
    <glyph glyph-name="uni0456" unicode="&#x456;" horiz-adv-x="255" 
d="M65 0v510h125v-510h-125zM60 590v120h135v-120h-135z" />
    <glyph glyph-name="uni0457" unicode="&#x457;" horiz-adv-x="255" 
d="M65 0v510h125v-510h-125zM165 595v115h115v-115h-115zM-20 595v115h115v-115h-115z" />
    <glyph glyph-name="uni0458" unicode="&#x458;" horiz-adv-x="255" 
d="M-50 -200v115h80c23.333 0 35 11.667 35 35v560h125v-590c0 -36 -11.833 -65 -35.5 -87s-55.167 -33 -94.5 -33h-110zM60 590v120h135v-120h-135z" />
    <glyph glyph-name="uni0459" unicode="&#x459;" horiz-adv-x="820" 
d="M5 -5l0.000976562 115.002h25c39.333 0 61.666 26.667 66.999 80l28 320h375v-180h115c54.667 0 97.5 -14.833 128.5 -44.5s46.5 -69.834 46.5 -120.501s-15.5 -90.834 -46.5 -120.501s-73.833 -44.5 -128.5 -44.5h-240v395h-135l-20 -225
c-10 -116.667 -66.667 -175 -170 -175h-45zM500.001 100.002h95c22 0 39.167 5.83301 51.5 17.5s18.5 27.5 18.5 47.5s-6.16699 35.833 -18.5 47.5s-29.5 17.5 -51.5 17.5h-95v-130z" />
    <glyph glyph-name="uni045A" unicode="&#x45a;" horiz-adv-x="830" 
d="M65 0v510.002h125v-180h195v180h125v-180h115c54.667 0 97.5 -14.833 128.5 -44.5s46.5 -69.834 46.5 -120.501s-15.5 -90.834 -46.5 -120.501s-73.833 -44.5 -128.5 -44.5h-240v210h-195v-210h-125zM510 100.002h95c22 0 39.167 5.83301 51.5 17.5s18.5 27.5 18.5 47.5
s-6.16699 35.833 -18.5 47.5s-29.5 17.5 -51.5 17.5h-95v-130z" />
    <glyph glyph-name="uni045B" unicode="&#x45b;" horiz-adv-x="610" 
d="M80 0v525h-80v110h80v75h125v-75h160v-110h-160v-125h5c8 10 19.333 20 34 30c30.667 20 66 30 106 30c58 0 105.833 -19.833 143.5 -59.5s56.5 -91.5 56.5 -155.5v-245h-125v235c0 32.667 -10.167 59.167 -30.5 79.5s-46.833 30.5 -79.5 30.5
s-59.167 -10.167 -79.5 -30.5s-30.5 -46.833 -30.5 -79.5v-235h-125z" />
    <glyph glyph-name="uni045C" unicode="&#x45c;" horiz-adv-x="520" 
d="M65 0v510h125v-230l190 230h145l-210 -250l220 -260h-145l-200 240v-240h-125zM230 580l95 145h130l-120 -145h-105z" />
    <glyph glyph-name="uni045D" unicode="&#x45d;" horiz-adv-x="585" 
d="M65 0v510h125v-310h20l150 310h160v-510h-125v310h-20l-150 -310h-160zM245 580l-120 145h130l95 -145h-105z" />
    <glyph glyph-name="uni045E" unicode="&#x45e;" 
d="M60 -200v115h100c20 0 32.667 8.33301 38 25l9 25l-207 545h130l130 -345h20l120 345h130l-215 -610c-12.667 -36.667 -29.5 -62.5 -50.5 -77.5s-54.167 -22.5 -99.5 -22.5h-105zM110 725h95c10 -40 31.667 -60 65 -60s55 20 65 60h95
c-2.66699 -45.333 -18 -80.833 -46 -106.5s-66 -38.5 -114 -38.5s-86 12.833 -114 38.5s-43.333 61.167 -46 106.5z" />
    <glyph glyph-name="uni045F" unicode="&#x45f;" horiz-adv-x="575" 
d="M65 0v510h125v-395h195v395h125v-510h-160v-120h-125v120h-160z" />
    <glyph glyph-name="uni0462" unicode="&#x462;" horiz-adv-x="690" 
d="M130 0v510h-130v120h130v70h130v-70h190v-120h-190v-80h175c67.333 0 120.833 -19.5 160.5 -58.5s59.5 -91.167 59.5 -156.5s-19.833 -117.5 -59.5 -156.5s-93.167 -58.5 -160.5 -58.5h-305zM260 125h170c30 0 53.333 8 70 24s25 38 25 66s-8.33301 50 -25 66
s-40 24 -70 24h-170v-180z" />
    <glyph glyph-name="uni0463" unicode="&#x463;" horiz-adv-x="570" 
d="M115 0v430h-115v115h115v155h125v-155h140v-115h-140v-80h120c55.333 0 99.166 -16 131.499 -48s48.5 -74.333 48.5 -127s-16.167 -95 -48.5 -127s-76.166 -48 -131.499 -48h-245zM240 100l100 -0.00195312c22.667 0 40.834 6.83301 54.501 20.5s20.5 31.834 20.5 54.501
s-6.83301 40.834 -20.5 54.501s-31.834 20.5 -54.501 20.5h-100v-150z" />
    <glyph glyph-name="uni046A" unicode="&#x46a;" horiz-adv-x="820" 
d="M40 0v70c0 174.667 76.667 283 230 325l-200 195v110h680v-110l-200 -195c153.333 -42 230 -150.333 230 -325v-70h-130v70c0 73.333 -15.5 128.333 -46.5 165s-73.833 55 -128.5 55v-290h-130v290c-54.667 0 -97.5 -18.333 -128.5 -55s-46.5 -91.667 -46.5 -165v-70
h-130zM235 580l175 -170l175 170h-350z" />
    <glyph glyph-name="uni046B" unicode="&#x46b;" horiz-adv-x="655" 
d="M150 0h-125c0 76 17 139.5 51 190.5s78.667 82.5 134 94.5l-145 125v100h525v-100l-145 -125c55.333 -12 100 -43.5 134 -94.5s51 -114.5 51 -190.5h-125c0 121.333 -38.333 184.666 -115 189.999v-190h-125v190c-76.667 -5.33301 -115 -68.666 -115 -189.999zM200 405
l125 -110h5l125 110h-255z" />
    <glyph glyph-name="uni0472" unicode="&#x472;" horiz-adv-x="770" 
d="M385 710c96 0 176.667 -34 242 -102s98 -154 98 -258s-32.667 -190 -98 -258s-146 -102 -242 -102s-176.667 34 -242 102s-98 154 -98 258s32.667 190 98 258s146 102 242 102zM180 400c38 10 68 15 90 15c30.667 0 69.667 -5.83301 117 -17.5s85 -17.5 113 -17.5
c30.667 0 60.667 6.66699 90 20c-10 56.667 -33 101.667 -69 135s-81.333 50 -136 50c-52.667 0 -97.5 -16.5 -134.5 -49.5s-60.5 -78.167 -70.5 -135.5zM180 300c10 -56.667 33 -101.667 69 -135s81.333 -50 136 -50c52.667 0 98 17.167 136 51.5s61 78.833 69 133.5
c-23.333 -10 -53.333 -15 -90 -15c-31.333 0 -71 5.83301 -119 17.5s-85 17.5 -111 17.5c-30.667 0 -60.667 -6.66699 -90 -20z" />
    <glyph glyph-name="uni0473" unicode="&#x473;" horiz-adv-x="600" 
d="M300 520c75.333 0 137.5 -24.833 186.5 -74.5s73.5 -113.167 73.5 -190.5s-24.5 -140.833 -73.5 -190.5s-111.167 -74.5 -186.5 -74.5s-137.5 24.833 -186.5 74.5s-73.5 113.167 -73.5 190.5s24.5 140.833 73.5 190.5s111.167 74.5 186.5 74.5zM430 210
c-9.33301 -2.66699 -16.332 -4.33301 -20.999 -5c-16.667 -3.33301 -31.334 -5 -44.001 -5c-16.667 0 -39 3.33301 -67 10s-50.667 10 -68 10c-15.333 0 -29 -1.66699 -41 -5l-19 -5.00098c14.667 -70 58 -105 130 -105c33.333 0 61.5 8.83301 84.5 26.5
s38.167 43.834 45.5 78.501zM170.001 300.001c4.66699 0.666992 11.667 2.33301 21 5c13.333 3.33301 28 5 44 5c16.667 0 39 -3.33301 67 -10s50.667 -10 68 -10c14 0 27.667 1.66699 41 5c4.66699 0.666992 11 2.33398 19 5.00098c-14.667 70 -58 105 -130 105
c-33.333 0 -61.5 -8.83301 -84.5 -26.5s-38.167 -43.834 -45.5 -78.501z" />
    <glyph glyph-name="uni0474" unicode="&#x474;" horiz-adv-x="705" 
d="M245 0l-239.999 700h145l180 -540h20l125 370c21.333 62.667 46.166 107.5 74.499 134.5s61.833 40.5 100.5 40.5c19.333 0 35 -1.66699 47 -5l18 -5v-130l-10 5c-8 3.33301 -16.333 5 -25 5c-17.333 0 -31.5 -5.16699 -42.5 -15.5s-20.167 -26.833 -27.5 -49.5
l-175 -510h-190z" />
    <glyph glyph-name="uni0475" unicode="&#x475;" horiz-adv-x="550" 
d="M180 0l-175.001 510h130l120 -355h20l75 221c16.667 49.333 36 85.666 58 108.999s51 35 87 35c14 0 28.333 -3.33301 43 -10c6.66699 -2.66699 12.334 -6 17.001 -10v-105c-2 0.666992 -5 2.33398 -9 5.00098c-8 3.33301 -15 5 -21 5c-16 0 -27.5 -4.33301 -34.5 -13
s-13.833 -22.667 -20.5 -42l-120 -350h-170z" />
    <glyph glyph-name="uni048A" unicode="&#x48a;" horiz-adv-x="740" 
d="M75 0v700h130v-485h20l250 485h175v-575h100v-20l-80 -245h-100l25 140h-75v485h-20l-250 -485h-175zM205 920h95c10 -40 31.667 -60 65 -60s55 20 65 60h95c-2.66699 -45.333 -18 -80.833 -46 -106.5s-66 -38.5 -114 -38.5s-86 12.833 -114 38.5
s-43.333 61.167 -46 106.5z" />
    <glyph glyph-name="uni048B" unicode="&#x48b;" horiz-adv-x="600" 
d="M65 0v510h125v-310h20l150 310h160v-390h90v-25l-80 -215h-85l20 120h-70v310h-20l-150 -310h-160zM135 725h95c10 -40 31.667 -60 65 -60s55 20 65 60h95c-2.66699 -45.333 -18 -80.833 -46 -106.5s-66 -38.5 -114 -38.5s-86 12.833 -114 38.5s-43.333 61.167 -46 106.5
z" />
    <glyph glyph-name="uni048C" unicode="&#x48c;" horiz-adv-x="690" 
d="M130 0v510h-130v120h130v70h130v-70h190v-120h-190v-80h175c67.333 0 120.833 -19.5 160.5 -58.5s59.5 -91.167 59.5 -156.5s-19.833 -117.5 -59.5 -156.5s-93.167 -58.5 -160.5 -58.5h-305zM260 125h170c30 0 53.333 8 70 24s25 38 25 66s-8.33301 50 -25 66
s-40 24 -70 24h-170v-180z" />
    <glyph glyph-name="uni048D" unicode="&#x48d;" horiz-adv-x="570" 
d="M115 0v430h-115v115h115v155h125v-155h140v-115h-140v-80h120c55.333 0 99.166 -16 131.499 -48s48.5 -74.333 48.5 -127s-16.167 -95 -48.5 -127s-76.166 -48 -131.499 -48h-245zM240 100l100 -0.00195312c22.667 0 40.834 6.83301 54.501 20.5s20.5 31.834 20.5 54.501
s-6.83301 40.834 -20.5 54.501s-31.834 20.5 -54.501 20.5h-100v-150z" />
    <glyph glyph-name="uni048E" unicode="&#x48e;" horiz-adv-x="650" 
d="M75 0v700h315c66 0 119.167 -21.333 159.5 -64s60.5 -99.667 60.5 -171c0 -80 -25.333 -142 -76 -186l46 -64l-80 -45l-48 67c-18 -4.66699 -38.667 -7 -62 -7h-185v-230h-130zM205 355l163 -0.000976562l-43 60l80 45l51 -72c16 18.667 24 44.334 24 77.001
c0 34.667 -8.66699 61.667 -26 81s-40.333 29 -69 29h-180v-220z" />
    <glyph glyph-name="uni048F" unicode="&#x48f;" horiz-adv-x="615" 
d="M65 -200v710h115l10 -55h5c9.33301 12 21 22.667 35 32c33.333 22 70 33 110 33c66.667 0 122.5 -24.5 167.5 -73.5s67.5 -112.833 67.5 -191.5c0 -82.667 -25.667 -149.667 -77 -201l52 -74l-75 -40l-47 67c-28.667 -11.333 -58 -17 -88 -17c-44 0 -81.333 10 -112 30
c-13.333 9.33301 -24.333 19.333 -33 30h-5v-250h-125zM357 110l-52 74.998l75 40l45 -65c16.667 24.667 25 56.334 25 95.001c0 47.333 -12 84.166 -36 110.499s-55.333 39.5 -94 39.5s-70 -13.167 -94 -39.5s-36 -63.166 -36 -110.499s12 -84.166 36 -110.499
s55.333 -39.5 94 -39.5c10 0 22.333 1.66699 37 5z" />
    <glyph glyph-name="uni0490" unicode="&#x490;" horiz-adv-x="555" 
d="M75 0v700h331v140h129v-265h-330v-575h-130z" />
    <glyph glyph-name="uni0491" unicode="&#x491;" horiz-adv-x="445" 
d="M65 0v510h245v125h115v-245h-235v-390h-125z" />
    <glyph glyph-name="uni0492" unicode="&#x492;" horiz-adv-x="580" 
d="M110 0v290h-100v120h100v290h450v-120h-320v-170h190v-120h-190v-290h-130z" />
    <glyph glyph-name="uni0493" unicode="&#x493;" horiz-adv-x="460" 
d="M85 0v185h-80v105h80v220h355v-115h-230v-105h165v-105h-165v-185h-125z" />
    <glyph glyph-name="uni0494" unicode="&#x494;" horiz-adv-x="645" 
d="M75 0l0.000976562 700h460v-125h-330v-200c11.333 6.66699 23.333 12.334 36 17.001c32 12 66.667 18 104 18c78 0 140.833 -24.667 188.5 -74s71.5 -116.333 71.5 -201s-25.5 -152.5 -76.5 -203.5s-118.833 -76.5 -203.5 -76.5v130c45.333 0 81.666 13.667 108.999 41
s41 63.666 41 108.999s-12.833 80.833 -38.5 106.5s-61.167 38.5 -106.5 38.5c-30 0 -60.333 -6 -91 -18c-10.667 -4 -22 -9.66699 -34 -17v-245h-130z" />
    <glyph glyph-name="uni0495" unicode="&#x495;" horiz-adv-x="540" 
d="M65 0v510h355v-120h-230v-120c9.33301 5.33301 19.333 9.33301 30 12c23.333 8.66699 48.333 13 75 13c66 0 118.333 -21.167 157 -63.5s58 -102.833 58 -181.5c0 -82.667 -20.333 -145 -61 -187s-100.334 -63 -179.001 -63v115c38.667 2.66699 67.5 14.667 86.5 36
s28.5 54.333 28.5 99c0 39.333 -10 70 -30 92s-46.667 33 -80 33c-23.333 0 -44.333 -4.33301 -63 -13c-7.33301 -2.66699 -14.666 -6.66699 -21.999 -12v-150h-125z" />
    <glyph glyph-name="uni0496" unicode="&#x496;" horiz-adv-x="850" 
d="M-15 0l235 355l-215 345h160l190 -315v315h130v-315l190 315h160l-215 -345l152 -230h78v-265h-130v140h-25l-210 325v-325h-130v325l-210 -325h-160z" />
    <glyph glyph-name="uni0497" unicode="&#x497;" horiz-adv-x="710" 
d="M-5 0l165 260l-155 250h145l140 -230v230h125v-230l140 230h145l-155 -250l89 -140h76v-240h-125v120h-20l-150 240v-240h-125v240l-150 -240h-145z" />
    <glyph glyph-name="uni0498" unicode="&#x498;" horiz-adv-x="615" 
d="M240 -140v135c-64.667 9.33301 -115 33.5 -151 72.5s-54 86.5 -54 142.5h130c0 -28 11.333 -51.667 34 -71s56.334 -29 101.001 -29c45.333 0 80 9 104 27s36 40.667 36 68c0 26.667 -11.167 49.167 -33.5 67.5s-52.833 27.5 -91.5 27.5h-70v110h70
c36 0 64.167 8 84.5 24s30.5 34.667 30.5 56c0 28 -11 51.667 -33 71s-54.333 29 -97 29c-38.667 0 -69.167 -9.5 -91.5 -28.5s-33.5 -42.833 -33.5 -71.5h-130c0 64 23 116.667 69 158s108 62 186 62c79.333 0 142.5 -19.833 189.5 -59.5s70.5 -88.167 70.5 -145.5
c0 -46.667 -16 -85.334 -48 -116.001c-12.667 -11.333 -28.334 -21 -47.001 -29v-5c20 -8.66699 37.333 -19.667 52 -33c35.333 -31.333 53 -73.666 53 -126.999c0 -49.333 -17.5 -92.333 -52.5 -129s-84.167 -60 -147.5 -70v-136h-130z" />
    <glyph glyph-name="uni0499" unicode="&#x499;" horiz-adv-x="505" 
d="M185 -120v116.999c-50 10 -88.333 30.833 -115 62.5s-40 68.5 -40 110.5h125c0 -21.333 8.66699 -40 26 -56s40.333 -24 69 -24c30.667 0 54.167 6.16699 70.5 18.5s24.5 27.833 24.5 46.5c0 36.667 -30 55 -90 55h-55v90h55c26.667 0 46.667 5.83301 60 17.5
s20 25.834 20 42.501s-7.5 30.834 -22.5 42.501s-35.833 17.5 -62.5 17.5s-48.334 -7 -65.001 -21s-25 -30.333 -25 -49h-125c0 45.333 19.667 85 59 119s91.333 51 156 51s115.834 -15.5 153.501 -46.5s56.5 -68.833 56.5 -113.5c0 -32.667 -11.667 -59.334 -35 -80.001
c-10 -8 -21.667 -14.667 -35 -20v-5c7.33301 -2 14.5 -5 21.5 -9s15.5 -10 25.5 -18s18 -19.167 24 -33.5s9 -30.833 9 -49.5c0 -38 -13.667 -70.667 -41 -98s-67 -45 -119 -53v-114h-125z" />
    <glyph glyph-name="uni049A" unicode="&#x49a;" horiz-adv-x="610" 
d="M75 0v700h130v-315l240 315h160l-265 -345l184 -229h81v-266h-130v140h-10l-260 325v-325h-130z" />
    <glyph glyph-name="uni049B" unicode="&#x49b;" 
d="M65 0v510h125v-230l190 230h145l-210 -250l118 -140h97v-240h-125v120h-15l-200 240v-240h-125z" />
    <glyph glyph-name="uni049C" unicode="&#x49c;" horiz-adv-x="670" 
d="M75 0v700h130v-290h35v100h80v-100h24l161 290h160l-205 -345l225 -355h-160l-171 285h-34v-100h-80v100h-35v-285h-130z" />
    <glyph glyph-name="uni049D" unicode="&#x49d;" horiz-adv-x="565" 
d="M65 0v510h125v-205h30v80h65v-80h14l121 205h145l-155 -250l165 -260h-145l-133 220h-12v-85h-65v85h-30v-220h-125z" />
    <glyph glyph-name="uni049E" unicode="&#x49e;" horiz-adv-x="625" 
d="M95 0v530h-95v110h95v60h130v-60h65v-110h-65v-145l240 315h160l-265 -345l285 -355h-160l-260 325v-325h-130z" />
    <glyph glyph-name="uni049F" unicode="&#x49f;" horiz-adv-x="535" 
d="M80 0v530h-80v110h80v60h125v-60h110v-110h-110v-250l190 230h145l-210 -250l220 -260h-145l-200 240v-240h-125z" />
    <glyph glyph-name="uni04A0" unicode="&#x4a0;" horiz-adv-x="650" 
d="M120 0v575h-120v125h250v-315l240 315h160l-265 -345l285 -355h-160l-260 325v-325h-130z" />
    <glyph glyph-name="uni04A1" unicode="&#x4a1;" horiz-adv-x="560" 
d="M105 0v400h-105v110h230v-230l190 230h145l-210 -250l220 -260h-145l-200 240v-240h-125z" />
    <glyph glyph-name="uni04A2" unicode="&#x4a2;" horiz-adv-x="745" 
d="M75 0v700h130v-280h315v280h130v-575h75v-265h-130v140h-75v290h-315v-290h-130z" />
    <glyph glyph-name="uni04A3" unicode="&#x4a3;" horiz-adv-x="605" 
d="M65 0v510h125v-200h205v200h125v-390h70v-240h-125v120h-70v190h-205v-190h-125z" />
    <glyph glyph-name="uni04A4" unicode="&#x4a4;" horiz-adv-x="960" 
d="M75 0v700h130v-280h295v280h440v-125h-310v-575h-130v290h-295v-290h-130z" />
    <glyph glyph-name="uni04A5" unicode="&#x4a5;" horiz-adv-x="740" 
d="M65 0v510h125v-200h195v200h335v-120h-210v-390h-125v190h-195v-190h-125z" />
    <glyph glyph-name="uni04A6" unicode="&#x4a6;" horiz-adv-x="1050" 
d="M75 0l0.000976562 700h535v-325c11.333 6.66699 23.333 12.334 36 17.001c32 12 66.667 18 104 18c78 0 140.833 -24.667 188.5 -74s71.5 -116.333 71.5 -201s-25.333 -152.5 -76 -203.5s-118.667 -76.5 -204 -76.5v130c45.333 0 81.666 13.667 108.999 41
s41 63.666 41 108.999s-12.833 80.833 -38.5 106.5s-61.167 38.5 -106.5 38.5c-30 0 -60.333 -6 -91 -18c-10.667 -4 -22 -9.66699 -34 -17v-245h-130v575h-275v-575h-130z" />
    <glyph glyph-name="uni04A7" unicode="&#x4a7;" horiz-adv-x="835" 
d="M65 0v510h425v-240c9.33301 5.33301 19.333 9.33301 30 12c23.333 8.66699 48.333 13 75 13c66 0 118.333 -21.167 157 -63.5s58 -102.833 58 -181.5c0 -82.667 -20.333 -145 -61 -187s-100.334 -63 -179.001 -63v115c38.667 2.66699 67.5 14.667 86.5 36
s28.5 54.333 28.5 99c0 39.333 -10 70 -30 92s-46.667 33 -80 33c-23.333 0 -44.333 -4.33301 -63 -13c-7.33301 -2.66699 -14.666 -6.66699 -21.999 -12v-150h-125v390h-175v-390h-125z" />
    <glyph glyph-name="uni04A8" unicode="&#x4a8;" horiz-adv-x="850" 
d="M565 160c29.333 15.333 55 42.667 77 82s33 82 33 128c0 56.667 -10.333 99.167 -31 127.5s-47 42.5 -79 42.5s-58.333 -14.167 -79 -42.5s-31 -70.833 -31 -127.5c0 -46.667 11 -89.5 33 -128.5s47.667 -66.167 77 -81.5zM770 115.001l-0.00292969 -124.997
c-96.667 0 -166.667 11.667 -210 35c-38.667 -23.333 -98.667 -35 -180 -35c-96 0 -175.833 33.5 -239.5 100.5s-95.5 153.5 -95.5 259.5c0 105.333 32.333 191.666 97 258.999s139 101 223 101v-130c-54.667 -2.66699 -100 -24.667 -136 -66s-54 -96 -54 -164
c0 -68.667 20 -125 60 -169s88.333 -66 145 -66c18 0 33.667 1.66699 47 5c6 0.666992 12 2.33398 18 5.00098c-37.333 28 -66.666 64.667 -87.999 110s-32 93.666 -32 144.999c0 86 22.833 155 68.5 207s102.834 78 171.501 78s125.834 -26 171.501 -78
s68.5 -121 68.5 -207c0 -50.667 -10.667 -98.834 -32 -144.501s-50.666 -82.5 -87.999 -110.5c9.33301 -2.66699 16.666 -4.33398 21.999 -5.00098c16.667 -3.33301 37.667 -5 63 -5z" />
    <glyph glyph-name="uni04A9" unicode="&#x4a9;" horiz-adv-x="660" 
d="M440 140c14 10.667 26.667 28.5 38 53.5s17 50.5 17 76.5c0 28.667 -5.16699 50.834 -15.5 66.501s-23.5 23.5 -39.5 23.5s-29.167 -7.83301 -39.5 -23.5s-15.5 -37.834 -15.5 -66.501c0 -26 5.66699 -51.5 17 -76.5s24 -42.833 38 -53.5zM605 100l0.000976562 -110
c-71.333 0 -126.333 11.667 -165 35c-38.667 -23.333 -82 -35 -130 -35c-80 0 -145 24.667 -195 74s-75 113 -75 191c0 76 23.333 137.667 70 185s103.334 74 170.001 80v-120c-34 -6 -61.667 -21.5 -83 -46.5s-32 -57.833 -32 -98.5c0 -46.667 12.833 -84.167 38.5 -112.5
s57.834 -42.5 96.501 -42.5c7.33301 0 15.666 0.666992 24.999 2l10 3c-50 50 -75 108.333 -75 175c0 58.667 17.167 105.834 51.5 141.501s77.166 53.5 128.499 53.5s94.166 -17.833 128.499 -53.5s51.5 -82.834 51.5 -141.501c0 -66.667 -25 -125 -75 -175
c10 -3.33301 30 -5 60 -5z" />
    <glyph glyph-name="uni04AA" unicode="&#x4aa;" horiz-adv-x="735" 
d="M320 -140l-0.000976562 137.005c-80.667 15.333 -146.667 55.166 -198 119.499s-77 142.166 -77 233.499c0 104 32.667 190 98 258s146 102 242 102c39.333 0 75.833 -5.83301 109.5 -17.5s61.834 -26.5 84.501 -44.5s42.667 -38.833 60 -62.5
s30.666 -46.167 39.999 -67.5s16.333 -42.333 21 -63h-135c-13.333 34.667 -34.833 65 -64.5 91s-68.167 39 -115.5 39c-61.333 0 -111.666 -21.5 -150.999 -64.5s-59 -99.833 -59 -170.5s19.667 -127.5 59 -170.5s89.666 -64.5 150.999 -64.5c48 0 86.833 13.333 116.5 40
s50.834 58.334 63.501 95.001h135c-4 -20.667 -11.167 -42.834 -21.5 -66.501s-24.833 -48.834 -43.5 -75.501s-44.167 -50.334 -76.5 -71.001s-68.5 -34.334 -108.5 -41.001v-136h-130z" />
    <glyph glyph-name="uni04AB" unicode="&#x4ab;" horiz-adv-x="575" 
d="M235 -120l0.00195312 117.001c-58.667 13.333 -105.834 43.333 -141.501 90s-53.5 102.667 -53.5 168c0 77.333 24.5 140.833 73.5 190.5s111.167 74.5 186.5 74.5c38 0 72.167 -6.5 102.5 -19.5s54.5 -29.833 72.5 -50.5s32.167 -41.334 42.5 -62.001
s17.833 -41.667 22.5 -63h-125c-20 53.333 -58.333 80 -115 80c-38 0 -70 -14 -96 -42s-39 -64 -39 -108s13 -80 39 -108s58 -42 96 -42c58.667 0 97 28.333 115 85h125c-4.66699 -26 -13.334 -51.333 -26.001 -76s-32.5 -48.5 -59.5 -71.5s-58.5 -38.167 -94.5 -45.5v-117
h-125z" />
    <glyph glyph-name="uni04AC" unicode="&#x4ac;" horiz-adv-x="590" 
d="M305 -140v140h-75v575h-210v125h550v-125h-210v-450h75v-265h-130z" />
    <glyph glyph-name="uni04AD" unicode="&#x4ad;" horiz-adv-x="485" 
d="M250 -120v120h-70v395h-160v115h445v-115h-160v-275h70v-240h-125z" />
    <glyph glyph-name="uni04AE" unicode="&#x4ae;" horiz-adv-x="620" 
d="M245 0v240l-255 460h145l165 -300h20l165 300h145l-255 -460v-240h-130z" />
    <glyph glyph-name="uni04AF" unicode="&#x4af;" 
d="M205 -200v200h-20l-185 510h130l125 -360h20l125 360h130l-185 -510h-15v-200h-125z" />
    <glyph glyph-name="uni04B0" unicode="&#x4b0;" horiz-adv-x="620" 
d="M245 0v235h-165v115h104l-194 350h145l165 -300h20l165 300h145l-194 -350h104v-115h-165v-235h-130z" />
    <glyph glyph-name="uni04B1" unicode="&#x4b1;" 
d="M205 -200v200h-135v110h75l-145 400h130l125 -360h20l125 360h130l-145 -400h75v-110h-130v-200h-125z" />
    <glyph glyph-name="uni04B2" unicode="&#x4b2;" horiz-adv-x="645" 
d="M-5 0l240 360l-225 340h155l150 -230h20l150 230h155l-225 -340l156 -235h74v-265h-130v140h-15l-165 250h-20l-165 -250h-155z" />
    <glyph glyph-name="uni04B3" unicode="&#x4b3;" horiz-adv-x="520" 
d="M0 0l170 260l-165 250h140l105 -160h20l105 160h140l-165 -250l91 -140h79v-240h-125v120h-15l-110 170h-20l-110 -170h-140z" />
    <glyph glyph-name="uni04B4" unicode="&#x4b4;" horiz-adv-x="850" 
d="M200 0v575h-180v125h485v-125h-175v-450h295v575h130v-575h75v-265h-130v140h-500z" />
    <glyph glyph-name="uni04B5" unicode="&#x4b5;" horiz-adv-x="690" 
d="M155 0v395h-135v115h385v-115h-125v-275h200v390h125v-390h70v-240h-125v120h-395z" />
    <glyph glyph-name="uni04B6" unicode="&#x4b6;" horiz-adv-x="705" 
d="M555 -140l-0.000976562 140h-75v265c-13.333 -10 -29.333 -19.333 -48 -28c-37.333 -18 -79.666 -27 -126.999 -27c-160 0 -240 85 -240 255v235h130v-225c0 -93.333 45 -140 135 -140c41.333 0 78.333 9 111 27c16 8.66699 29 18 39 28v310h130v-575h75v-265h-130z" />
    <glyph glyph-name="uni04B7" unicode="&#x4b7;" horiz-adv-x="580" 
d="M440 -120l0.00195312 120h-70v180c-35.333 -26.667 -80.333 -40 -135 -40c-56.667 0 -100.834 16.5 -132.501 49.5s-47.5 81.5 -47.5 145.5v175h125v-160c0 -30 8 -53.333 24 -70s38 -25 66 -25c35.333 0 68.666 11.667 99.999 35v220h125v-390h70v-240h-125z" />
    <glyph glyph-name="uni04B8" unicode="&#x4b8;" horiz-adv-x="685" 
d="M300 125v84.999c-76 0 -134.167 21.333 -174.5 64s-60.5 106.334 -60.5 191.001v235h130v-225c0 -84 35 -130 105 -138v113h80v-110c26 6 50.667 16.333 74 31c14 10 22.667 16.333 26 19v310h130v-700h-130v265c-12 -8 -21.333 -13.667 -28 -17
c-31.333 -14.667 -55.333 -24 -72 -28v-95h-80z" />
    <glyph glyph-name="uni04B9" unicode="&#x4b9;" horiz-adv-x="560" 
d="M245 85l0.000976562 55h-10c-56.667 0 -100.834 16.5 -132.501 49.5s-47.5 81.5 -47.5 145.5v175h125v-160c0 -50.667 21.667 -81.667 65 -93v98h65v-96c18 4.66699 38 15 60 31v220h125v-510h-125v180c-16.667 -12.667 -36.667 -22.667 -60 -30v-65h-65z" />
    <glyph glyph-name="uni04BA" unicode="&#x4ba;" horiz-adv-x="685" 
d="M75 0v700h130v-265c14 10 30 19 48 27c38.667 18.667 81 28 127 28c160 0 240 -85 240 -255v-235h-130v225c0 93.333 -45 140 -135 140c-40.667 0 -77.667 -9.33301 -111 -28c-14.667 -8 -27.667 -17 -39 -27v-310h-130z" />
    <glyph glyph-name="uni04BB" unicode="&#x4bb;" horiz-adv-x="600" 
d="M70 0v700h125v-240h5c8 10 19.333 20 34 30c30.667 20 66 30 106 30c58 0 105.833 -19.833 143.5 -59.5s56.5 -91.5 56.5 -155.5v-305h-125v295c0 32.667 -10.167 59.167 -30.5 79.5s-46.833 30.5 -79.5 30.5s-59.167 -10.167 -79.5 -30.5s-30.5 -46.833 -30.5 -79.5
v-295h-125z" />
    <glyph glyph-name="uni04BC" unicode="&#x4bc;" horiz-adv-x="865" 
d="M0 430l0.00195312 40.001h105v-15c0 -20 3.16699 -33.333 9.5 -40s18.166 -10 35.499 -10h8c12 89.333 49.167 162.5 111.5 219.5s135.833 85.5 220.5 85.5c93.333 0 171.666 -33.5 234.999 -100.5s95 -148.5 95 -244.5v-65h-530c8 -54 29.833 -98.333 65.5 -133
s80.5 -52 134.5 -52c38.667 0 73.5 9.66699 104.5 29s54.5 44.666 70.5 75.999h145c-22.667 -72 -62.667 -128.333 -120 -169s-124 -61 -200 -61c-86 0 -160.167 28.833 -222.5 86.5s-98.833 132.167 -109.5 223.5h-13c-52 0 -89.167 10.167 -111.5 30.5
s-33.5 53.5 -33.5 99.5zM290.002 405.001h394.999c-5.33301 52 -26.666 95 -63.999 129s-81 51 -131 51c-53.333 0 -98 -17 -134 -51s-58 -77 -66 -129z" />
    <glyph glyph-name="uni04BD" unicode="&#x4bd;" horiz-adv-x="675" 
d="M0 320l0.000976562 30h90v-15c0 -15.333 1.83301 -25 5.5 -29s11.834 -6 24.501 -6h8c9.33301 65.333 37.666 118.333 84.999 159s104.666 61 171.999 61c70 0 129.167 -24.5 177.5 -73.5s72.5 -109.5 72.5 -181.5c0 -6 -1 -18 -3 -36l-2 -14h-380
c5.33301 -36 20.333 -65 45 -87s54.667 -33 90 -33c26.667 0 49.334 5.83301 68.001 17.5s31 24.167 37 37.5h130c-3.33301 -12.667 -9.83301 -26.834 -19.5 -42.501s-23.334 -33 -41.001 -52s-41.834 -34.667 -72.501 -47s-64.667 -18.5 -102 -18.5
c-68 0 -125.667 20.833 -173 62.5s-75.666 95.834 -84.999 162.501h-27c-36 0 -61.667 8 -77 24s-23 43 -23 81zM250.001 300h260c-6 34 -19.833 61.667 -41.5 83s-49.5 32 -83.5 32c-36 0 -65.5 -10.5 -88.5 -31.5s-38.5 -48.833 -46.5 -83.5z" />
    <glyph glyph-name="uni04BE" unicode="&#x4be;" horiz-adv-x="865" 
d="M426 -140l-0.000976562 137.002c-70.667 13.333 -130.667 47.333 -180 102s-78.666 121.667 -87.999 201h-13c-52 0 -89.167 10.167 -111.5 30.5s-33.5 53.5 -33.5 99.5v40h105v-15c0 -20 3.16699 -33.333 9.5 -40s18.166 -10 35.499 -10h8
c12 89.333 49.167 162.5 111.5 219.5s135.833 85.5 220.5 85.5c93.333 0 171.666 -33.5 234.999 -100.5s95 -148.5 95 -244.5v-65h-530c8 -54 29.833 -98.333 65.5 -133s80.5 -52 134.5 -52c38.667 0 73.5 9.66699 104.5 29s54.5 44.666 70.5 75.999h145
c-19.333 -61.333 -51.166 -111.333 -95.499 -150s-97.166 -63.334 -158.499 -74.001v-136h-130zM289.999 405.002h394.999c-5.33301 52 -26.666 95 -63.999 129s-81 51 -131 51c-53.333 0 -98 -17 -134 -51s-58 -77 -66 -129z" />
    <glyph glyph-name="uni04BF" unicode="&#x4bf;" horiz-adv-x="675" 
d="M320 -120v118c-52 11.333 -95.333 36.333 -130 75s-55.667 86 -63 142h-27c-36 0 -61.667 8 -77 24s-23 43 -23 81v30h90v-15c0 -15.333 1.83301 -25 5.5 -29s11.834 -6 24.501 -6h8c9.33301 65.333 37.666 118.333 84.999 159s104.666 61 171.999 61
c70 0 129.167 -24.5 177.5 -73.5s72.5 -109.5 72.5 -181.5c0 -6 -1 -18 -3 -36l-2 -14h-380c5.33301 -36 20.333 -65 45 -87s54.667 -33 90 -33c26.667 0 49.334 5.83301 68.001 17.5s31 24.167 37 37.5h130c-6 -26 -24 -55.5 -54 -88.5s-70.333 -54.833 -121 -65.5v-116
h-125zM250 300h260c-6 34 -19.833 61.667 -41.5 83s-49.5 32 -83.5 32c-36 0 -65.5 -10.5 -88.5 -31.5s-38.5 -48.833 -46.5 -83.5z" />
    <glyph glyph-name="uni04C0" unicode="&#x4c0;" horiz-adv-x="280" 
d="M75 0v700h130v-700h-130z" />
    <glyph glyph-name="uni04C1" unicode="&#x4c1;" horiz-adv-x="840" 
d="M-15 0l235 355l-215 345h160l190 -315v315h130v-315l190 315h160l-215 -345l235 -355h-160l-210 325v-325h-130v325l-210 -325h-160zM260 915h95c10 -40 31.667 -60 65 -60s55 20 65 60h95c-2.66699 -45.333 -18 -80.833 -46 -106.5s-66 -38.5 -114 -38.5
s-86 12.833 -114 38.5s-43.333 61.167 -46 106.5z" />
    <glyph glyph-name="uni04C2" unicode="&#x4c2;" horiz-adv-x="705" 
d="M-5 0l165 260l-155 250h145l140 -230v230h125v-230l140 230h145l-155 -250l165 -260h-145l-150 240v-240h-125v240l-150 -240h-145zM195 725h95c10 -40 31.667 -60 65 -60s55 20 65 60h95c-2.66699 -45.333 -18 -80.833 -46 -106.5s-66 -38.5 -114 -38.5
s-86 12.833 -114 38.5s-43.333 61.167 -46 106.5z" />
    <glyph glyph-name="uni04C3" unicode="&#x4c3;" horiz-adv-x="640" 
d="M75 0l0.000976562 700.002h130v-315l240 315h160l-225 -292c69.333 -6.66699 124.166 -34.834 164.499 -84.501s60.5 -112.5 60.5 -188.5c0 -88.667 -25.167 -157.5 -75.5 -206.5s-121.833 -73.5 -214.5 -73.5v130c52 0 91.667 13 119 39s41 63 41 111
c0 46 -12.833 82.5 -38.5 109.5s-61.167 40.5 -106.5 40.5c-32.667 0 -63 -6.66699 -91 -20c-10.667 -4.66699 -22 -11.334 -34 -20.001v-245h-130z" />
    <glyph glyph-name="uni04C4" unicode="&#x4c4;" horiz-adv-x="555" 
d="M65 0l-0.000976562 510h125v-230l190 230h145l-180 -215c58.667 -12 103.334 -37.167 134.001 -75.5s46 -94.833 46 -169.5c0 -83.333 -22.5 -147.5 -67.5 -192.5s-105.833 -67.5 -182.5 -67.5v120c83.333 5.33301 125 52 125 140c0 90 -40 135 -120 135
c-21.333 0 -43.333 -5 -66 -15c-9.33301 -5.33301 -17.333 -10.333 -24 -15v-155h-125z" />
    <glyph glyph-name="uni04C5" unicode="&#x4c5;" horiz-adv-x="710" 
d="M5 -5v125h30c44.667 0 69.667 30 75 90l40 490h470v-575h100v-20l-80 -245h-100l25 140h-75v575h-220l-30 -395c-10 -123.333 -73.333 -185 -190 -185h-45z" />
    <glyph glyph-name="uni04C6" unicode="&#x4c6;" horiz-adv-x="585" 
d="M5 -5l0.000976562 115h25c39.333 0 61.666 26.667 66.999 80l28 320h380v-390h90v-25l-80 -215h-85l20 120h-70v395h-140l-20 -225c-10 -116.667 -66.667 -175 -170 -175h-45z" />
    <glyph glyph-name="uni04C7" unicode="&#x4c7;" horiz-adv-x="725" 
d="M75 0v700h130v-280h315v280h130v-690c0 -79.333 -15.833 -135.833 -47.5 -169.5s-84.167 -50.5 -157.5 -50.5h-25v135h20c53.333 0 80 25 80 75v290h-315v-290h-130z" />
    <glyph glyph-name="uni04C8" unicode="&#x4c8;" horiz-adv-x="585" 
d="M65 0l-0.000976562 510h125v-200h205v200h125v-545c0 -56.667 -14.667 -100 -44 -130s-69.666 -45 -120.999 -45h-40v120h20c22 0 37.5 5 46.5 15s13.5 26.667 13.5 50v215h-205v-190h-125z" />
    <glyph glyph-name="uni04C9" unicode="&#x4c9;" horiz-adv-x="740" 
d="M75 0v700h130v-280h315v280h130v-575h100v-20l-80 -245h-100l25 140h-75v290h-315v-290h-130z" />
    <glyph glyph-name="uni04CA" unicode="&#x4ca;" horiz-adv-x="600" 
d="M65 0v510h125v-200h205v200h125v-390h90v-25l-80 -215h-85l20 120h-70v190h-205v-190h-125z" />
    <glyph glyph-name="uni04CB" unicode="&#x4cb;" horiz-adv-x="685" 
d="M405 -140l-0.000976562 245h75v160c-13.333 -10 -29.333 -19.333 -48 -28c-37.333 -18 -79.666 -27 -126.999 -27c-160 0 -240 85 -240 255v235h130v-225c0 -93.333 45 -140 135 -140c41.333 0 78.333 9 111 27c16 8.66699 29 18 39 28v310h130v-700h-75v-140h-130z" />
    <glyph glyph-name="uni04CC" unicode="&#x4cc;" horiz-adv-x="560" 
d="M300 -120l0.00195312 205h70v95c-35.333 -26.667 -80.333 -40 -135 -40c-56.667 0 -100.834 16.5 -132.501 49.5s-47.5 81.5 -47.5 145.5v175h125v-160c0 -30 8 -53.333 24 -70s38 -25 66 -25c35.333 0 68.666 11.667 99.999 35v220h125v-510h-70v-120h-125z" />
    <glyph glyph-name="uni04CD" unicode="&#x4cd;" horiz-adv-x="935" 
d="M75 0v700h210l165 -490h20l165 490h210v-575h100v-20l-80 -245h-100l25 140h-75v485h-20l-165 -485h-140l-165 485h-20v-485h-130z" />
    <glyph glyph-name="uni04CE" unicode="&#x4ce;" horiz-adv-x="765" 
d="M65 0v510h190l110 -330h20l110 330h190v-390h90v-25l-80 -215h-85l20 120h-70v325h-20l-105 -325h-120l-105 325h-20v-325h-125z" />
    <glyph glyph-name="uni04CF" unicode="&#x4cf;" horiz-adv-x="265" 
d="M70 0v700h125v-700h-125z" />
    <glyph glyph-name="uni04D0" unicode="&#x4d0;" horiz-adv-x="690" 
d="M0 0l250 700h190l250 -700h-145l-53 150h-294l-53 -150h-145zM240 270h210l-95 280h-20zM185 915h95c10 -40 31.667 -60 65 -60s55 20 65 60h95c-2.66699 -45.333 -18 -80.833 -46 -106.5s-66 -38.5 -114 -38.5s-86 12.833 -114 38.5s-43.333 61.167 -46 106.5z" />
    <glyph glyph-name="uni04D1" unicode="&#x4d1;" horiz-adv-x="550" 
d="M385 0l-9.99902 49.999h-5c-8.66699 -10.667 -20.334 -20.667 -35.001 -30c-32 -20 -68.667 -30 -110 -30c-56 0 -100.833 15 -134.5 45s-50.5 66.667 -50.5 110c0 52 18 93.333 54 124s88 46 156 46h115v10c0 28.667 -8.16699 51.667 -24.5 69s-38.166 26 -65.499 26
c-26 0 -46.833 -6.66699 -62.5 -20s-24.834 -28.333 -27.501 -45h-125c6 46 27.333 85 64 117s87 48 151 48s115.833 -18.667 155.5 -56s59.5 -83.666 59.5 -138.999v-325h-105zM365.001 204.999v15h-105c-63.333 0 -95 -21.667 -95 -65c0 -20 7 -35.833 21 -47.5
s33.667 -17.5 59 -17.5c38 0 67.5 10.167 88.5 30.5s31.5 48.5 31.5 84.5zM120.001 724.999h95c10 -40 31.667 -60 65 -60s55 20 65 60h95c-2.66699 -45.333 -18 -80.833 -46 -106.5s-66 -38.5 -114 -38.5s-86 12.833 -114 38.5s-43.333 61.167 -46 106.5z" />
    <glyph glyph-name="uni04D2" unicode="&#x4d2;" horiz-adv-x="690" 
d="M0 0l250 700h190l250 -700h-145l-53 150h-294l-53 -150h-145zM240 270h210l-95 280h-20zM380 785v115h115v-115h-115zM195 785v115h115v-115h-115z" />
    <glyph glyph-name="uni04D3" unicode="&#x4d3;" horiz-adv-x="550" 
d="M385 0l-9.99902 49.999h-5c-8.66699 -10.667 -20.334 -20.667 -35.001 -30c-32 -20 -68.667 -30 -110 -30c-56 0 -100.833 15 -134.5 45s-50.5 66.667 -50.5 110c0 52 18 93.333 54 124s88 46 156 46h115v10c0 28.667 -8.16699 51.667 -24.5 69s-38.166 26 -65.499 26
c-26 0 -46.833 -6.66699 -62.5 -20s-24.834 -28.333 -27.501 -45h-125c6 46 27.333 85 64 117s87 48 151 48s115.833 -18.667 155.5 -56s59.5 -83.666 59.5 -138.999v-325h-105zM365.001 204.999v15h-105c-63.333 0 -95 -21.667 -95 -65c0 -20 7 -35.833 21 -47.5
s33.667 -17.5 59 -17.5c38 0 67.5 10.167 88.5 30.5s31.5 48.5 31.5 84.5zM315.001 594.999v115h115v-115h-115zM130.001 594.999v115h115v-115h-115z" />
    <glyph glyph-name="uni04D6" unicode="&#x4d6;" horiz-adv-x="600" 
d="M75 0v700h470v-120h-340v-170h320v-120h-320v-170h340v-120h-470zM150 915h95c10 -40 31.667 -60 65 -60s55 20 65 60h95c-2.66699 -45.333 -18 -80.833 -46 -106.5s-66 -38.5 -114 -38.5s-86 12.833 -114 38.5s-43.333 61.167 -46 106.5z" />
    </font>
</defs>
</svg>
